<svg width="38" height="27" viewBox="0 0 38 27" fill="none" xmlns="http://www.w3.org/2000/svg">
<path d="M36.0001 20.3342C36.0001 21.6851 35.4635 22.9807 34.5084 23.936C33.5532 24.8913 32.2577 25.428 30.9068 25.4283H7.15729C5.80627 25.4283 4.51057 24.8916 3.55526 23.9363C2.59994 22.9809 2.06323 21.6852 2.06323 20.3342C2.06323 19.6653 2.195 19.003 2.45101 18.385C2.70702 17.767 3.08232 17.2055 3.55535 16.7325C4.02839 16.2595 4.5899 15.8844 5.20793 15.6285C5.82596 15.3726 6.48837 15.2409 7.15729 15.241H30.9068C32.2576 15.241 33.5531 15.7776 34.5083 16.7328C35.4634 17.6879 36.0001 18.9834 36.0001 20.3342V20.3342Z" stroke="white" stroke-width="2.58541" stroke-miterlimit="10" stroke-linecap="round" stroke-linejoin="round"/>
<path d="M27.0132 9.27792C26.9277 9.10637 26.796 8.96217 26.6328 8.8616C26.4696 8.76104 26.2815 8.70813 26.0899 8.70886H23.8923V2.52314C23.8923 2.41376 23.8489 2.30886 23.7715 2.23151C23.6942 2.15417 23.5893 2.11072 23.4799 2.11072H14.5811C14.5269 2.11061 14.4732 2.12121 14.4232 2.1419C14.3731 2.16259 14.3275 2.19296 14.2892 2.23127C14.2509 2.26959 14.2206 2.3151 14.1999 2.36519C14.1792 2.41527 14.1685 2.46895 14.1686 2.52314V8.70886H11.972C11.7802 8.70808 11.592 8.76096 11.4287 8.86152C11.2654 8.96208 11.1335 9.10631 11.0479 9.27792C10.9627 9.45024 10.9269 9.64279 10.9444 9.83422C10.9619 10.0257 11.032 10.2085 11.147 10.3625L18.2096 19.673C18.3057 19.7996 18.4299 19.9024 18.5723 19.9733C18.7147 20.0441 18.8714 20.0811 19.0305 20.0815C19.1894 20.081 19.3461 20.0438 19.4883 19.973C19.6305 19.9022 19.7546 19.7995 19.8507 19.673L26.9092 10.3625C27.0259 10.2094 27.0975 10.0267 27.1159 9.83504C27.1342 9.64338 27.0987 9.45042 27.0132 9.27792Z" fill="#FF8924" stroke="white" stroke-width="2.58541" stroke-miterlimit="10" stroke-linecap="round" stroke-linejoin="round"/>
</svg>
