<svg width="31" height="31" viewBox="0 0 31 31" fill="none" xmlns="http://www.w3.org/2000/svg">
<path d="M30.0492 15.2749C30.0458 17.585 29.1266 19.7995 27.493 21.4328C25.8593 23.0661 23.6446 23.985 21.3345 23.9879H7.65179L10.5207 28.2909C10.5915 28.3967 10.6406 28.5154 10.6654 28.6401C10.6903 28.7649 10.6903 28.8934 10.6654 29.0182C10.6406 29.1429 10.5914 29.2616 10.5206 29.3674C10.4499 29.4731 10.359 29.5639 10.2532 29.6345C10.1473 29.7052 10.0286 29.7544 9.90371 29.7792C9.77886 29.8041 9.65039 29.8041 9.52554 29.7792C9.40069 29.7544 9.28192 29.7052 9.1761 29.6344C9.07028 29.5637 8.97947 29.4727 8.9088 29.3669L5.0363 23.5566C5.01738 23.5226 5.00082 23.4874 4.98673 23.4511C4.96985 23.42 4.95487 23.388 4.94186 23.3551C4.89919 23.248 4.87598 23.1342 4.87335 23.019C4.87615 22.9056 4.8986 22.7935 4.93955 22.6877C4.95372 22.6546 4.96864 22.6223 4.98596 22.5916C5.00015 22.5554 5.01671 22.5202 5.03553 22.4861L8.9088 16.6767C8.97934 16.5708 9.07009 16.4798 9.17581 16.409C9.28153 16.3381 9.40018 16.2889 9.52496 16.2639C9.64975 16.239 9.77822 16.2389 9.90304 16.2637C10.0279 16.2885 10.1466 16.3376 10.2524 16.4083C10.4658 16.5511 10.6138 16.7728 10.664 17.0247C10.7142 17.2766 10.6624 17.5381 10.52 17.7518L7.65179 22.0509H21.3353C23.1325 22.049 24.8555 21.3343 26.1263 20.0635C27.3971 18.7927 28.1119 17.0697 28.1137 15.2725C28.1137 15.0157 28.2157 14.7695 28.3973 14.588C28.5788 14.4064 28.8251 14.3044 29.0818 14.3044C29.3386 14.3044 29.5848 14.4064 29.7664 14.588C29.948 14.7695 30.0499 15.0157 30.0499 15.2725L30.0492 15.2749Z" fill="white" stroke="white" stroke-width="0.861804"/>
<path d="M2.93543 15.2743C2.93554 15.4014 2.9106 15.5273 2.86203 15.6448C2.81346 15.7622 2.74222 15.8689 2.65238 15.9588C2.56255 16.0488 2.4559 16.1201 2.33849 16.1687C2.22108 16.2174 2.0952 16.2424 1.9681 16.2424C1.71134 16.2424 1.46509 16.1404 1.28353 15.9589C1.10197 15.7773 1 15.5311 1 15.2743C1.0025 12.9637 1.9216 10.7484 3.55553 9.11464C5.18947 7.48085 7.40478 6.562 9.71541 6.55971H23.3981L20.53 2.25514C20.4592 2.14937 20.4101 2.0307 20.3853 1.90591C20.3604 1.78112 20.3604 1.65267 20.3853 1.52788C20.4101 1.4031 20.4593 1.28446 20.5301 1.17871C20.6008 1.07295 20.6918 0.982175 20.7976 0.91158C21.0114 0.76903 21.273 0.717223 21.525 0.767556C21.7769 0.817888 21.9985 0.966241 22.1411 1.17998L26.0144 6.99024C26.0327 7.02418 26.049 7.05912 26.0632 7.09492C26.0808 7.12572 26.0961 7.15783 26.1088 7.19095C26.1516 7.29823 26.1746 7.41237 26.1766 7.52783C26.1745 7.64083 26.1521 7.75254 26.1105 7.85763C26.0975 7.89088 26.0821 7.92322 26.0647 7.95443C26.0503 7.99025 26.0337 8.0252 26.0152 8.05911L22.1411 13.8694C22.0706 13.9752 21.98 14.0661 21.8743 14.1368C21.7687 14.2076 21.65 14.2568 21.5254 14.2817C21.4007 14.3067 21.2723 14.3068 21.1476 14.2821C21.0228 14.2574 20.9042 14.2083 20.7984 14.1378C20.585 13.9949 20.4369 13.7733 20.3866 13.5215C20.3363 13.2696 20.3878 13.0081 20.53 12.7942L23.3981 8.49517H9.71541C7.91816 8.49725 6.19509 9.212 4.9241 10.4827C3.6531 11.7534 2.93793 13.4763 2.93543 15.2735V15.2743Z" fill="white" stroke="white" stroke-width="0.861804"/>
</svg>
