<svg width="22" height="25" viewBox="0 0 22 25" fill="none" xmlns="http://www.w3.org/2000/svg">
<path d="M20.5987 10.8179C20.9525 11.018 21.2469 11.3084 21.4518 11.6595C21.6566 12.0106 21.7645 12.4098 21.7645 12.8163C21.7645 13.2228 21.6566 13.622 21.4518 13.9731C21.2469 14.3242 20.9525 14.6147 20.5987 14.8147L3.93305 24.2328C3.58379 24.4302 3.18891 24.5326 2.78775 24.5299C2.3866 24.5271 1.99316 24.4193 1.64666 24.2171C1.30016 24.0149 1.01268 23.7255 0.81287 23.3776C0.613062 23.0298 0.5079 22.6356 0.507862 22.2344V3.39821C0.5079 2.99704 0.613062 2.60288 0.81287 2.25501C1.01268 1.90714 1.30016 1.61771 1.64666 1.41554C1.99316 1.21338 2.3866 1.10554 2.78775 1.10278C3.18891 1.10001 3.58379 1.20242 3.93305 1.3998L20.5987 10.8179Z" fill="white"/>
<path d="M20.7091 0.47229H18.4134C17.7795 0.47229 17.2656 0.9862 17.2656 1.62014V23.4293C17.2656 24.0632 17.7795 24.5772 18.4134 24.5772H20.7091C21.3431 24.5772 21.857 24.0632 21.857 23.4293V1.62014C21.857 0.9862 21.3431 0.47229 20.7091 0.47229Z" fill="white"/>
</svg>
