<svg width="22" height="25" viewBox="0 0 22 25" fill="none" xmlns="http://www.w3.org/2000/svg">
<path d="M1.26629 14.8151C0.912443 14.615 0.618058 14.3246 0.413226 13.9734C0.208395 13.6223 0.100464 13.2231 0.100464 12.8166C0.100464 12.4102 0.208395 12.0109 0.413226 11.6598C0.618058 11.3087 0.912443 11.0183 1.26629 10.8182L17.9331 1.40012C18.2823 1.20274 18.6772 1.10033 19.0784 1.10309C19.4795 1.10586 19.873 1.2137 20.2195 1.41586C20.566 1.61803 20.8535 1.90746 21.0533 2.25533C21.2531 2.6032 21.3582 2.99736 21.3583 3.39853V22.2348C21.3582 22.6359 21.2531 23.0301 21.0533 23.378C20.8535 23.7258 20.566 24.0153 20.2195 24.2174C19.873 24.4196 19.4795 24.5274 19.0784 24.5302C18.6772 24.533 18.2823 24.4305 17.9331 24.2332L1.26629 14.8151Z" fill="white"/>
<path d="M3.45295 0.47229H1.15725C0.52331 0.47229 0.00939941 0.9862 0.00939941 1.62014V23.4293C0.00939941 24.0632 0.52331 24.5772 1.15725 24.5772H3.45295C4.08689 24.5772 4.6008 24.0632 4.6008 23.4293V1.62014C4.6008 0.9862 4.08689 0.47229 3.45295 0.47229Z" fill="white"/>
</svg>
