<svg width="389" height="97" viewBox="0 0 389 97" fill="none" xmlns="http://www.w3.org/2000/svg">
<path opacity="0.285" d="M360.141 77.4938V1.51297C360.141 1.18008 360.273 0.860829 360.509 0.625441C360.744 0.390052 361.063 0.257813 361.396 0.257812C361.729 0.257813 362.048 0.390052 362.284 0.625441C362.519 0.860829 362.651 1.18008 362.651 1.51297V77.4938C362.651 77.8267 362.519 78.1459 362.284 78.3813C362.048 78.6167 361.729 78.7489 361.396 78.7489C361.063 78.7489 360.744 78.6167 360.509 78.3813C360.273 78.1459 360.141 77.8267 360.141 77.4938ZM219.598 77.4938V1.51297C219.598 1.18008 219.73 0.860829 219.966 0.625441C220.201 0.390052 220.52 0.257813 220.853 0.257812C221.186 0.257813 221.505 0.390052 221.741 0.625441C221.976 0.860829 222.108 1.18008 222.108 1.51297V77.4938C222.108 77.8267 221.976 78.1459 221.741 78.3813C221.505 78.6167 221.186 78.7489 220.853 78.7489C220.52 78.7489 220.201 78.6167 219.966 78.3813C219.73 78.1459 219.598 77.8267 219.598 77.4938ZM79.0519 77.4938V1.51297C79.0519 1.18024 79.184 0.861125 79.4193 0.625843C79.6546 0.390561 79.9737 0.258381 80.3064 0.258381C80.6392 0.258381 80.9583 0.390561 81.1936 0.625843C81.4289 0.861125 81.5611 1.18024 81.5611 1.51297V77.4938C81.5611 77.8265 81.4289 78.1456 81.1936 78.3809C80.9583 78.6162 80.6392 78.7484 80.3064 78.7484C79.9737 78.7484 79.6546 78.6162 79.4193 78.3809C79.184 78.1456 79.0519 77.8265 79.0519 77.4938ZM386.49 72.431V7.84622C386.49 7.51333 386.622 7.19408 386.857 6.95869C387.093 6.7233 387.412 6.59106 387.745 6.59106C388.078 6.59106 388.397 6.7233 388.632 6.95869C388.868 7.19408 389 7.51333 389 7.84622V72.4276C389 72.7605 388.868 73.0798 388.632 73.3152C388.397 73.5505 388.078 73.6828 387.745 73.6828C387.412 73.6828 387.093 73.5505 386.857 73.3152C386.622 73.0798 386.49 72.7605 386.49 72.4276V72.431ZM263.515 72.431V6.58026C263.515 6.24737 263.647 5.92811 263.882 5.69272C264.118 5.45733 264.437 5.32509 264.77 5.32509C265.103 5.32509 265.422 5.45733 265.657 5.69272C265.893 5.92811 266.025 6.24737 266.025 6.58026V72.4276C266.025 72.7605 265.893 73.0798 265.657 73.3152C265.422 73.5505 265.103 73.6828 264.77 73.6828C264.437 73.6828 264.118 73.5505 263.882 73.3152C263.647 73.0798 263.515 72.7605 263.515 72.4276V72.431ZM245.947 72.431V7.84622C245.947 7.51348 246.079 7.19437 246.314 6.95909C246.55 6.72381 246.869 6.59163 247.201 6.59163C247.534 6.59163 247.853 6.72381 248.089 6.95909C248.324 7.19437 248.456 7.51348 248.456 7.84622V72.4276C248.456 72.7604 248.324 73.0795 248.089 73.3147C247.853 73.55 247.534 73.6822 247.201 73.6822C246.869 73.6822 246.55 73.55 246.314 73.3147C246.079 73.0795 245.947 72.7604 245.947 72.4276V72.431ZM122.972 72.431V6.58026C122.972 6.24737 123.104 5.92811 123.339 5.69272C123.575 5.45733 123.894 5.32509 124.227 5.32509C124.56 5.32509 124.879 5.45733 125.114 5.69272C125.35 5.92811 125.482 6.24737 125.482 6.58026V72.4276C125.482 72.7605 125.35 73.0798 125.114 73.3152C124.879 73.5505 124.56 73.6828 124.227 73.6828C123.894 73.6828 123.575 73.5505 123.339 73.3152C123.104 73.0798 122.972 72.7605 122.972 72.4276V72.431ZM105.404 72.431V7.84622C105.404 7.51348 105.536 7.19437 105.771 6.95909C106.007 6.72381 106.326 6.59163 106.659 6.59163C106.991 6.59163 107.31 6.72381 107.546 6.95909C107.781 7.19437 107.913 7.51348 107.913 7.84622V72.4276C107.913 72.7604 107.781 73.0795 107.546 73.3147C107.31 73.55 106.991 73.6822 106.659 73.6822C106.326 73.6822 106.007 73.55 105.771 73.3147C105.536 73.0795 105.404 72.7604 105.404 72.4276V72.431ZM368.925 69.8957V9.11219C368.925 8.77945 369.058 8.46034 369.293 8.22506C369.528 7.98978 369.847 7.8576 370.18 7.8576C370.513 7.8576 370.832 7.98978 371.067 8.22506C371.302 8.46034 371.435 8.77945 371.435 9.11219V69.8957C371.435 70.2284 371.302 70.5475 371.067 70.7828C370.832 71.0181 370.513 71.1503 370.18 71.1503C369.847 71.1503 369.528 71.0181 369.293 70.7828C369.058 70.5475 368.925 70.2284 368.925 69.8957ZM351.358 69.8957V10.3782C351.358 10.0454 351.49 9.72631 351.725 9.49103C351.96 9.25574 352.28 9.12356 352.612 9.12356C352.945 9.12356 353.264 9.25574 353.499 9.49103C353.735 9.72631 353.867 10.0454 353.867 10.3782V69.8957C353.867 70.2284 353.735 70.5475 353.499 70.7828C353.264 71.0181 352.945 71.1503 352.612 71.1503C352.28 71.1503 351.96 71.0181 351.725 70.7828C351.49 70.5475 351.358 70.2284 351.358 69.8957ZM316.221 69.8957V9.11219C316.221 8.7793 316.353 8.46004 316.589 8.22466C316.824 7.98927 317.143 7.85703 317.476 7.85703C317.809 7.85703 318.128 7.98927 318.364 8.22466C318.599 8.46004 318.731 8.7793 318.731 9.11219V69.8957C318.731 70.2286 318.599 70.5478 318.364 70.7832C318.128 71.0186 317.809 71.1508 317.476 71.1508C317.143 71.1508 316.824 71.0186 316.589 70.7832C316.353 70.5478 316.221 70.2286 316.221 69.8957ZM281.085 69.8957V10.3782C281.085 10.0453 281.217 9.72601 281.452 9.49062C281.688 9.25523 282.007 9.123 282.34 9.123C282.673 9.123 282.992 9.25523 283.227 9.49062C283.463 9.72601 283.595 10.0453 283.595 10.3782V69.8957C283.595 70.2286 283.463 70.5478 283.227 70.7832C282.992 71.0186 282.673 71.1508 282.34 71.1508C282.007 71.1508 281.688 71.0186 281.452 70.7832C281.217 70.5478 281.085 70.2286 281.085 69.8957ZM254.734 69.8957V10.3782C254.734 10.0454 254.866 9.72631 255.101 9.49103C255.336 9.25574 255.655 9.12356 255.988 9.12356C256.321 9.12356 256.64 9.25574 256.875 9.49103C257.111 9.72631 257.243 10.0454 257.243 10.3782V69.8957C257.243 70.2284 257.111 70.5475 256.875 70.7828C256.64 71.0181 256.321 71.1503 255.988 71.1503C255.655 71.1503 255.336 71.0181 255.101 70.7828C254.866 70.5475 254.734 70.2284 254.734 69.8957ZM228.381 69.8957V9.11219C228.381 8.77945 228.514 8.46034 228.749 8.22506C228.984 7.98978 229.303 7.8576 229.636 7.8576C229.969 7.8576 230.288 7.98978 230.523 8.22506C230.758 8.46034 230.891 8.77945 230.891 9.11219V69.8957C230.891 70.2284 230.758 70.5475 230.523 70.7828C230.288 71.0181 229.969 71.1503 229.636 71.1503C229.303 71.1503 228.984 71.0181 228.749 70.7828C228.514 70.5475 228.381 70.2284 228.381 69.8957ZM210.813 69.8957V10.3782C210.813 10.0453 210.945 9.72601 211.18 9.49062C211.416 9.25523 211.735 9.123 212.068 9.123C212.401 9.123 212.72 9.25523 212.955 9.49062C213.191 9.72601 213.323 10.0453 213.323 10.3782V69.8957C213.323 70.2286 213.191 70.5478 212.955 70.7832C212.72 71.0186 212.401 71.1508 212.068 71.1508C211.735 71.1508 211.416 71.0186 211.18 70.7832C210.945 70.5478 210.813 70.2286 210.813 69.8957ZM175.677 69.8957V9.11219C175.677 8.77945 175.809 8.46034 176.045 8.22506C176.28 7.98978 176.599 7.8576 176.932 7.8576C177.264 7.8576 177.584 7.98978 177.819 8.22506C178.054 8.46034 178.186 8.77945 178.186 9.11219V69.8957C178.186 70.2284 178.054 70.5475 177.819 70.7828C177.584 71.0181 177.264 71.1503 176.932 71.1503C176.599 71.1503 176.28 71.0181 176.045 70.7828C175.809 70.5475 175.677 70.2284 175.677 69.8957ZM140.541 69.8957V10.3782C140.541 10.0453 140.673 9.72601 140.908 9.49062C141.144 9.25523 141.463 9.123 141.796 9.123C142.129 9.123 142.448 9.25523 142.683 9.49062C142.919 9.72601 143.051 10.0453 143.051 10.3782V69.8957C143.051 70.2286 142.919 70.5478 142.683 70.7832C142.448 71.0186 142.129 71.1508 141.796 71.1508C141.463 71.1508 141.144 71.0186 140.908 70.7832C140.673 70.5478 140.541 70.2286 140.541 69.8957ZM114.188 69.8957V10.3782C114.188 10.0453 114.321 9.72601 114.556 9.49062C114.791 9.25523 115.111 9.123 115.444 9.123C115.776 9.123 116.096 9.25523 116.331 9.49062C116.567 9.72601 116.699 10.0453 116.699 10.3782V69.8957C116.699 70.2286 116.567 70.5478 116.331 70.7832C116.096 71.0186 115.776 71.1508 115.444 71.1508C115.111 71.1508 114.791 71.0186 114.556 70.7832C114.321 70.5478 114.188 70.2286 114.188 69.8957ZM87.8363 69.8957V9.11219C87.8363 8.7793 87.9685 8.46004 88.2039 8.22466C88.4393 7.98927 88.7586 7.85703 89.0914 7.85703C89.4243 7.85703 89.7436 7.98927 89.979 8.22466C90.2144 8.46004 90.3466 8.7793 90.3466 9.11219V69.8957C90.3466 70.2286 90.2144 70.5478 89.979 70.7832C89.7436 71.0186 89.4243 71.1508 89.0914 71.1508C88.7586 71.1508 88.4393 71.0186 88.2039 70.7832C87.9685 70.5478 87.8363 70.2286 87.8363 69.8957ZM70.2686 69.8957V10.3782C70.2686 10.0453 70.4008 9.72601 70.6362 9.49062C70.8716 9.25523 71.1908 9.123 71.5237 9.123C71.8566 9.123 72.1759 9.25523 72.4113 9.49062C72.6467 9.72601 72.7789 10.0453 72.7789 10.3782V69.8957C72.7789 70.2286 72.6467 70.5478 72.4113 70.7832C72.1759 71.0186 71.8566 71.1508 71.5237 71.1508C71.1908 71.1508 70.8716 71.0186 70.6362 70.7832C70.4008 70.5478 70.2686 70.2286 70.2686 69.8957ZM35.1332 69.8957V9.11219C35.1332 8.77945 35.2653 8.46034 35.5006 8.22506C35.7359 7.98978 36.055 7.8576 36.3877 7.8576C36.7205 7.8576 37.0396 7.98978 37.2749 8.22506C37.5102 8.46034 37.6423 8.77945 37.6423 9.11219V69.8957C37.6423 70.2284 37.5102 70.5475 37.2749 70.7828C37.0396 71.0181 36.7205 71.1503 36.3877 71.1503C36.055 71.1503 35.7359 71.0181 35.5006 70.7828C35.2653 70.5475 35.1332 70.2284 35.1332 69.8957ZM0 69.8957V10.3782C0 10.0453 0.13224 9.72601 0.367628 9.49062C0.603017 9.25523 0.922272 9.123 1.25516 9.123C1.58805 9.123 1.90731 9.25523 2.14269 9.49062C2.37808 9.72601 2.51032 10.0453 2.51032 10.3782V69.8957C2.51032 70.2286 2.37808 70.5478 2.14269 70.7832C1.90731 71.0186 1.58805 71.1508 1.25516 71.1508C0.922272 71.1508 0.603017 71.0186 0.367628 70.7832C0.13224 70.5478 0 70.2286 0 69.8957H0ZM307.438 67.3626V11.643C307.438 11.3101 307.57 10.9908 307.805 10.7555C308.041 10.5201 308.36 10.3878 308.693 10.3878C309.026 10.3878 309.345 10.5201 309.581 10.7555C309.816 10.9908 309.948 11.3101 309.948 11.643V67.3626C309.948 67.6955 309.816 68.0148 309.581 68.2501C309.345 68.4855 309.026 68.6178 308.693 68.6178C308.36 68.6178 308.041 68.4855 307.805 68.2501C307.57 68.0148 307.438 67.6955 307.438 67.3626ZM166.895 67.3626V11.643C166.895 11.3101 167.027 10.9908 167.263 10.7555C167.498 10.5201 167.817 10.3878 168.15 10.3878C168.483 10.3878 168.802 10.5201 169.038 10.7555C169.273 10.9908 169.405 11.3101 169.405 11.643V67.3626C169.405 67.6955 169.273 68.0148 169.038 68.2501C168.802 68.4855 168.483 68.6178 168.15 68.6178C167.817 68.6178 167.498 68.4855 167.263 68.2501C167.027 68.0148 166.895 67.6955 166.895 67.3626ZM26.3521 67.3626V11.643C26.3521 11.3101 26.4844 10.9908 26.7198 10.7555C26.9552 10.5201 27.2744 10.3878 27.6073 10.3878C27.9402 10.3878 28.2594 10.5201 28.4948 10.7555C28.7302 10.9908 28.8625 11.3101 28.8625 11.643V67.3626C28.8625 67.6955 28.7302 68.0148 28.4948 68.2501C28.2594 68.4855 27.9402 68.6178 27.6073 68.6178C27.2744 68.6178 26.9552 68.4855 26.7198 68.2501C26.4844 68.0148 26.3521 67.6955 26.3521 67.3626ZM377.706 66.0978V14.1749C377.706 13.842 377.839 13.5228 378.074 13.2874C378.309 13.052 378.629 12.9198 378.962 12.9198C379.294 12.9198 379.614 13.052 379.849 13.2874C380.084 13.5228 380.217 13.842 380.217 14.1749V66.0978C380.217 66.4307 380.084 66.7499 379.849 66.9853C379.614 67.2207 379.294 67.3529 378.962 67.3529C378.629 67.3529 378.309 67.2207 378.074 66.9853C377.839 66.7499 377.706 66.4307 377.706 66.0978ZM325.003 66.0978V14.1749C325.003 13.8422 325.135 13.5231 325.371 13.2878C325.606 13.0525 325.925 12.9203 326.258 12.9203C326.591 12.9203 326.91 13.0525 327.145 13.2878C327.38 13.5231 327.512 13.8422 327.512 14.1749V66.0978C327.512 66.4305 327.38 66.7496 327.145 66.9849C326.91 67.2202 326.591 67.3524 326.258 67.3524C325.925 67.3524 325.606 67.2202 325.371 66.9849C325.135 66.7496 325.003 66.4305 325.003 66.0978ZM237.164 66.0978V14.1749C237.164 13.842 237.296 13.5228 237.531 13.2874C237.767 13.052 238.086 12.9198 238.419 12.9198C238.752 12.9198 239.071 13.052 239.306 13.2874C239.542 13.5228 239.674 13.842 239.674 14.1749V66.0978C239.674 66.4307 239.542 66.7499 239.306 66.9853C239.071 67.2207 238.752 67.3529 238.419 67.3529C238.086 67.3529 237.767 67.2207 237.531 66.9853C237.296 66.7499 237.164 66.4307 237.164 66.0978ZM184.459 66.0978V14.1749C184.459 13.842 184.592 13.5228 184.827 13.2874C185.062 13.052 185.382 12.9198 185.714 12.9198C186.047 12.9198 186.367 13.052 186.602 13.2874C186.837 13.5228 186.97 13.842 186.97 14.1749V66.0978C186.97 66.4307 186.837 66.7499 186.602 66.9853C186.367 67.2207 186.047 67.3529 185.714 67.3529C185.382 67.3529 185.062 67.2207 184.827 66.9853C184.592 66.7499 184.459 66.4307 184.459 66.0978ZM96.6207 66.0978V14.1749C96.6207 13.842 96.753 13.5228 96.9883 13.2874C97.2237 13.052 97.543 12.9198 97.8759 12.9198C98.2088 12.9198 98.528 13.052 98.7634 13.2874C98.9988 13.5228 99.131 13.842 99.131 14.1749V66.0978C99.131 66.4307 98.9988 66.7499 98.7634 66.9853C98.528 67.2207 98.2088 67.3529 97.8759 67.3529C97.543 67.3529 97.2237 67.2207 96.9883 66.9853C96.753 66.7499 96.6207 66.4307 96.6207 66.0978ZM43.9164 66.0978V14.1749C43.9164 13.842 44.0487 13.5228 44.2841 13.2874C44.5195 13.052 44.8387 12.9198 45.1716 12.9198C45.5045 12.9198 45.8237 13.052 46.0591 13.2874C46.2945 13.5228 46.4268 13.842 46.4268 14.1749V66.0978C46.4268 66.4307 46.2945 66.7499 46.0591 66.9853C45.8237 67.2207 45.5045 67.3529 45.1716 67.3529C44.8387 67.3529 44.5195 67.2207 44.2841 66.9853C44.0487 66.7499 43.9164 66.4307 43.9164 66.0978ZM289.867 64.8318V15.4409C289.867 15.108 289.999 14.7887 290.234 14.5534C290.47 14.318 290.789 14.1857 291.122 14.1857C291.455 14.1857 291.774 14.318 292.009 14.5534C292.245 14.7887 292.377 15.108 292.377 15.4409V64.8318C292.377 65.1647 292.245 65.484 292.009 65.7193C291.774 65.9547 291.455 66.087 291.122 66.087C290.789 66.087 290.47 65.9547 290.234 65.7193C289.999 65.484 289.867 65.1647 289.867 64.8318ZM272.299 64.8318V14.1749C272.299 13.8422 272.431 13.5231 272.666 13.2878C272.902 13.0525 273.221 12.9203 273.554 12.9203C273.886 12.9203 274.205 13.0525 274.441 13.2878C274.676 13.5231 274.808 13.8422 274.808 14.1749V64.8318C274.808 65.1646 274.676 65.4837 274.441 65.7189C274.205 65.9542 273.886 66.0864 273.554 66.0864C273.221 66.0864 272.902 65.9542 272.666 65.7189C272.431 65.4837 272.299 65.1646 272.299 64.8318ZM149.324 64.8318V15.4409C149.324 15.1082 149.456 14.789 149.691 14.5538C149.927 14.3185 150.246 14.1863 150.578 14.1863C150.911 14.1863 151.23 14.3185 151.466 14.5538C151.701 14.789 151.833 15.1082 151.833 15.4409V64.8318C151.833 65.1646 151.701 65.4837 151.466 65.7189C151.23 65.9542 150.911 66.0864 150.578 66.0864C150.246 66.0864 149.927 65.9542 149.691 65.7189C149.456 65.4837 149.324 65.1646 149.324 64.8318ZM131.756 64.8318V14.1749C131.756 13.8422 131.888 13.5231 132.124 13.2878C132.359 13.0525 132.678 12.9203 133.011 12.9203C133.343 12.9203 133.663 13.0525 133.898 13.2878C134.133 13.5231 134.265 13.8422 134.265 14.1749V64.8318C134.265 65.1646 134.133 65.4837 133.898 65.7189C133.663 65.9542 133.343 66.0864 133.011 66.0864C132.678 66.0864 132.359 65.9542 132.124 65.7189C131.888 65.4837 131.756 65.1646 131.756 64.8318ZM8.78101 64.8318V15.4409C8.78101 15.1082 8.91319 14.789 9.14847 14.5538C9.38376 14.3185 9.70287 14.1863 10.0356 14.1863C10.3683 14.1863 10.6875 14.3185 10.9227 14.5538C11.158 14.789 11.2902 15.1082 11.2902 15.4409V64.8318C11.2902 65.1646 11.158 65.4837 10.9227 65.7189C10.6875 65.9542 10.3683 66.0864 10.0356 66.0864C9.70287 66.0864 9.38376 65.9542 9.14847 65.7189C8.91319 65.4837 8.78101 65.1646 8.78101 64.8318ZM333.787 61.035V17.9728C333.787 17.6399 333.919 17.3207 334.154 17.0853C334.39 16.8499 334.709 16.7177 335.042 16.7177C335.375 16.7177 335.694 16.8499 335.929 17.0853C336.165 17.3207 336.297 17.6399 336.297 17.9728V61.0339C336.297 61.3668 336.165 61.6861 335.929 61.9214C335.694 62.1568 335.375 62.2891 335.042 62.2891C334.709 62.2891 334.39 62.1568 334.154 61.9214C333.919 61.6861 333.787 61.3668 333.787 61.0339V61.035ZM193.244 61.035V17.9728C193.244 17.6399 193.376 17.3207 193.611 17.0853C193.847 16.8499 194.166 16.7177 194.499 16.7177C194.832 16.7177 195.151 16.8499 195.386 17.0853C195.622 17.3207 195.754 17.6399 195.754 17.9728V61.0339C195.754 61.3668 195.622 61.6861 195.386 61.9214C195.151 62.1568 194.832 62.2891 194.499 62.2891C194.166 62.2891 193.847 62.1568 193.611 61.9214C193.376 61.6861 193.244 61.3668 193.244 61.0339V61.035ZM52.7009 61.035V17.9728C52.7009 17.6401 52.833 17.321 53.0683 17.0857C53.3036 16.8504 53.6227 16.7182 53.9555 16.7182C54.2882 16.7182 54.6073 16.8504 54.8426 17.0857C55.0779 17.321 55.21 17.6401 55.21 17.9728V61.0339C55.21 61.3666 55.0779 61.6858 54.8426 61.921C54.6073 62.1563 54.2882 62.2885 53.9555 62.2885C53.6227 62.2885 53.3036 62.1563 53.0683 61.921C52.833 61.6858 52.7009 61.3666 52.7009 61.0339V61.035ZM298.651 59.7691V19.2388C298.651 18.9061 298.783 18.5869 299.019 18.3517C299.254 18.1164 299.573 17.9842 299.906 17.9842C300.238 17.9842 300.558 18.1164 300.793 18.3517C301.028 18.5869 301.16 18.9061 301.16 19.2388V59.7679C301.16 60.1007 301.028 60.4198 300.793 60.6551C300.558 60.8904 300.238 61.0225 299.906 61.0225C299.573 61.0225 299.254 60.8904 299.019 60.6551C298.783 60.4198 298.651 60.1007 298.651 59.7679V59.7691ZM158.107 59.7691V19.2388C158.107 18.9059 158.239 18.5866 158.475 18.3513C158.71 18.1159 159.029 17.9836 159.362 17.9836C159.695 17.9836 160.014 18.1159 160.25 18.3513C160.485 18.5866 160.617 18.9059 160.617 19.2388V59.7679C160.617 60.1008 160.485 60.4201 160.25 60.6555C160.014 60.8909 159.695 61.0231 159.362 61.0231C159.029 61.0231 158.71 60.8909 158.475 60.6555C158.239 60.4201 158.107 60.1008 158.107 59.7679V59.7691ZM17.5643 59.7691V19.2388C17.5643 18.9059 17.6965 18.5866 17.9319 18.3513C18.1673 18.1159 18.4866 17.9836 18.8195 17.9836C19.1524 17.9836 19.4716 18.1159 19.707 18.3513C19.9424 18.5866 20.0746 18.9059 20.0746 19.2388V59.7679C20.0746 60.1008 19.9424 60.4201 19.707 60.6555C19.4716 60.8909 19.1524 61.0231 18.8195 61.0231C18.4866 61.0231 18.1673 60.8909 17.9319 60.6555C17.6965 60.4201 17.5643 60.1008 17.5643 59.7679V59.7691ZM342.574 58.4986V20.5082C342.574 20.1753 342.707 19.856 342.942 19.6206C343.177 19.3852 343.497 19.253 343.83 19.253C344.162 19.253 344.482 19.3852 344.717 19.6206C344.952 19.856 345.085 20.1753 345.085 20.5082V58.4986C345.085 58.8315 344.952 59.1507 344.717 59.3861C344.482 59.6215 344.162 59.7537 343.83 59.7537C343.497 59.7537 343.177 59.6215 342.942 59.3861C342.707 59.1507 342.574 58.8315 342.574 58.4986ZM202.032 58.4986V20.5082C202.032 20.1754 202.164 19.8563 202.399 19.621C202.634 19.3858 202.953 19.2536 203.286 19.2536C203.619 19.2536 203.938 19.3858 204.173 19.621C204.409 19.8563 204.541 20.1754 204.541 20.5082V58.4986C204.541 58.8313 204.409 59.1504 204.173 59.3857C203.938 59.621 203.619 59.7532 203.286 59.7532C202.953 59.7532 202.634 59.621 202.399 59.3857C202.164 59.1504 202.032 58.8313 202.032 58.4986ZM61.4876 58.4986V20.5082C61.4876 20.1753 61.6198 19.856 61.8552 19.6206C62.0906 19.3852 62.4098 19.253 62.7427 19.253C63.0756 19.253 63.3949 19.3852 63.6303 19.6206C63.8656 19.856 63.9979 20.1753 63.9979 20.5082V58.4986C63.9979 58.8315 63.8656 59.1507 63.6303 59.3861C63.3949 59.6215 63.0756 59.7537 62.7427 59.7537C62.4098 59.7537 62.0906 59.6215 61.8552 59.3861C61.6198 59.1507 61.4876 58.8315 61.4876 58.4986Z" fill="white"/>
<path d="M360.141 77.4938V1.51304C360.141 1.18015 360.273 0.86089 360.509 0.625502C360.744 0.390113 361.063 0.257874 361.396 0.257874C361.729 0.257874 362.048 0.390113 362.284 0.625502C362.519 0.86089 362.651 1.18015 362.651 1.51304V77.4938C362.651 77.8267 362.519 78.146 362.284 78.3813C362.048 78.6167 361.729 78.749 361.396 78.749C361.063 78.749 360.744 78.6167 360.509 78.3813C360.273 78.146 360.141 77.8267 360.141 77.4938ZM219.598 77.4938V1.51304C219.598 1.18015 219.73 0.86089 219.966 0.625502C220.201 0.390113 220.52 0.257874 220.853 0.257874C221.186 0.257874 221.505 0.390113 221.741 0.625502C221.976 0.86089 222.108 1.18015 222.108 1.51304V77.4938C222.108 77.8267 221.976 78.146 221.741 78.3813C221.505 78.6167 221.186 78.749 220.853 78.749C220.52 78.749 220.201 78.6167 219.966 78.3813C219.73 78.146 219.598 77.8267 219.598 77.4938ZM386.49 72.4311V7.84628C386.49 7.51339 386.622 7.19414 386.857 6.95875C387.093 6.72336 387.412 6.59112 387.745 6.59112C388.078 6.59112 388.397 6.72336 388.632 6.95875C388.868 7.19414 389 7.51339 389 7.84628V72.4277C389 72.7606 388.868 73.0798 388.632 73.3152C388.397 73.5506 388.078 73.6828 387.745 73.6828C387.412 73.6828 387.093 73.5506 386.857 73.3152C386.622 73.0798 386.49 72.7606 386.49 72.4277V72.4311ZM263.514 72.4311V6.58032C263.514 6.24743 263.647 5.92817 263.882 5.69278C264.118 5.45739 264.437 5.32515 264.77 5.32515C265.103 5.32515 265.422 5.45739 265.657 5.69278C265.893 5.92817 266.025 6.24743 266.025 6.58032V72.4277C266.025 72.7606 265.893 73.0798 265.657 73.3152C265.422 73.5506 265.103 73.6828 264.77 73.6828C264.437 73.6828 264.118 73.5506 263.882 73.3152C263.647 73.0798 263.514 72.7606 263.514 72.4277V72.4311ZM245.947 72.4311V7.84628C245.947 7.51355 246.079 7.19443 246.314 6.95915C246.55 6.72387 246.869 6.59169 247.201 6.59169C247.534 6.59169 247.853 6.72387 248.089 6.95915C248.324 7.19443 248.456 7.51355 248.456 7.84628V72.4277C248.456 72.7604 248.324 73.0795 248.089 73.3148C247.853 73.5501 247.534 73.6823 247.201 73.6823C246.869 73.6823 246.55 73.5501 246.314 73.3148C246.079 73.0795 245.947 72.7604 245.947 72.4277V72.4311ZM368.925 69.8957V9.11225C368.925 8.77951 369.057 8.4604 369.293 8.22512C369.528 7.98984 369.847 7.85766 370.18 7.85766C370.513 7.85766 370.832 7.98984 371.067 8.22512C371.302 8.4604 371.434 8.77951 371.434 9.11225V69.8957C371.434 70.2285 371.302 70.5476 371.067 70.7829C370.832 71.0182 370.513 71.1503 370.18 71.1503C369.847 71.1503 369.528 71.0182 369.293 70.7829C369.057 70.5476 368.925 70.2285 368.925 69.8957ZM351.358 69.8957V10.3782C351.358 10.0455 351.49 9.72637 351.725 9.49109C351.96 9.25581 352.279 9.12362 352.612 9.12362C352.945 9.12362 353.264 9.25581 353.499 9.49109C353.735 9.72637 353.867 10.0455 353.867 10.3782V69.8957C353.867 70.2285 353.735 70.5476 353.499 70.7829C353.264 71.0182 352.945 71.1503 352.612 71.1503C352.279 71.1503 351.96 71.0182 351.725 70.7829C351.49 70.5476 351.358 70.2285 351.358 69.8957ZM316.221 69.8957V9.11225C316.221 8.77936 316.353 8.46011 316.589 8.22472C316.824 7.98933 317.143 7.85709 317.476 7.85709C317.809 7.85709 318.128 7.98933 318.364 8.22472C318.599 8.46011 318.731 8.77936 318.731 9.11225V69.8957C318.731 70.2286 318.599 70.5479 318.364 70.7833C318.128 71.0187 317.809 71.1509 317.476 71.1509C317.143 71.1509 316.824 71.0187 316.589 70.7833C316.353 70.5479 316.221 70.2286 316.221 69.8957ZM281.084 69.8957V10.3782C281.084 10.0453 281.217 9.72607 281.452 9.49068C281.688 9.2553 282.007 9.12306 282.34 9.12306C282.673 9.12306 282.992 9.2553 283.227 9.49068C283.463 9.72607 283.595 10.0453 283.595 10.3782V69.8957C283.595 70.2286 283.463 70.5479 283.227 70.7833C282.992 71.0187 282.673 71.1509 282.34 71.1509C282.007 71.1509 281.688 71.0187 281.452 70.7833C281.217 70.5479 281.084 70.2286 281.084 69.8957ZM254.733 69.8957V10.3782C254.733 10.0455 254.866 9.72637 255.101 9.49109C255.336 9.25581 255.655 9.12362 255.988 9.12362C256.321 9.12362 256.64 9.25581 256.875 9.49109C257.11 9.72637 257.243 10.0455 257.243 10.3782V69.8957C257.243 70.2285 257.11 70.5476 256.875 70.7829C256.64 71.0182 256.321 71.1503 255.988 71.1503C255.655 71.1503 255.336 71.0182 255.101 70.7829C254.866 70.5476 254.733 70.2285 254.733 69.8957ZM228.381 69.8957V9.11225C228.381 8.77951 228.514 8.4604 228.749 8.22512C228.984 7.98984 229.303 7.85766 229.636 7.85766C229.969 7.85766 230.288 7.98984 230.523 8.22512C230.758 8.4604 230.891 8.77951 230.891 9.11225V69.8957C230.891 70.2285 230.758 70.5476 230.523 70.7829C230.288 71.0182 229.969 71.1503 229.636 71.1503C229.303 71.1503 228.984 71.0182 228.749 70.7829C228.514 70.5476 228.381 70.2285 228.381 69.8957ZM210.812 69.8957V10.3782C210.812 10.0453 210.945 9.72607 211.18 9.49068C211.416 9.2553 211.735 9.12306 212.068 9.12306C212.401 9.12306 212.72 9.2553 212.955 9.49068C213.191 9.72607 213.323 10.0453 213.323 10.3782V69.8957C213.323 70.2286 213.191 70.5479 212.955 70.7833C212.72 71.0187 212.401 71.1509 212.068 71.1509C211.735 71.1509 211.416 71.0187 211.18 70.7833C210.945 70.5479 210.812 70.2286 210.812 69.8957ZM175.677 69.8957V9.11225C175.677 8.77951 175.809 8.4604 176.045 8.22512C176.28 7.98984 176.599 7.85766 176.932 7.85766C177.264 7.85766 177.584 7.98984 177.819 8.22512C178.054 8.4604 178.186 8.77951 178.186 9.11225V69.8957C178.186 70.2285 178.054 70.5476 177.819 70.7829C177.584 71.0182 177.264 71.1503 176.932 71.1503C176.599 71.1503 176.28 71.0182 176.045 70.7829C175.809 70.5476 175.677 70.2285 175.677 69.8957ZM307.438 67.3627V11.643C307.438 11.3102 307.57 10.9909 307.805 10.7555C308.041 10.5201 308.36 10.3879 308.693 10.3879C309.026 10.3879 309.345 10.5201 309.58 10.7555C309.816 10.9909 309.948 11.3102 309.948 11.643V67.3627C309.948 67.6956 309.816 68.0148 309.58 68.2502C309.345 68.4856 309.026 68.6178 308.693 68.6178C308.36 68.6178 308.041 68.4856 307.805 68.2502C307.57 68.0148 307.438 67.6956 307.438 67.3627ZM377.706 66.0978V14.175C377.706 13.8421 377.839 13.5228 378.074 13.2874C378.309 13.0521 378.629 12.9198 378.962 12.9198C379.294 12.9198 379.614 13.0521 379.849 13.2874C380.084 13.5228 380.217 13.8421 380.217 14.175V66.0978C380.217 66.4307 380.084 66.75 379.849 66.9854C379.614 67.2208 379.294 67.353 378.962 67.353C378.629 67.353 378.309 67.2208 378.074 66.9854C377.839 66.75 377.706 66.4307 377.706 66.0978ZM325.003 66.0978V14.175C325.003 13.8422 325.135 13.5231 325.371 13.2879C325.606 13.0526 325.925 12.9204 326.258 12.9204C326.591 12.9204 326.91 13.0526 327.145 13.2879C327.38 13.5231 327.512 13.8422 327.512 14.175V66.0978C327.512 66.4306 327.38 66.7497 327.145 66.985C326.91 67.2203 326.591 67.3524 326.258 67.3524C325.925 67.3524 325.606 67.2203 325.371 66.985C325.135 66.7497 325.003 66.4306 325.003 66.0978ZM237.163 66.0978V14.175C237.163 13.8421 237.296 13.5228 237.531 13.2874C237.766 13.0521 238.086 12.9198 238.419 12.9198C238.752 12.9198 239.071 13.0521 239.306 13.2874C239.542 13.5228 239.674 13.8421 239.674 14.175V66.0978C239.674 66.4307 239.542 66.75 239.306 66.9854C239.071 67.2208 238.752 67.353 238.419 67.353C238.086 67.353 237.766 67.2208 237.531 66.9854C237.296 66.75 237.163 66.4307 237.163 66.0978ZM184.459 66.0978V14.175C184.459 13.8421 184.591 13.5228 184.827 13.2874C185.062 13.0521 185.381 12.9198 185.714 12.9198C186.047 12.9198 186.367 13.0521 186.602 13.2874C186.837 13.5228 186.97 13.8421 186.97 14.175V66.0978C186.97 66.4307 186.837 66.75 186.602 66.9854C186.367 67.2208 186.047 67.353 185.714 67.353C185.381 67.353 185.062 67.2208 184.827 66.9854C184.591 66.75 184.459 66.4307 184.459 66.0978ZM289.867 64.8319V15.4409C289.867 15.1081 289.999 14.7888 290.234 14.5534C290.47 14.318 290.789 14.1858 291.122 14.1858C291.455 14.1858 291.774 14.318 292.009 14.5534C292.245 14.7888 292.377 15.1081 292.377 15.4409V64.8319C292.377 65.1648 292.245 65.484 292.009 65.7194C291.774 65.9548 291.455 66.087 291.122 66.087C290.789 66.087 290.47 65.9548 290.234 65.7194C289.999 65.484 289.867 65.1648 289.867 64.8319ZM272.299 64.8319V14.175C272.299 13.8422 272.431 13.5231 272.666 13.2879C272.902 13.0526 273.221 12.9204 273.554 12.9204C273.886 12.9204 274.205 13.0526 274.441 13.2879C274.676 13.5231 274.808 13.8422 274.808 14.175V64.8319C274.808 65.1646 274.676 65.4837 274.441 65.719C274.205 65.9543 273.886 66.0865 273.554 66.0865C273.221 66.0865 272.902 65.9543 272.666 65.719C272.431 65.4837 272.299 65.1646 272.299 64.8319ZM333.786 61.0351V17.9729C333.786 17.64 333.919 17.3207 334.154 17.0854C334.389 16.85 334.709 16.7177 335.042 16.7177C335.375 16.7177 335.694 16.85 335.929 17.0854C336.165 17.3207 336.297 17.64 336.297 17.9729V61.034C336.297 61.3669 336.165 61.6861 335.929 61.9215C335.694 62.1569 335.375 62.2891 335.042 62.2891C334.709 62.2891 334.389 62.1569 334.154 61.9215C333.919 61.6861 333.786 61.368 333.786 61.0351ZM193.244 61.0351V17.9729C193.244 17.64 193.376 17.3207 193.611 17.0854C193.847 16.85 194.166 16.7177 194.499 16.7177C194.832 16.7177 195.151 16.85 195.386 17.0854C195.622 17.3207 195.754 17.64 195.754 17.9729V61.034C195.754 61.3669 195.622 61.6861 195.386 61.9215C195.151 62.1569 194.832 62.2891 194.499 62.2891C194.166 62.2891 193.847 62.1569 193.611 61.9215C193.376 61.6861 193.244 61.368 193.244 61.0351ZM298.651 59.7691V19.2389C298.651 18.9061 298.783 18.587 299.019 18.3517C299.254 18.1164 299.573 17.9843 299.906 17.9843C300.238 17.9843 300.557 18.1164 300.793 18.3517C301.028 18.587 301.16 18.9061 301.16 19.2389V59.768C301.16 60.1007 301.028 60.4199 300.793 60.6551C300.557 60.8904 300.238 61.0226 299.906 61.0226C299.573 61.0226 299.254 60.8904 299.019 60.6551C298.783 60.4199 298.651 60.1019 298.651 59.7691ZM342.574 58.4986V20.5082C342.574 20.1753 342.707 19.8561 342.942 19.6207C343.177 19.3853 343.497 19.2531 343.829 19.2531C344.162 19.2531 344.482 19.3853 344.717 19.6207C344.952 19.8561 345.085 20.1753 345.085 20.5082V58.4986C345.085 58.8315 344.952 59.1508 344.717 59.3862C344.482 59.6215 344.162 59.7538 343.829 59.7538C343.497 59.7538 343.177 59.6215 342.942 59.3862C342.707 59.1508 342.574 58.8315 342.574 58.4986ZM202.031 58.4986V20.5082C202.031 20.1755 202.164 19.8564 202.399 19.6211C202.634 19.3858 202.953 19.2536 203.286 19.2536C203.619 19.2536 203.938 19.3858 204.173 19.6211C204.408 19.8564 204.541 20.1755 204.541 20.5082V58.4986C204.541 58.8314 204.408 59.1505 204.173 59.3858C203.938 59.621 203.619 59.7532 203.286 59.7532C202.953 59.7532 202.634 59.621 202.399 59.3858C202.164 59.1505 202.031 58.8314 202.031 58.4986Z" fill="white"/>
<path d="M177.44 52.5839C184.35 52.5839 189.952 46.9822 189.952 40.0721C189.952 33.162 184.35 27.5603 177.44 27.5603C170.53 27.5603 164.928 33.162 164.928 40.0721C164.928 46.9822 170.53 52.5839 177.44 52.5839Z" fill="#62C058"/>
<path d="M177.44 50.8779C183.408 50.8779 188.246 46.04 188.246 40.0722C188.246 34.1044 183.408 29.2666 177.44 29.2666C171.472 29.2666 166.635 34.1044 166.635 40.0722C166.635 46.04 171.472 50.8779 177.44 50.8779Z" stroke="white" stroke-width="3.41231"/>
<path d="M4.25333 93H2.90933V86.602H0.711328V85.636C1.32733 85.6267 1.84533 85.468 2.26533 85.16C2.68533 84.8427 2.94666 84.432 3.04933 83.928H4.25333V93ZM6.64088 92.79C6.45421 92.6033 6.36088 92.3747 6.36088 92.104C6.36088 91.8333 6.45421 91.6047 6.64088 91.418C6.82754 91.222 7.05621 91.124 7.32688 91.124C7.59754 91.124 7.82621 91.222 8.01288 91.418C8.20888 91.6047 8.30688 91.8333 8.30688 92.104C8.30688 92.3747 8.20888 92.6033 8.01288 92.79C7.82621 92.9767 7.59754 93.07 7.32688 93.07C7.05621 93.07 6.82754 92.9767 6.64088 92.79ZM6.62688 87.862C6.44021 87.6753 6.34688 87.4467 6.34688 87.176C6.34688 86.9053 6.44021 86.6767 6.62688 86.49C6.81354 86.294 7.04221 86.196 7.31288 86.196C7.58354 86.196 7.81221 86.294 7.99888 86.49C8.19488 86.6767 8.29288 86.9053 8.29288 87.176C8.29288 87.4467 8.19488 87.6753 7.99888 87.862C7.81221 88.0487 7.58354 88.142 7.31288 88.142C7.04221 88.142 6.81354 88.0487 6.62688 87.862ZM12.5074 88.786L11.8354 87.652L14.5094 85.188H10.1694V83.928H16.3294V85.16L13.7394 87.554C14.4768 87.554 15.1254 87.7967 15.6854 88.282C16.2548 88.7673 16.5394 89.444 16.5394 90.312C16.5394 91.1147 16.2454 91.8007 15.6574 92.37C15.0694 92.9393 14.2668 93.224 13.2494 93.224C12.2508 93.224 11.4481 92.9487 10.8414 92.398C10.2441 91.838 9.92209 91.1613 9.87542 90.368L11.2194 90.06C11.2474 90.648 11.4481 91.124 11.8214 91.488C12.2041 91.8427 12.6754 92.02 13.2354 92.02C13.8328 92.02 14.2994 91.8613 14.6354 91.544C14.9808 91.2173 15.1534 90.816 15.1534 90.34C15.1534 89.7893 14.9714 89.3693 14.6074 89.08C14.2434 88.7907 13.8094 88.646 13.3054 88.646C13.0348 88.646 12.7688 88.6927 12.5074 88.786ZM23.9244 83.928V85.244C23.6911 85.4307 23.4624 85.6313 23.2384 85.846C23.0144 86.0607 22.7158 86.406 22.3424 86.882C21.9784 87.358 21.6564 87.862 21.3764 88.394C21.0964 88.926 20.8304 89.6027 20.5784 90.424C20.3358 91.236 20.1724 92.0947 20.0884 93H18.6744C18.7304 92.2813 18.8424 91.586 19.0104 90.914C19.1784 90.2327 19.3744 89.64 19.5984 89.136C19.8224 88.632 20.0604 88.1607 20.3124 87.722C20.5738 87.274 20.8258 86.9007 21.0684 86.602C21.3204 86.294 21.5444 86.0327 21.7404 85.818C21.9458 85.6033 22.1091 85.4447 22.2304 85.342L22.4124 85.188H17.3024V83.928H23.9244Z" fill="white"/>
<path d="M363.15 88.786L362.478 87.652L365.152 85.188H360.812V83.928H366.972V85.16L364.382 87.554C365.119 87.554 365.768 87.7967 366.328 88.282C366.897 88.7673 367.182 89.444 367.182 90.312C367.182 91.1147 366.888 91.8007 366.3 92.37C365.712 92.9393 364.909 93.224 363.892 93.224C362.893 93.224 362.091 92.9487 361.484 92.398C360.887 91.838 360.565 91.1613 360.518 90.368L361.862 90.06C361.89 90.648 362.091 91.124 362.464 91.488C362.847 91.8427 363.318 92.02 363.878 92.02C364.475 92.02 364.942 91.8613 365.278 91.544C365.623 91.2173 365.796 90.816 365.796 90.34C365.796 89.7893 365.614 89.3693 365.25 89.08C364.886 88.7907 364.452 88.646 363.948 88.646C363.677 88.646 363.411 88.6927 363.15 88.786ZM369.082 92.79C368.896 92.6033 368.802 92.3747 368.802 92.104C368.802 91.8333 368.896 91.6047 369.082 91.418C369.269 91.222 369.498 91.124 369.768 91.124C370.039 91.124 370.268 91.222 370.454 91.418C370.65 91.6047 370.748 91.8333 370.748 92.104C370.748 92.3747 370.65 92.6033 370.454 92.79C370.268 92.9767 370.039 93.07 369.768 93.07C369.498 93.07 369.269 92.9767 369.082 92.79ZM369.068 87.862C368.882 87.6753 368.788 87.4467 368.788 87.176C368.788 86.9053 368.882 86.6767 369.068 86.49C369.255 86.294 369.484 86.196 369.754 86.196C370.025 86.196 370.254 86.294 370.44 86.49C370.636 86.6767 370.734 86.9053 370.734 87.176C370.734 87.4467 370.636 87.6753 370.44 87.862C370.254 88.0487 370.025 88.142 369.754 88.142C369.484 88.142 369.255 88.0487 369.068 87.862ZM374.655 85.524C374.123 86.084 373.857 87.064 373.857 88.464C373.857 89.864 374.123 90.844 374.655 91.404C375.028 91.796 375.509 91.992 376.097 91.992C376.685 91.992 377.165 91.796 377.539 91.404C378.071 90.844 378.337 89.864 378.337 88.464C378.337 87.064 378.071 86.084 377.539 85.524C377.165 85.132 376.685 84.936 376.097 84.936C375.509 84.936 375.028 85.132 374.655 85.524ZM373.311 91.754C372.769 90.9513 372.499 89.8547 372.499 88.464C372.499 87.0733 372.769 85.9767 373.311 85.174C373.955 84.2033 374.883 83.718 376.097 83.718C377.31 83.718 378.239 84.2033 378.883 85.174C379.424 85.9767 379.695 87.0733 379.695 88.464C379.695 89.8547 379.424 90.9513 378.883 91.754C378.239 92.7247 377.31 93.21 376.097 93.21C374.883 93.21 373.955 92.7247 373.311 91.754ZM381.196 92.678L381.644 91.544C382.12 91.8333 382.671 91.978 383.296 91.978C384.332 91.978 385.107 91.684 385.62 91.096C386.143 90.4987 386.418 89.7193 386.446 88.758C386.269 89.0847 385.975 89.36 385.564 89.584C385.163 89.808 384.673 89.92 384.094 89.92C383.254 89.92 382.522 89.6493 381.896 89.108C381.271 88.5573 380.958 87.806 380.958 86.854C380.958 85.9393 381.285 85.188 381.938 84.6C382.601 84.012 383.39 83.718 384.304 83.718C385.275 83.718 386.106 84.0727 386.796 84.782C387.487 85.4913 387.832 86.5273 387.832 87.89C387.832 89.5887 387.45 90.9 386.684 91.824C385.928 92.748 384.799 93.21 383.296 93.21C382.942 93.21 382.559 93.1587 382.148 93.056C381.738 92.9533 381.42 92.8273 381.196 92.678ZM386.264 86.826C386.264 86.266 386.068 85.8087 385.676 85.454C385.284 85.0993 384.827 84.922 384.304 84.922C383.772 84.922 383.31 85.0993 382.918 85.454C382.536 85.7993 382.344 86.2567 382.344 86.826C382.344 87.414 382.536 87.8807 382.918 88.226C383.301 88.5713 383.763 88.744 384.304 88.744C384.836 88.744 385.294 88.5713 385.676 88.226C386.068 87.8713 386.264 87.4047 386.264 86.826Z" fill="white"/>
</svg>
