<svg width="42" height="41" viewBox="0 0 42 41" fill="none" xmlns="http://www.w3.org/2000/svg">
<circle cx="20.5" cy="20.5" r="20.5" transform="matrix(-1 0 0 1 41.5 0)" fill="white"/>
<mask id="mask0_0_1" style="mask-type:alpha" maskUnits="userSpaceOnUse" x="0" y="0" width="42" height="41">
<circle cx="20.5" cy="20.5" r="20.5" transform="matrix(-1 0 0 1 41.5 0)" fill="#E3ECF7"/>
</mask>
<g mask="url(#mask0_0_1)">
<g opacity="0.4">
<path d="M10.6147 15.974C10.7381 13.308 11.9155 10.8003 13.8877 9.00225C15.86 7.20424 18.4657 6.26327 21.1317 6.38629C23.7918 6.55148 26.2778 7.76528 28.0441 9.7613C29.8103 11.7573 30.7125 14.3725 30.5527 17.033L31.9391 16.4341C32.2206 9.90358 27.4596 4.36212 21.2425 4.02576C14.9804 3.68741 9.6156 8.75678 9.25928 15.3482C9.25928 15.3862 9.25928 15.4241 9.25928 15.463L10.6167 16.0429C10.6137 16.0199 10.6137 15.997 10.6147 15.974Z" fill="#BBC7C4"/>
<path d="M30.553 17.1966C30.5195 17.1968 30.4867 17.1867 30.4592 17.1677C30.4364 17.1518 30.418 17.1304 30.4057 17.1054C30.3935 17.0804 30.3879 17.0527 30.3893 17.025C30.5429 14.4085 29.6542 11.8378 27.9175 9.87479C26.1809 7.91182 23.7376 6.7164 21.1219 6.54992C19.8307 6.4784 18.5382 6.66663 17.321 7.10346C16.1038 7.54029 14.9865 8.21684 14.0354 9.09308C12.0842 10.8691 10.9145 13.3448 10.7816 15.98V16.0478C10.7804 16.0742 10.7728 16.0999 10.7594 16.1227C10.746 16.1455 10.7273 16.1647 10.7048 16.1786C10.6825 16.1926 10.6571 16.201 10.6309 16.2031C10.6046 16.2052 10.5783 16.2009 10.5541 16.1906L9.19664 15.6107C9.16592 15.5977 9.13991 15.5756 9.12208 15.5474C9.10424 15.5192 9.09541 15.4863 9.09683 15.453V15.3362C9.24795 12.1573 10.6194 9.15921 12.9255 6.96612C14.0268 5.90557 15.3341 5.08256 16.7665 4.54808C18.199 4.01361 19.7259 3.77907 21.2527 3.85903C27.5208 4.19838 32.3885 9.84064 32.104 16.4351C32.1026 16.4659 32.0925 16.4957 32.0748 16.521C32.0572 16.5462 32.0327 16.5659 32.0042 16.5778L30.6179 17.1767C30.5979 17.1879 30.5758 17.1947 30.553 17.1966V17.1966ZM20.5879 6.20856C20.7716 6.20856 20.9556 6.21356 21.1399 6.22354C23.7959 6.39255 26.2818 7.58925 28.0705 9.55996C29.8591 11.5307 30.8101 14.1205 30.7217 16.7804L31.7746 16.3253C31.9972 9.95045 27.2832 4.5178 21.2277 4.18942C19.7454 4.11192 18.2629 4.33972 16.8722 4.85874C15.4815 5.37776 14.2123 6.17692 13.1431 7.20666C10.8986 9.34235 9.56401 12.2614 9.41723 15.3561L10.4572 15.8003C10.6327 13.1376 11.8333 10.6465 13.8069 8.85053C15.6555 7.14937 18.0767 6.20621 20.5889 6.20856H20.5879Z" fill="#FFE800"/>
</g>
<path d="M10.6151 16.7084C10.7385 14.0424 11.9158 11.5346 13.8881 9.7366C15.8604 7.93859 18.4661 6.99761 21.1321 7.12064C23.7922 7.28583 26.2782 8.49962 28.0444 10.4956C29.8107 12.4917 30.7129 15.1069 30.5531 17.7674L31.9395 17.1685C32.2209 10.638 27.46 5.0965 21.2428 4.76014C14.9808 4.42179 9.61597 9.49013 9.25964 16.0826C9.25964 16.1205 9.25964 16.1584 9.25964 16.1973L10.6171 16.7773C10.6141 16.7543 10.6141 16.7324 10.6151 16.7084Z" fill="#FFE800"/>
<path d="M30.5529 17.9311C30.5194 17.9313 30.4867 17.9212 30.4591 17.9022C30.4362 17.8863 30.4178 17.8649 30.4055 17.8399C30.3933 17.8149 30.3877 17.7872 30.3892 17.7594C30.5428 15.143 29.6541 12.5722 27.9175 10.6093C26.1808 8.64629 23.7375 7.45086 21.1219 7.28439C18.5003 7.16755 15.9393 8.09487 14.0002 9.86309C12.0612 11.6313 10.9023 14.0962 10.7776 16.7174V16.7853C10.7764 16.8116 10.7689 16.8372 10.7556 16.86C10.7424 16.8827 10.7239 16.9019 10.7017 16.916C10.6794 16.9299 10.654 16.9383 10.6278 16.9403C10.6016 16.9424 10.5752 16.9382 10.551 16.928L9.19359 16.3481C9.16287 16.3351 9.13683 16.3131 9.119 16.2849C9.10116 16.2567 9.09236 16.2238 9.09377 16.1904V16.0737C9.2449 12.8948 10.6163 9.89669 12.9225 7.7036C14.0243 6.64384 15.3317 5.82133 16.764 5.28691C18.1963 4.75249 19.7229 4.51751 21.2496 4.59651C27.5177 4.93587 32.3854 10.5781 32.101 17.1726C32.0996 17.2034 32.0895 17.2331 32.0718 17.2584C32.0541 17.2837 32.0296 17.3034 32.0011 17.3153L30.6148 17.9141C30.5955 17.9238 30.5745 17.9296 30.5529 17.9311V17.9311ZM20.5949 6.94303C20.7759 6.94303 20.9575 6.94803 21.1398 6.95801C23.7958 7.12726 26.2815 8.32405 28.0701 10.2947C29.8587 12.2654 30.8097 14.855 30.7216 17.5149L31.7746 17.0598C31.9972 10.6849 27.2832 5.25127 21.2277 4.92389C19.7453 4.84676 18.2628 5.07485 16.8721 5.59403C15.4815 6.11321 14.2123 6.91241 13.1431 7.94213C10.8987 10.0776 9.56419 12.9962 9.41716 16.0906L10.4572 16.5358C10.6225 13.9518 11.7598 11.5261 13.6404 9.7464C15.5211 7.96666 18.0057 6.96476 20.5949 6.94205V6.94303Z" fill="#FFE800"/>
<g opacity="0.2">
<path d="M10.5814 20.5074C10.6113 20.8063 10.5821 21.1081 10.4953 21.3957C10.4086 21.6832 10.2661 21.9509 10.0759 22.1834C9.88567 22.4158 9.65155 22.6085 9.38686 22.7505C9.12218 22.8924 8.83213 22.9809 8.53327 23.0107V23.0107C8.23441 23.0407 7.93259 23.0114 7.64503 22.9246C7.35748 22.8379 7.08984 22.6954 6.85738 22.5052C6.62492 22.315 6.43221 22.0809 6.29025 21.8162C6.14829 21.5515 6.05987 21.2615 6.03004 20.9626L5.74259 18.0851C5.71265 17.7862 5.74187 17.4844 5.82861 17.1968C5.91534 16.9093 6.05787 16.6416 6.24807 16.4092C6.43826 16.1767 6.67238 15.984 6.93706 15.8421C7.20175 15.7001 7.49183 15.6117 7.79069 15.5818V15.5818C8.08954 15.5519 8.39134 15.5812 8.67889 15.6679C8.96645 15.7546 9.23412 15.8971 9.46658 16.0873C9.69903 16.2775 9.89175 16.5116 10.0337 16.7763C10.1757 17.041 10.2641 17.3311 10.2939 17.6299L10.5814 20.5074Z" fill="#231F20"/>
</g>
<path d="M10.9612 19.8434C10.9912 20.1423 10.962 20.4441 10.8752 20.7317C10.7885 21.0193 10.646 21.2869 10.4558 21.5193C10.2656 21.7518 10.0315 21.9445 9.76677 22.0865C9.50209 22.2284 9.21204 22.3168 8.91317 22.3467V22.3467C8.61432 22.3766 8.31249 22.3474 8.02494 22.2607C7.73739 22.1739 7.46971 22.0314 7.23726 21.8412C7.0048 21.651 6.81209 21.4168 6.67013 21.1522C6.52817 20.8875 6.43975 20.5974 6.40991 20.2986L6.12247 17.421C6.09253 17.1222 6.12178 16.8204 6.20852 16.5328C6.29525 16.2453 6.43778 15.9776 6.62797 15.7452C6.81817 15.5127 7.05229 15.32 7.31697 15.1781C7.58165 15.0361 7.87171 14.9477 8.17057 14.9178V14.9178C8.46942 14.8879 8.77125 14.9171 9.0588 15.0038C9.34635 15.0906 9.614 15.2331 9.84646 15.4233C10.0789 15.6135 10.2716 15.8476 10.4136 16.1123C10.5555 16.377 10.644 16.6671 10.6738 16.9659L10.9612 19.8434Z" fill="#EB008B"/>
<path d="M8.6846 22.5703C8.06516 22.5689 7.46822 22.338 7.00917 21.9221C6.55012 21.5062 6.26158 20.9349 6.19934 20.3186L5.91189 17.441C5.87838 17.1144 5.90997 16.7843 6.00489 16.4699C6.0998 16.1555 6.25614 15.8631 6.46483 15.6095C6.672 15.3547 6.92771 15.1436 7.21709 14.9884C7.50647 14.8332 7.82376 14.7369 8.15061 14.7052C8.4773 14.6717 8.8074 14.7033 9.12179 14.7982C9.43617 14.8931 9.72862 15.0495 9.98215 15.2582C10.2369 15.4656 10.4479 15.7215 10.6032 16.011C10.7584 16.3006 10.8546 16.618 10.8864 16.945L11.1739 19.8225C11.2391 20.4821 11.04 21.1407 10.6203 21.6538C10.2006 22.1668 9.5946 22.4925 8.93513 22.5593C8.85062 22.5666 8.76711 22.5703 8.6846 22.5703ZM8.40215 15.1195C8.33228 15.1195 8.26242 15.1195 8.19155 15.1295C7.92066 15.1559 7.65766 15.2357 7.41782 15.3643C7.17797 15.493 6.96603 15.6679 6.79422 15.879C6.62123 16.0894 6.49165 16.3319 6.41302 16.5927C6.33438 16.8534 6.30823 17.1272 6.33607 17.3981L6.62352 20.2756C6.65014 20.5466 6.73018 20.8096 6.859 21.0494C6.98783 21.2892 7.16291 21.5012 7.37411 21.673C7.58455 21.8458 7.82714 21.9753 8.08787 22.0539C8.34859 22.1325 8.6223 22.1588 8.89322 22.1311C9.44017 22.0756 9.9428 21.8056 10.291 21.3801C10.6392 20.9547 10.8045 20.4085 10.7507 19.8614L10.4632 16.9839C10.4366 16.713 10.3566 16.45 10.2277 16.2102C10.0989 15.9703 9.92384 15.7583 9.71264 15.5865C9.34378 15.2821 8.88044 15.1155 8.40215 15.1155V15.1195Z" fill="#EB008B"/>
<path d="M9.86529 19.5531C9.87795 19.7173 9.85805 19.8824 9.80677 20.0389C9.7555 20.1954 9.67385 20.3403 9.56648 20.4652C9.4591 20.5901 9.32813 20.6926 9.18107 20.7668C9.03401 20.8409 8.87373 20.8854 8.70947 20.8975C8.5454 20.9097 8.38055 20.8895 8.22431 20.838C8.06806 20.7865 7.92353 20.7046 7.79894 20.5972C7.67435 20.4897 7.57215 20.3588 7.49821 20.2119C7.42427 20.0649 7.38003 19.9048 7.36803 19.7407L7.21832 17.7136C7.20607 17.5495 7.22628 17.3846 7.2778 17.2284C7.32933 17.0722 7.41118 16.9276 7.51862 16.803C7.62606 16.6784 7.75699 16.5762 7.90396 16.5023C8.05093 16.4284 8.21103 16.3841 8.37511 16.3721C8.70639 16.3477 9.03383 16.4558 9.2854 16.6727C9.53696 16.8896 9.69204 17.1976 9.71655 17.5289L9.86529 19.5531Z" fill="#EE62A3"/>
<path d="M21.2418 9.22665C20.7534 9.26507 20.2682 9.33676 19.7896 9.44124C12.5344 11.0891 8.56094 20.8196 10.9145 31.1838C13.268 41.5481 21.0571 48.6056 28.3123 46.9538C29.0493 46.7862 29.7639 46.5322 30.4413 46.1972L31.3076 45.6423C32.8547 44.8095 34.0899 43.4973 34.8277 41.9028C35.5656 40.3083 35.7663 38.5175 35.3998 36.7992C35.1657 35.7645 34.7217 34.7888 34.0953 33.9326C32.8267 32.1602 31.8496 30.1965 31.2008 28.1157C30.5003 26.0354 30.1643 23.8497 30.2077 21.655C30.3215 18.7335 31.2178 16.0816 29.7087 13.3708C29.0077 12.1537 28.0068 11.1365 26.8012 10.4159C25.5957 9.69537 24.2257 9.29558 22.8218 9.25461C22.8218 9.25461 21.5123 9.20369 21.2418 9.22665Z" fill="#638C1C"/>
<path d="M20.2566 8.66888C19.7682 8.70733 19.283 8.77905 18.8043 8.8835C11.5491 10.5314 7.57571 20.2618 9.92923 30.6261C12.2827 40.9903 20.0719 48.0489 27.3271 46.3961C28.064 46.2287 28.7785 45.9751 29.4561 45.6405L30.3224 45.0855C31.8694 44.2529 33.1045 42.941 33.8424 41.3466C34.5802 39.7523 34.7811 37.9616 34.4146 36.2434C34.1806 35.2088 33.737 34.2332 33.1111 33.3769C31.8425 31.6045 30.8653 29.6408 30.2166 27.5599C29.5162 25.4796 29.1803 23.2939 29.2235 21.0992C29.3373 18.1778 30.2346 15.5258 28.7245 12.815C28.0237 11.5977 27.0228 10.5802 25.8172 9.85946C24.6116 9.13873 23.2415 8.73883 21.8376 8.69785C21.8376 8.69785 20.5271 8.64493 20.2566 8.66888Z" fill="#7CC042"/>
<g opacity="0.1">
<path d="M33.2137 33.2488C34.0581 32.65 34.2757 35.0454 34.5182 36.1154C34.8845 37.8336 34.6836 39.6242 33.9458 41.2185C33.2079 42.8128 31.9729 44.1248 30.426 44.9576L29.5597 45.5125C28.8822 45.8471 28.1676 46.1007 27.4308 46.2681C21.6418 47.5826 15.5164 43.3546 12.079 36.331C12.082 36.332 23.1269 40.4132 33.2137 33.2488Z" fill="#C0DF88"/>
</g>
<g opacity="0.1">
<path d="M34.3755 36.0606C34.1506 35.0383 33.7218 34.0718 33.1149 33.219C31.8864 31.456 30.9432 29.5105 30.3202 27.454C29.6424 25.3889 29.3178 23.2243 29.36 21.0512C29.4698 18.1567 30.3372 15.5277 28.8789 12.8408C28.2163 11.6442 27.2551 10.6395 26.089 9.92452C24.923 9.20951 23.5916 8.80852 22.2246 8.7606C22.2246 8.7606 20.949 8.7057 20.6865 8.72965C20.5867 8.73864 20.4939 8.75261 20.3971 8.76359C21.7572 8.81762 23.0803 9.22118 24.2391 9.93533C25.3978 10.6495 26.353 11.6501 27.0125 12.8408C28.4697 15.5277 27.6034 18.1557 27.4936 21.0512C27.4513 23.2243 27.776 25.3889 28.4537 27.454C29.0771 29.5104 30.0201 31.4559 31.2484 33.219C31.8556 34.0717 32.2844 35.0382 32.509 36.0606C32.8693 37.7523 32.6798 39.5148 31.9681 41.0912C31.2564 42.6675 30.0597 43.9754 28.5526 44.8239L27.7152 45.3739C27.0616 45.7052 26.3706 45.9569 25.6571 46.1234C25.284 46.2084 24.906 46.2698 24.5252 46.3071C25.5266 46.4111 26.5383 46.349 27.5195 46.1234C28.2334 45.9569 28.9247 45.7053 29.5786 45.3739L30.416 44.8239C31.9237 43.9758 33.121 42.6682 33.8332 41.0918C34.5455 39.5153 34.7355 37.7526 34.3755 36.0606Z" fill="#5D7261"/>
</g>
<g opacity="0.1">
<path d="M21.5121 38.4831C20.5314 38.4937 19.5775 38.1636 18.813 37.5493C18.0485 36.935 17.5209 36.0744 17.3201 35.1145C17.3115 35.0712 17.3116 35.0267 17.3203 34.9834C17.3289 34.9402 17.346 34.8991 17.3706 34.8625C17.3951 34.8259 17.4267 34.7945 17.4634 34.77C17.5001 34.7456 17.5413 34.7287 17.5846 34.7202C17.6719 34.7032 17.7624 34.7214 17.8363 34.771C17.9102 34.8206 17.9615 34.8974 17.9789 34.9847C18.1797 35.9141 18.7407 36.726 19.539 37.2425C20.3372 37.759 21.3077 37.9381 22.2377 37.7405C23.1728 37.5703 24.0024 37.0367 24.5449 36.2562C25.0874 35.4758 25.2986 34.5122 25.1322 33.5764C25.1152 33.4892 25.1335 33.3988 25.1831 33.325C25.2327 33.2513 25.3095 33.2003 25.3967 33.1832C25.44 33.1745 25.4845 33.1744 25.5278 33.183C25.5711 33.1916 25.6123 33.2087 25.6489 33.2333C25.6856 33.2579 25.717 33.2895 25.7414 33.3263C25.7658 33.363 25.7826 33.4043 25.791 33.4477C25.9919 34.5585 25.7441 35.7036 25.1019 36.632C24.4598 37.5604 23.4757 38.1963 22.3655 38.4002C22.0844 38.4552 21.7986 38.483 21.5121 38.4831Z" fill="#231F20"/>
</g>
<g opacity="0.1">
<path d="M15.0743 25.4868C14.9665 25.4868 14.8587 25.4868 14.7499 25.4748C13.6151 25.3989 12.5551 24.882 11.7965 24.0346C11.424 23.6227 11.1388 23.1397 10.958 22.6146C10.7772 22.0895 10.7046 21.5333 10.7445 20.9794C10.7509 20.8907 10.7922 20.8083 10.8594 20.7501C10.9266 20.6918 11.0142 20.6627 11.1029 20.669C11.1915 20.6754 11.274 20.7167 11.3322 20.7839C11.3904 20.8511 11.4196 20.9386 11.4132 21.0273C11.3799 21.4916 11.441 21.9578 11.5928 22.3978C11.7446 22.8378 11.984 23.2425 12.2966 23.5874C12.9391 24.3048 13.8369 24.7422 14.7978 24.8061C15.7581 24.8804 16.7092 24.5759 17.4478 23.9577C17.8063 23.661 18.101 23.2946 18.314 22.8809C18.5271 22.4671 18.6541 22.0145 18.6874 21.5503C18.6938 21.4616 18.7351 21.3791 18.8023 21.3209C18.8695 21.2627 18.957 21.2336 19.0457 21.2399C19.1344 21.2463 19.2169 21.2876 19.2751 21.3548C19.3333 21.422 19.3624 21.5096 19.3561 21.5982C19.3167 22.1521 19.1654 22.6923 18.9116 23.1861C18.6577 23.68 18.3064 24.1173 17.8789 24.4717C17.0932 25.1306 16.0997 25.4902 15.0743 25.4868Z" fill="#231F20"/>
</g>
<path d="M34.6325 20.6801C34.5321 21.4093 34.1462 22.0689 33.5596 22.5136C32.973 22.9584 32.2337 23.1519 31.5044 23.0516V23.0516C30.7752 22.9513 30.1156 22.5653 29.6709 21.9787C29.2261 21.3921 29.0326 20.6528 29.133 19.9235L29.611 16.4461C29.7114 15.7169 30.0973 15.0573 30.6839 14.6126C31.2705 14.1678 32.0098 13.9744 32.7391 14.0747V14.0747C33.4684 14.175 34.1279 14.5609 34.5726 15.1475C35.0174 15.7341 35.2109 16.4734 35.1106 17.2027L34.6325 20.6801Z" fill="#EB008B"/>
<path d="M31.8853 23.338C31.7447 23.338 31.6043 23.3283 31.4651 23.3091C31.0701 23.2558 30.6896 23.1247 30.3456 22.9234C30.0016 22.7221 29.7009 22.4546 29.4609 22.1363C29.2192 21.8193 29.0428 21.4575 28.9419 21.0719C28.841 20.6862 28.8176 20.2844 28.873 19.8896L29.3511 16.4122C29.4609 15.6147 29.8829 14.8933 30.5242 14.4067C31.1656 13.9201 31.974 13.7081 32.7716 13.8172C33.1666 13.8705 33.5471 14.0016 33.8911 14.2029C34.2351 14.4042 34.5358 14.6717 34.7758 14.9899C35.0175 15.307 35.1939 15.6687 35.2948 16.0544C35.3957 16.44 35.4191 16.8419 35.3637 17.2366L34.8856 20.714C34.8324 21.1092 34.7014 21.4899 34.5001 21.8341C34.2988 22.1783 34.0312 22.4791 33.7128 22.7192C33.1879 23.1202 32.5458 23.3376 31.8853 23.338V23.338ZM32.3554 14.3082C31.7472 14.3087 31.1597 14.529 30.7012 14.9285C30.2426 15.328 29.9439 15.8797 29.8602 16.4821L29.3821 19.9595C29.3361 20.2869 29.3555 20.6201 29.4391 20.94C29.5227 21.2598 29.6688 21.5599 29.8691 21.8229C30.0682 22.087 30.3177 22.309 30.6031 22.476C30.8885 22.643 31.2042 22.7518 31.532 22.7961C31.8594 22.8423 32.1928 22.8229 32.5127 22.7391C32.8326 22.6553 33.1327 22.5088 33.3954 22.308C33.6596 22.1091 33.8815 21.8596 34.0484 21.5741C34.2153 21.2887 34.3238 20.9729 34.3676 20.6451L34.8467 17.1678C34.9368 16.5066 34.7609 15.8365 34.3577 15.3048C33.9545 14.773 33.3568 14.4228 32.6958 14.3312C32.5833 14.3159 32.4699 14.3082 32.3564 14.3082H32.3554Z" fill="#EB008B"/>
<path d="M33.3584 20.7396C33.318 20.9351 33.2394 21.1208 33.1273 21.2859C33.0151 21.4511 32.8715 21.5925 32.7047 21.7022C32.5378 21.8118 32.351 21.8875 32.1549 21.9249C31.9589 21.9624 31.7573 21.9609 31.5618 21.9204V21.9204C31.3663 21.8801 31.1806 21.8016 31.0153 21.6895C30.8501 21.5774 30.7087 21.4338 30.599 21.2669C30.4893 21.1 30.4136 20.9132 30.3762 20.717C30.3388 20.5209 30.3405 20.3193 30.3811 20.1238L30.8801 17.7064C30.9204 17.5109 30.9989 17.3252 31.111 17.16C31.2232 16.9948 31.3668 16.8533 31.5336 16.7436C31.7005 16.6339 31.8873 16.5583 32.0835 16.5209C32.2796 16.4835 32.4812 16.4851 32.6767 16.5257V16.5257C32.8724 16.5659 33.0581 16.6442 33.2235 16.7563C33.3888 16.8684 33.5304 17.012 33.6402 17.1789C33.7499 17.3458 33.8257 17.5326 33.8632 17.7288C33.9006 17.925 33.899 18.1267 33.8584 18.3223L33.3584 20.7396Z" fill="#EE62A3"/>
<g opacity="0.1">
<path d="M11.4093 30.6279C9.05574 20.2676 13.0292 10.5331 20.2833 8.88527C20.6638 8.80271 21.0487 8.74239 21.4362 8.70462H21.3992C21.3992 8.70462 20.0798 8.64971 19.8093 8.67266C19.3209 8.71125 18.8357 8.78294 18.357 8.88725C11.1018 10.5351 7.12841 20.2656 9.48293 30.6299C11.7107 40.4342 18.8062 47.2802 25.71 46.5895C19.4519 45.9776 13.4264 39.5199 11.4093 30.6279Z" fill="#C0DF88"/>
</g>
<path d="M21.1129 38.2906C20.0942 38.3004 19.1035 37.9566 18.3098 37.3178C17.5161 36.6789 16.9685 35.7847 16.7602 34.7874C16.7469 34.7223 16.7467 34.6552 16.7597 34.59C16.7726 34.5249 16.7985 34.463 16.8357 34.408C16.8728 34.3529 16.9206 34.3059 16.9762 34.2695C17.0318 34.2332 17.0941 34.2084 17.1595 34.1964C17.2245 34.1831 17.2916 34.183 17.3568 34.196C17.4219 34.2089 17.4838 34.2347 17.5388 34.2719C17.5939 34.309 17.6409 34.3569 17.6772 34.4125C17.7136 34.4681 17.7384 34.5304 17.7504 34.5957C17.9422 35.4817 18.4777 36.2553 19.2392 36.7471C20.0007 37.2388 20.9262 37.4084 21.8126 37.2187C22.7045 37.0577 23.4963 36.5497 24.0143 35.806C24.5324 35.0624 24.7345 34.1437 24.5764 33.2513C24.5631 33.1862 24.5629 33.1191 24.5758 33.054C24.5888 32.9888 24.6146 32.9269 24.6518 32.8719C24.689 32.8168 24.7368 32.7698 24.7924 32.7335C24.848 32.6971 24.9103 32.6723 24.9756 32.6604C25.0406 32.6478 25.1075 32.6481 25.1724 32.6613C25.2372 32.6746 25.2989 32.7005 25.3538 32.7376C25.4086 32.7746 25.4557 32.8222 25.4922 32.8774C25.5286 32.9327 25.5539 32.9946 25.5665 33.0596C25.7759 34.214 25.519 35.4042 24.8522 36.3695C24.1854 37.3347 23.163 37.9962 22.0093 38.2088C21.7139 38.2653 21.4137 38.2926 21.1129 38.2906V38.2906Z" fill="#231F20"/>
<path d="M15.2589 24.8728C17.5124 24.8728 19.3392 23.046 19.3392 20.7925C19.3392 18.5391 17.5124 16.7123 15.2589 16.7123C13.0055 16.7123 11.1787 18.5391 11.1787 20.7925C11.1787 23.046 13.0055 24.8728 15.2589 24.8728Z" fill="white"/>
<path d="M15.0443 24.3559C16.8925 24.3559 18.3909 22.8575 18.3909 21.0093C18.3909 19.161 16.8925 17.6626 15.0443 17.6626C13.196 17.6626 11.6976 19.161 11.6976 21.0093C11.6976 22.8575 13.196 24.3559 15.0443 24.3559Z" fill="#F1F1F2"/>
<path d="M12.7385 16.6124C12.6432 16.6126 12.5508 16.5798 12.477 16.5196C12.392 16.4503 12.338 16.3501 12.3268 16.241C12.3155 16.1319 12.348 16.0229 12.4171 15.9377C12.6935 15.5961 13.0349 15.3128 13.4216 15.1041C13.8083 14.8955 14.2326 14.7656 14.6698 14.722C15.448 14.6419 16.2296 14.8372 16.8786 15.2739C16.9696 15.3354 17.0325 15.4304 17.0535 15.5383C17.0745 15.6461 17.0518 15.7578 16.9904 15.8489C16.9289 15.9399 16.8339 16.0028 16.7261 16.0238C16.6183 16.0447 16.5065 16.0221 16.4155 15.9607C15.9272 15.6328 15.3397 15.4859 14.7546 15.5454C14.4253 15.5777 14.1057 15.6752 13.8144 15.8321C13.5231 15.9891 13.2659 16.2024 13.0579 16.4597C13.0192 16.5072 12.9705 16.5455 12.9153 16.5719C12.8601 16.5983 12.7997 16.6121 12.7385 16.6124Z" fill="#638C1C"/>
<path d="M25.3696 16.6332C25.3016 16.6334 25.2345 16.6167 25.1744 16.5846C25.1144 16.5526 25.0631 16.5062 25.0253 16.4496C24.6969 15.9611 24.2078 15.603 23.6429 15.4375C23.326 15.3436 22.9936 15.3135 22.6649 15.3492C22.3363 15.3848 22.018 15.4854 21.7286 15.6451C21.6322 15.6977 21.5189 15.7099 21.4135 15.6791C21.3082 15.6482 21.2194 15.5767 21.1667 15.4804C21.114 15.384 21.1018 15.2707 21.1327 15.1653C21.1636 15.06 21.235 14.9712 21.3313 14.9185C21.7163 14.7066 22.1395 14.5731 22.5763 14.5259C23.0132 14.4786 23.4551 14.5184 23.8765 14.643C24.627 14.8632 25.2767 15.3392 25.713 15.9884C25.7433 16.0336 25.7645 16.0843 25.7752 16.1376C25.786 16.1909 25.7862 16.2459 25.7757 16.2993C25.7652 16.3527 25.7443 16.4035 25.7142 16.4488C25.6841 16.4941 25.6454 16.533 25.6002 16.5634C25.5321 16.6092 25.4518 16.6335 25.3696 16.6332V16.6332Z" fill="#638C1C"/>
<path d="M25.7272 10.4206C26.0094 9.60279 25.5409 8.69929 24.6809 8.4026C23.8208 8.10591 22.8949 8.52839 22.6128 9.34623C22.3306 10.1641 22.7991 11.0676 23.6592 11.3643C24.5192 11.6609 25.4451 11.2385 25.7272 10.4206Z" fill="#EC3A94"/>
<path d="M20.4398 5.28757L24.2446 9.66823L18.5485 10.7731L20.4398 5.28757Z" fill="#EC3A94"/>
<path d="M18.5475 11.1744C18.4906 11.1741 18.4345 11.1616 18.3829 11.1378C18.3313 11.1141 18.2853 11.0796 18.248 11.0366C18.2017 10.9837 18.1702 10.9194 18.1567 10.8504C18.1432 10.7813 18.1482 10.7099 18.1712 10.6434L20.0626 5.15384C20.085 5.08752 20.1245 5.02826 20.1771 4.98202C20.2296 4.93577 20.2934 4.90414 20.362 4.89033C20.4312 4.87672 20.5027 4.88165 20.5693 4.90462C20.6359 4.92758 20.6952 4.96777 20.7413 5.0211L24.5461 9.40176C24.5924 9.45472 24.6239 9.51896 24.6374 9.58802C24.6509 9.65708 24.6459 9.72849 24.6229 9.79499C24.6005 9.86131 24.561 9.92057 24.5085 9.96682C24.4559 10.0131 24.3921 10.0447 24.3235 10.0585L18.6273 11.1634C18.6012 11.1697 18.5744 11.1734 18.5475 11.1744V11.1744ZM20.5916 6.07509L19.1533 10.2471L23.4861 9.40673L20.5916 6.07509Z" fill="#EC3A94"/>
<path d="M28.0496 14.0476L24.2449 9.6669L29.941 8.56201L28.0496 14.0476Z" fill="#EC3A94"/>
<path d="M28.0534 14.4478C27.9966 14.4475 27.9404 14.4351 27.8888 14.4113C27.8372 14.3876 27.7912 14.353 27.754 14.3101L23.9492 9.92943C23.9029 9.87647 23.8714 9.8122 23.8579 9.74314C23.8444 9.67408 23.8494 9.60267 23.8724 9.53617C23.8949 9.47003 23.9345 9.41099 23.987 9.36492C24.0396 9.31886 24.1033 9.28739 24.1718 9.27367L29.8679 8.16877C29.9371 8.15516 30.0086 8.1601 30.0752 8.18306C30.1418 8.20602 30.2012 8.24621 30.2472 8.29954C30.2937 8.3526 30.3253 8.41703 30.3388 8.48629C30.3523 8.55554 30.3472 8.62713 30.3241 8.69378L28.4327 14.1833C28.4101 14.2495 28.3706 14.3085 28.318 14.3546C28.2655 14.4006 28.2018 14.4321 28.1332 14.4458C28.1068 14.4492 28.08 14.4498 28.0534 14.4478V14.4478ZM25.0062 9.92745L27.9007 13.2591L29.3389 9.08704L25.0062 9.92745Z" fill="#EC3A94"/>
<g opacity="0.5">
<path d="M12.5134 28.6118C13.2465 28.6118 13.8409 28.0175 13.8409 27.2844C13.8409 26.5512 13.2465 25.9569 12.5134 25.9569C11.7802 25.9569 11.1859 26.5512 11.1859 27.2844C11.1859 28.0175 11.7802 28.6118 12.5134 28.6118Z" fill="#EE60A2"/>
</g>
<g opacity="0.5">
<path d="M26.7939 28.6118C27.527 28.6118 28.1214 28.0175 28.1214 27.2844C28.1214 26.5512 27.527 25.9569 26.7939 25.9569C26.0608 25.9569 25.4664 26.5512 25.4664 27.2844C25.4664 28.0175 26.0608 28.6118 26.7939 28.6118Z" fill="#EE60A2"/>
</g>
<path d="M16.0438 20.686C16.552 20.686 16.964 20.274 16.964 19.7657C16.964 19.2575 16.552 18.8455 16.0438 18.8455C15.5355 18.8455 15.1235 19.2575 15.1235 19.7657C15.1235 20.274 15.5355 20.686 16.0438 20.686Z" fill="#231F20"/>
<g opacity="0.1">
<path d="M22.7618 25.4869C22.654 25.4869 22.5462 25.4869 22.4374 25.4749C21.301 25.3987 20.2396 24.8803 19.481 24.0307C19.1085 23.6188 18.8232 23.1358 18.6424 22.6107C18.4616 22.0856 18.389 21.5293 18.429 20.9754C18.4354 20.8868 18.4768 20.8043 18.544 20.7461C18.6111 20.6879 18.6987 20.6587 18.7874 20.6651C18.876 20.6715 18.9585 20.7128 19.0167 20.78C19.0749 20.8471 19.1041 20.9347 19.0978 21.0234C19.0644 21.4877 19.1255 21.9538 19.2773 22.3938C19.4292 22.8338 19.6686 23.2386 19.9811 23.5835C20.6235 24.3011 21.5213 24.7385 22.4823 24.8021C23.4425 24.8763 24.3937 24.5718 25.1323 23.9538C25.4907 23.657 25.7853 23.2906 25.9984 22.8769C26.2114 22.4631 26.3385 22.0106 26.3719 21.5464C26.375 21.5024 26.3866 21.4595 26.4063 21.4201C26.426 21.3807 26.4533 21.3456 26.4866 21.3167C26.5199 21.2879 26.5585 21.2659 26.6003 21.252C26.6422 21.2382 26.6863 21.2327 26.7302 21.2359C26.8189 21.2423 26.9014 21.2837 26.9596 21.3509C27.0178 21.4181 27.047 21.5056 27.0407 21.5943C27.0013 22.1482 26.85 22.6884 26.5962 23.1822C26.3423 23.6761 25.991 24.1134 25.5635 24.4678C24.7791 25.1275 23.7867 25.4885 22.7618 25.4869V25.4869Z" fill="#231F20"/>
</g>
<path d="M22.9943 16.7123C22.1493 16.7128 21.3253 16.9756 20.6362 17.4647C19.9472 17.9537 19.427 18.6447 19.1476 19.4421C18.8682 18.6447 18.348 17.9537 17.6589 17.4647C16.9699 16.9756 16.1459 16.7128 15.3009 16.7123C14.2188 16.7123 13.1809 17.1422 12.4158 17.9074C11.6506 18.6726 11.2207 19.7103 11.2207 20.7925C11.2207 21.8746 11.6506 22.9125 12.4158 23.6777C13.1809 24.4429 14.2188 24.8727 15.3009 24.8727C16.1459 24.8723 16.9699 24.6094 17.6589 24.1204C18.348 23.6314 18.8682 22.9404 19.1476 22.1429C19.427 22.9404 19.9472 23.6314 20.6362 24.1204C21.3253 24.6094 22.1493 24.8723 22.9943 24.8727C24.0764 24.8727 25.1142 24.4429 25.8794 23.6777C26.6446 22.9125 27.0745 21.8746 27.0745 20.7925C27.0745 19.7103 26.6446 18.6726 25.8794 17.9074C25.1142 17.1422 24.0764 16.7123 22.9943 16.7123Z" fill="white"/>
<path d="M23.1171 22.0891C24.3948 22.0891 25.4307 21.0532 25.4307 19.7755C25.4307 18.4977 24.3948 17.4619 23.1171 17.4619C21.8393 17.4619 20.8035 18.4977 20.8035 19.7755C20.8035 21.0532 21.8393 22.0891 23.1171 22.0891Z" fill="#9967AA"/>
<path d="M23.7365 20.686C24.2448 20.686 24.6568 20.274 24.6568 19.7657C24.6568 19.2575 24.2448 18.8455 23.7365 18.8455C23.2283 18.8455 22.8163 19.2575 22.8163 19.7657C22.8163 20.274 23.2283 20.686 23.7365 20.686Z" fill="#231F20"/>
<path d="M13.2309 21.6709C13.5324 21.6709 13.7769 21.4265 13.7769 21.1249C13.7769 20.8234 13.5324 20.579 13.2309 20.579C12.9294 20.579 12.6849 20.8234 12.6849 21.1249C12.6849 21.4265 12.9294 21.6709 13.2309 21.6709Z" fill="#FFFCE6"/>
<path d="M13.7779 20.1958C14.3159 20.1958 14.752 19.7596 14.752 19.2216C14.752 18.6836 14.3159 18.2475 13.7779 18.2475C13.2399 18.2475 12.8037 18.6836 12.8037 19.2216C12.8037 19.7596 13.2399 20.1958 13.7779 20.1958Z" fill="#FFFCE6"/>
<path d="M25.4665 23.3309C26.0045 23.3309 26.4406 22.8948 26.4406 22.3568C26.4406 21.8188 26.0045 21.3827 25.4665 21.3827C24.9284 21.3827 24.4923 21.8188 24.4923 22.3568C24.4923 22.8948 24.9284 23.3309 25.4665 23.3309Z" fill="#FFFCE6"/>
<path d="M15.4236 22.0891C16.7013 22.0891 17.7372 21.0532 17.7372 19.7755C17.7372 18.4977 16.7013 17.4619 15.4236 17.4619C14.1458 17.4619 13.11 18.4977 13.11 19.7755C13.11 21.0532 14.1458 22.0891 15.4236 22.0891Z" fill="#9967AA"/>
<path d="M16.0006 20.5792C16.5088 20.5792 16.9208 20.1672 16.9208 19.659C16.9208 19.1507 16.5088 18.7387 16.0006 18.7387C15.4923 18.7387 15.0803 19.1507 15.0803 19.659C15.0803 20.1672 15.4923 20.5792 16.0006 20.5792Z" fill="#231F20"/>
</g>
</svg>
