<svg width="21" height="22" viewBox="0 0 21 22" fill="none" xmlns="http://www.w3.org/2000/svg">
<path d="M19.7213 1.032C19.3947 0.704216 19.0065 0.444278 18.579 0.267161C18.1516 0.0900432 17.6933 -0.000753762 17.2306 -1.07351e-05H5.39774C5.19408 0.00128694 4.99871 0.0807412 4.85196 0.221959C4.70522 0.363177 4.61831 0.555364 4.6092 0.758817C4.60009 0.96227 4.66948 1.16146 4.80302 1.31522C4.93655 1.46899 5.12405 1.5656 5.32677 1.58509H6.67058C6.67561 1.58921 6.68018 1.59425 6.68522 1.59883C6.93941 1.85287 7.14077 2.15472 7.27772 2.48698C7.41466 2.81925 7.48448 3.17534 7.48311 3.53471C7.48175 3.89408 7.40927 4.24963 7.26981 4.58084C7.13035 4.91206 6.92668 5.21239 6.67058 5.4645H5.33455C5.13656 5.49483 4.95734 5.59882 4.83276 5.75567C4.70819 5.91251 4.64746 6.11063 4.66274 6.31034C4.67803 6.51005 4.76819 6.69661 4.91518 6.83268C5.06216 6.96874 5.25512 7.04425 5.45541 7.0441H17.231C17.9275 7.04396 18.6083 6.83735 19.1874 6.45036C19.7665 6.06337 20.2178 5.51339 20.4844 4.86994C20.751 4.22649 20.8208 3.51845 20.6851 2.83532C20.5493 2.15219 20.2141 1.52465 19.7218 1.032H19.7213Z" fill="#62C038"/>
<path d="M16.1533 3.52276C16.1532 4.45673 15.7821 5.3524 15.1216 6.01277C14.4612 6.67315 13.5654 7.04412 12.6315 7.04412H0.856303C0.656008 7.04428 0.46305 6.96877 0.316064 6.8327C0.169078 6.69664 0.0789163 6.51008 0.0636341 6.31036C0.0483518 6.11065 0.109081 5.91254 0.233653 5.75569C0.358226 5.59885 0.537453 5.49485 0.73544 5.46453H12.653C12.9102 5.46848 13.1657 5.42122 13.4045 5.32551C13.6433 5.22981 13.8607 5.08757 14.044 4.90706C14.2273 4.72655 14.3728 4.51137 14.4722 4.27407C14.5716 4.03677 14.6227 3.78208 14.6227 3.52481C14.6227 3.26755 14.5716 3.01286 14.4722 2.77556C14.3728 2.53826 14.2273 2.32309 14.044 2.14258C13.8607 1.96207 13.6433 1.81982 13.4045 1.72412C13.1657 1.62841 12.9102 1.58116 12.653 1.58512H0.728104C0.523547 1.5681 0.333531 1.47251 0.197925 1.31842C0.0623201 1.16433 -0.00833671 0.963693 0.000785013 0.758632C0.00990673 0.553571 0.0981061 0.360018 0.246858 0.218574C0.395609 0.0771311 0.593364 -0.00119806 0.798624 1.38562e-05H12.6315C13.094 1.38406e-05 13.5521 0.0911315 13.9794 0.268177C14.4068 0.445223 14.795 0.704724 15.1221 1.03185C15.4491 1.35898 15.7085 1.74734 15.8855 2.17473C16.0624 2.60213 16.1534 3.06019 16.1533 3.52276Z" fill="#A1D858"/>
<path d="M14.5929 3.5251C14.5929 3.77983 14.5427 4.03207 14.4452 4.26741C14.3477 4.50275 14.2048 4.71658 14.0247 4.89668C13.8446 5.07679 13.6307 5.21964 13.3953 5.31708C13.1599 5.41452 12.9077 5.46464 12.653 5.46458H2.07146C2.32765 5.21252 2.53138 4.91223 2.67091 4.58103C2.81045 4.24983 2.88301 3.89427 2.88441 3.53488C2.88582 3.17549 2.81604 2.81938 2.6791 2.4871C2.54216 2.15482 2.34078 1.85294 2.08656 1.5989C2.08061 1.59432 2.07695 1.58928 2.07146 1.5847H12.6553C12.9101 1.58458 13.1624 1.63469 13.3979 1.73217C13.6333 1.82965 13.8473 1.97258 14.0274 2.15279C14.2076 2.333 14.3505 2.54697 14.4479 2.78244C14.5453 3.01791 14.5954 3.27027 14.5952 3.5251H14.5929Z" fill="#DFE6F2"/>
<path d="M14.5929 3.5251C14.5933 3.75101 14.5541 3.97523 14.4771 4.18761C14.3407 3.81338 14.0925 3.49013 13.7662 3.2617C13.4399 3.03327 13.0513 2.91072 12.653 2.91065H2.81455C2.70002 2.41366 2.44771 1.95902 2.08656 1.5989C2.08061 1.59432 2.07695 1.58928 2.07146 1.5847H12.6553C12.9101 1.58458 13.1624 1.63469 13.3979 1.73217C13.6333 1.82965 13.8473 1.97258 14.0274 2.15279C14.2076 2.333 14.3505 2.54697 14.4479 2.78244C14.5453 3.01791 14.5954 3.27027 14.5952 3.5251H14.5929Z" fill="#CFD5E3"/>
<path d="M19.7213 15.1203C19.3948 14.7925 19.0066 14.5325 18.5791 14.3553C18.1516 14.1782 17.6933 14.0875 17.2306 14.0883H5.39777C5.19341 14.0884 4.99694 14.1673 4.84927 14.3085C4.70159 14.4498 4.61407 14.6426 4.60493 14.8467C4.59579 15.0509 4.66573 15.2507 4.80018 15.4046C4.93464 15.5585 5.12326 15.6546 5.3268 15.6729H6.67061L6.68525 15.6871C6.93944 15.9412 7.1408 16.2431 7.27775 16.5753C7.41469 16.9076 7.48451 17.2637 7.48314 17.623C7.48178 17.9824 7.4093 18.338 7.26984 18.6692C7.13038 19.0004 6.92671 19.3007 6.67061 19.5528H5.33458C5.1366 19.5831 4.95737 19.6871 4.8328 19.844C4.70822 20.0008 4.64749 20.1989 4.66278 20.3987C4.67806 20.5984 4.76822 20.7849 4.91521 20.921C5.06219 21.0571 5.25515 21.1326 5.45545 21.1324H17.2311C17.9275 21.1323 18.6084 20.9257 19.1874 20.5387C19.7665 20.1517 20.2179 19.6017 20.4844 18.9583C20.751 18.3148 20.8209 17.6068 20.6851 16.9236C20.5494 16.2405 20.2141 15.613 19.7218 15.1203H19.7213Z" fill="#62C038"/>
<path d="M16.1533 17.6105C16.1532 18.5445 15.7821 19.4403 15.1216 20.1007C14.4612 20.7612 13.5655 21.1322 12.6315 21.1324H0.856294C0.655999 21.1325 0.463041 21.057 0.316055 20.9209C0.169069 20.7849 0.0789072 20.5983 0.0636249 20.3986C0.0483426 20.1989 0.109072 20.0008 0.233644 19.8439C0.358217 19.6871 0.537444 19.5831 0.735431 19.5528H12.653C13.1675 19.5528 13.661 19.3484 14.0249 18.9845C14.3887 18.6207 14.5931 18.1272 14.5931 17.6126C14.5931 17.098 14.3887 16.6045 14.0249 16.2407C13.661 15.8768 13.1675 15.6724 12.653 15.6724H0.728095C0.524598 15.6541 0.336017 15.558 0.201563 15.4041C0.0671094 15.2503 -0.00285727 15.0505 0.0062252 14.8464C0.0153077 14.6423 0.102727 14.4495 0.250314 14.3082C0.3979 14.1669 0.594294 14.088 0.798615 14.0878H12.6315C13.094 14.0878 13.552 14.1789 13.9793 14.3559C14.4066 14.5329 14.7949 14.7924 15.1219 15.1195C15.449 15.4466 15.7084 15.8348 15.8853 16.2622C16.0623 16.6895 16.1534 17.1475 16.1533 17.6101V17.6105Z" fill="#A1D858"/>
<path d="M14.5929 17.6142C14.5928 18.1287 14.3884 18.622 14.0246 18.9857C13.6608 19.3494 13.1674 19.5537 12.653 19.5537H2.07146C2.32765 19.3017 2.53138 19.0014 2.67091 18.6702C2.81045 18.339 2.88301 17.9834 2.88441 17.624C2.88582 17.2646 2.81604 16.9085 2.6791 16.5762C2.54216 16.2439 2.34078 15.9421 2.08656 15.688C2.08177 15.683 2.07673 15.6783 2.07146 15.6738H12.6553C12.9101 15.6737 13.1624 15.7238 13.3979 15.8213C13.6333 15.9188 13.8473 16.0617 14.0274 16.2419C14.2076 16.4221 14.3505 16.6361 14.4479 16.8716C14.5453 17.107 14.5954 17.3594 14.5952 17.6142H14.5929Z" fill="#DFE6F2"/>
<path d="M14.5929 17.6142C14.5932 17.8403 14.554 18.0646 14.4771 18.2772C14.3408 17.9028 14.0927 17.5794 13.7664 17.3509C13.4401 17.1224 13.0514 16.9998 12.653 16.9998H2.81455C2.70011 16.5028 2.44779 16.0481 2.08656 15.688C2.08177 15.683 2.07673 15.6783 2.07146 15.6738H12.6553C12.9101 15.6737 13.1624 15.7238 13.3979 15.8213C13.6333 15.9188 13.8473 16.0617 14.0274 16.2419C14.2076 16.4221 14.3505 16.6361 14.4479 16.8716C14.5453 17.107 14.5954 17.3594 14.5952 17.6142H14.5929Z" fill="#CFD5E3"/>
<path d="M1.03577 8.07568C1.36236 7.74805 1.75052 7.48824 2.1779 7.3112C2.60528 7.13417 3.06347 7.0434 3.52607 7.04411H15.3575C15.5627 7.04277 15.7604 7.12096 15.9092 7.26228C16.058 7.40361 16.1462 7.59708 16.1554 7.80206C16.1646 8.00705 16.094 8.20762 15.9585 8.36168C15.8229 8.51574 15.633 8.6113 15.4285 8.62831H14.0856C14.0796 8.63289 14.0755 8.63791 14.07 8.64295C13.8159 8.89706 13.6146 9.19897 13.4777 9.53126C13.3409 9.86356 13.2712 10.2197 13.2726 10.579C13.274 10.9384 13.3466 11.2939 13.4862 11.6251C13.6257 11.9563 13.8294 12.2566 14.0856 12.5086H15.4216C15.6201 12.5382 15.8001 12.642 15.9252 12.7989C16.0503 12.9558 16.1114 13.1543 16.0961 13.3545C16.0808 13.5546 15.9902 13.7415 15.8427 13.8775C15.6951 14.0136 15.5015 14.0887 15.3008 14.0878H3.52607C2.82962 14.0875 2.14886 13.8809 1.56985 13.4938C0.990842 13.1068 0.539564 12.5568 0.273048 11.9134C0.00653097 11.27 -0.0632614 10.562 0.072498 9.87889C0.208258 9.1958 0.543472 8.5683 1.03577 8.07568Z" fill="#62C038"/>
<path d="M4.60384 10.5663C4.60384 11.5003 4.97483 12.396 5.63521 13.0563C6.2956 13.7167 7.19129 14.0877 8.12521 14.0877H19.9013C20.102 14.0887 20.2956 14.0135 20.4432 13.8775C20.5907 13.7414 20.6813 13.5545 20.6966 13.3544C20.7119 13.1543 20.6509 12.9558 20.5257 12.7988C20.4006 12.6419 20.2207 12.5382 20.0222 12.5086H8.10414C7.58952 12.5086 7.09598 12.3041 6.73208 11.9402C6.36819 11.5764 6.16376 11.0828 6.16376 10.5682C6.16376 10.0536 6.36819 9.56001 6.73208 9.19611C7.09598 8.83222 7.58952 8.62779 8.10414 8.62779H20.029C20.2335 8.61078 20.4235 8.51522 20.559 8.36116C20.6945 8.2071 20.7651 8.00653 20.7559 7.80154C20.7467 7.59656 20.6585 7.4031 20.5097 7.26178C20.361 7.12046 20.1632 7.04225 19.9581 7.0436H8.12521C7.66267 7.04348 7.20462 7.13451 6.77727 7.31149C6.34992 7.48847 5.96165 7.74793 5.63463 8.07504C5.3076 8.40216 5.04824 8.7905 4.87137 9.2179C4.6945 9.64529 4.6036 10.1034 4.60384 10.5659V10.5663Z" fill="#A1D858"/>
<path d="M6.16416 10.5701C6.1641 10.8249 6.21422 11.0771 6.31166 11.3125C6.4091 11.5478 6.55196 11.7617 6.73207 11.9418C6.91217 12.122 7.126 12.2649 7.36134 12.3624C7.59668 12.4599 7.84892 12.5101 8.10365 12.5101H18.6852C18.429 12.258 18.2254 11.9577 18.0859 11.6265C17.9464 11.2953 17.8738 10.9398 17.8723 10.5805C17.8709 10.2211 17.9406 9.86502 18.0774 9.53273C18.2143 9.20044 18.4155 8.89853 18.6696 8.64439C18.6755 8.63844 18.6792 8.63431 18.6852 8.62973H8.10365C7.84886 8.62967 7.59654 8.67983 7.36114 8.77734C7.12575 8.87484 6.91188 9.01778 6.73176 9.19798C6.55164 9.37819 6.4088 9.59212 6.31141 9.82757C6.21401 10.063 6.16398 10.3153 6.16416 10.5701Z" fill="#DFE6F2"/>
<path d="M6.16417 10.5701C6.16368 10.7963 6.20274 11.0208 6.27955 11.2336C6.41579 10.8592 6.66391 10.5358 6.99023 10.3073C7.31655 10.0788 7.70528 9.95618 8.10366 9.95614H17.9425C18.0565 9.45904 18.3087 9.0043 18.67 8.64439C18.676 8.63844 18.6797 8.63431 18.6856 8.62973H8.10366C7.84887 8.62967 7.59654 8.67983 7.36115 8.77734C7.12575 8.87484 6.91189 9.01778 6.73176 9.19798C6.55164 9.37819 6.4088 9.59212 6.31141 9.82757C6.21402 10.063 6.16399 10.3153 6.16417 10.5701Z" fill="#CFD5E3"/>
</svg>
