<svg width="53" height="53" viewBox="0 0 53 53" fill="none" xmlns="http://www.w3.org/2000/svg">
<path d="M52.3283 26.0233C52.3283 11.651 40.6773 0 26.305 0C11.9328 0 0.281738 11.651 0.281738 26.0233C0.281738 40.3955 11.9328 52.0465 26.305 52.0465C40.6773 52.0465 52.3283 40.3955 52.3283 26.0233Z" fill="white"/>
<path d="M36.588 18.1455C35.9669 17.4687 35.2108 16.9297 34.3686 16.563C33.5264 16.1964 32.6167 16.0103 31.6982 16.0168C30.3049 16.0106 28.9509 16.4779 27.858 17.3422C27.265 17.8063 26.7418 18.3531 26.3044 18.9661C25.8671 18.3541 25.3442 17.8081 24.7517 17.3448C23.6589 16.4795 22.3045 16.0113 20.9107 16.0168C19.9921 16.0102 19.0824 16.1962 18.2402 16.5629C17.398 16.9295 16.6419 17.4687 16.0209 18.1455C14.7416 19.5791 14.0494 21.442 14.0822 23.3631C14.1385 25.5774 15.0005 27.695 16.5067 29.319C18.3742 31.378 20.4048 33.283 22.5788 35.0155V35.0155C23.4185 35.732 24.3709 36.5431 25.3546 37.4062C25.6161 37.6349 25.9518 37.761 26.2992 37.761C26.6467 37.761 26.9824 37.6349 27.2439 37.4062C28.2336 36.5387 29.1869 35.7277 30.0284 35.0112C32.2022 33.2786 34.2328 31.3736 36.1005 29.3147C37.6068 27.6907 38.4688 25.5731 38.525 23.3588C38.5572 21.4394 37.8656 19.5782 36.588 18.1455V18.1455Z" stroke="#FD3C38" stroke-width="2.60233" stroke-miterlimit="10" stroke-linecap="round" stroke-linejoin="round"/>
</svg>
