<svg width="53" height="53" viewBox="0 0 53 53" fill="none" xmlns="http://www.w3.org/2000/svg">
<path d="M52.1405 26.0233C52.1405 11.651 40.4895 0 26.1173 0C11.745 0 0.0939941 11.651 0.0939941 26.0233C0.0939941 40.3955 11.745 52.0465 26.1173 52.0465C40.4895 52.0465 52.1405 40.3955 52.1405 26.0233Z" fill="white"/>
<path d="M26.1171 39.4247C25.7851 39.4247 25.4564 39.3593 25.1498 39.2322C24.8431 39.1052 24.5644 38.919 24.3297 38.6843C24.095 38.4496 23.9088 38.1709 23.7818 37.8642C23.6547 37.5576 23.5894 37.2289 23.5894 36.8969V25.2385C23.5894 24.5681 23.8557 23.9252 24.3297 23.4511C24.8038 22.9771 25.4467 22.7108 26.1171 22.7108C26.7875 22.7108 27.4304 22.9771 27.9045 23.4511C28.3785 23.9252 28.6448 24.5681 28.6448 25.2385V36.8969C28.6448 37.2289 28.5794 37.5576 28.4524 37.8642C28.3254 38.1709 28.1392 38.4496 27.9045 38.6843C27.6697 38.919 27.3911 39.1052 27.0844 39.2322C26.7777 39.3593 26.449 39.4247 26.1171 39.4247Z" stroke="#5FACF4" stroke-width="2.60233" stroke-linecap="round" stroke-linejoin="round"/>
<path d="M26.1171 13.0281C25.6171 13.0281 25.1284 13.1763 24.7128 13.4541C24.2971 13.7318 23.9731 14.1266 23.7818 14.5885C23.5905 15.0504 23.5404 15.5586 23.6379 16.0489C23.7355 16.5393 23.9762 16.9897 24.3297 17.3432C24.6832 17.6967 25.1336 17.9374 25.6239 18.035C26.1143 18.1325 26.6225 18.0824 27.0844 17.8911C27.5463 17.6998 27.9411 17.3758 28.2188 16.9601C28.4966 16.5445 28.6448 16.0557 28.6448 15.5558C28.6448 15.2239 28.5794 14.8952 28.4524 14.5885C28.3254 14.2818 28.1392 14.0032 27.9045 13.7684C27.6697 13.5337 27.3911 13.3475 27.0844 13.2205C26.7777 13.0935 26.449 13.0281 26.1171 13.0281V13.0281Z" stroke="#5FACF4" stroke-width="2.60233" stroke-linecap="round" stroke-linejoin="round"/>
</svg>
