<svg width="19" height="23" viewBox="0 0 19 23" fill="none" xmlns="http://www.w3.org/2000/svg">
<path d="M17.1982 7.78287H2.15713C1.68868 7.78348 1.23956 7.96988 0.908317 8.30112C0.577075 8.63236 0.390749 9.08141 0.390137 9.54986V21.1483C0.390061 21.3804 0.4357 21.6102 0.52448 21.8245C0.61326 22.0389 0.743438 22.2337 0.907541 22.3978C1.07164 22.5618 1.26649 22.6919 1.4809 22.7806C1.69531 22.8693 1.92509 22.9149 2.15713 22.9147H17.1982C17.4302 22.9149 17.66 22.8693 17.8744 22.7806C18.0888 22.6919 18.2837 22.5618 18.4478 22.3978C18.6119 22.2337 18.7421 22.0389 18.8308 21.8245C18.9196 21.6102 18.9653 21.3804 18.9652 21.1483V9.55219C18.9652 9.08334 18.7791 8.63364 18.4478 8.30189C18.1165 7.97015 17.667 7.78348 17.1982 7.78287ZM13.1839 14.1243C13.1837 14.1687 13.1728 14.2124 13.152 14.2517C13.1313 14.2909 13.1014 14.3246 13.0648 14.3497C13.0195 14.3775 12.9677 14.3928 12.9145 14.3942C12.8784 14.3933 12.8428 14.3859 12.8093 14.3722L9.96956 13.1445V18.3345C9.96089 18.3345 9.95626 18.3294 9.95164 18.3294C9.95569 18.3831 9.96956 18.4311 9.96956 18.4842C9.96826 18.9889 9.76828 19.4727 9.41293 19.831C9.23602 20.0078 9.02591 20.148 8.79469 20.2434C8.56348 20.3388 8.31575 20.3877 8.06562 20.3871C8.06157 20.3871 8.05232 20.3836 8.04769 20.3836C7.9247 20.383 7.802 20.371 7.68121 20.3478C7.65867 20.3437 7.63729 20.3304 7.61475 20.3258C7.51392 20.3024 7.41495 20.2715 7.31876 20.2333C6.9774 20.0869 6.68639 19.8437 6.48158 19.5338C6.27677 19.2239 6.16719 18.8609 6.16625 18.4895C6.16692 18.1598 6.25363 17.8359 6.41787 17.55C6.5821 17.2642 6.81816 17.0261 7.10263 16.8594C7.09801 16.8594 7.09802 16.8554 7.09339 16.8554C7.16733 16.8109 7.24458 16.7723 7.32454 16.7398C7.33321 16.7358 7.33725 16.7358 7.34592 16.7311C7.44166 16.6911 7.54097 16.6601 7.64248 16.6386C7.66849 16.634 7.7003 16.6253 7.72574 16.6207C7.83808 16.5998 7.95193 16.5879 8.06618 16.5854C8.56204 16.5848 9.03813 16.7799 9.39098 17.1283V10.5828C9.39179 10.538 9.40354 10.4941 9.4252 10.4549C9.44687 10.4157 9.47776 10.3825 9.51524 10.358C9.55291 10.3338 9.59588 10.3191 9.64048 10.3151C9.68507 10.3112 9.72997 10.3182 9.77129 10.3354L13.0215 11.7267C13.0703 11.7468 13.112 11.7812 13.141 11.8253C13.1701 11.8694 13.1852 11.9213 13.1845 11.9741L13.1839 14.1243Z" fill="#92A2AD"/>
<path d="M18.1218 5.22169C18.1218 5.44126 18.0347 5.65186 17.8794 5.80718C17.7242 5.9625 17.5137 6.04982 17.2941 6.04997H2.05829C1.83871 6.04982 1.62815 5.9625 1.47294 5.80718C1.31773 5.65186 1.23057 5.44126 1.23057 5.22169C1.23049 5.11294 1.2518 5.00523 1.29337 4.90474C1.33493 4.80425 1.39593 4.71297 1.47279 4.63605C1.54966 4.55913 1.64088 4.49811 1.74134 4.45648C1.8418 4.41485 1.94954 4.3934 2.05829 4.3934H17.2941C17.4028 4.3934 17.5106 4.41485 17.611 4.45648C17.7115 4.49811 17.8027 4.55913 17.8796 4.63605C17.9565 4.71297 18.0175 4.80425 18.059 4.90474C18.1006 5.00523 18.1219 5.11294 18.1218 5.22169Z" fill="#92A2AD"/>
<path d="M17.2663 1.82706C17.2663 2.04674 17.1791 2.25743 17.0238 2.41277C16.8684 2.5681 16.6577 2.65535 16.4381 2.65535H2.91252C2.69284 2.65535 2.48215 2.5681 2.32682 2.41277C2.17148 2.25743 2.08424 2.04674 2.08424 1.82706C2.08424 1.60739 2.17148 1.39669 2.32682 1.24136C2.48215 1.08602 2.69284 0.998779 2.91252 0.998779H16.4381C16.6577 0.998779 16.8684 1.08602 17.0238 1.24136C17.1791 1.39669 17.2663 1.60739 17.2663 1.82706Z" fill="#92A2AD"/>
</svg>
