<svg width="18" height="24" viewBox="0 0 18 24" fill="none" xmlns="http://www.w3.org/2000/svg">
<path d="M7.87373 19.3865V22.3882C7.8426 22.5017 7.83807 22.6208 7.86051 22.7363C7.88296 22.8518 7.93175 22.9606 8.00311 23.0542C8.07446 23.1477 8.16644 23.2236 8.2719 23.2758C8.37735 23.328 8.49343 23.3551 8.6111 23.3551C8.72877 23.3551 8.84484 23.328 8.9503 23.2758C9.05575 23.2236 9.14774 23.1477 9.2191 23.0542C9.29045 22.9606 9.33925 22.8518 9.36169 22.7363C9.38413 22.6208 9.37961 22.5017 9.34848 22.3882V19.3865H7.87373Z" fill="#5796F4"/>
<path d="M12.2253 23.6761H4.99664C4.78571 23.6761 4.58343 23.5923 4.43428 23.4432C4.28513 23.294 4.20134 23.0917 4.20134 22.8808C4.20134 22.6699 4.28513 22.4676 4.43428 22.3184C4.58343 22.1693 4.78571 22.0855 4.99664 22.0855H12.2253C12.3297 22.0855 12.4331 22.1061 12.5296 22.1461C12.6261 22.186 12.7138 22.2446 12.7876 22.3184C12.8615 22.3923 12.9201 22.48 12.96 22.5765C13 22.673 13.0206 22.7764 13.0206 22.8808C13.0206 22.9852 13 23.0887 12.96 23.1852C12.9201 23.2816 12.8615 23.3693 12.7876 23.4432C12.7138 23.517 12.6261 23.5756 12.5296 23.6156C12.4331 23.6555 12.3297 23.6761 12.2253 23.6761Z" fill="#5796F4"/>
<path d="M14.7746 11.2953C14.7817 12.1091 14.6274 12.9163 14.3209 13.6702C14.0143 14.424 13.5614 15.1097 12.9885 15.6877C12.4155 16.2656 11.7337 16.7244 10.9825 17.0374C10.2313 17.3505 9.4255 17.5117 8.61167 17.5117C7.79783 17.5117 6.99206 17.3505 6.24085 17.0374C5.48964 16.7244 4.80787 16.2656 4.23488 15.6877C3.6619 15.1097 3.20906 14.424 2.90248 13.6702C2.59591 12.9163 2.44168 12.1091 2.44869 11.2953V6.16368C2.4627 4.53836 3.11818 2.98438 4.27244 1.84002C5.4267 0.695669 6.98629 0.0536041 8.61167 0.0536041C10.2371 0.0536041 11.7966 0.695669 12.9509 1.84002C14.1051 2.98438 14.7606 4.53836 14.7746 6.16368V11.2953Z" fill="#77C8F4"/>
<path opacity="0.5" d="M14.7746 6.16362V11.2976C14.7747 12.107 14.6153 12.9084 14.3056 13.6562C13.9959 14.404 13.5419 15.0834 12.9696 15.6557C12.3973 16.2281 11.7178 16.682 10.97 16.9918C10.2223 17.3015 9.42079 17.4608 8.61141 17.4608C8.39165 17.4608 8.17204 17.4493 7.95347 17.4264C9.19446 16.9797 10.2674 16.161 11.026 15.082C11.7846 14.0031 12.1919 12.7163 12.1923 11.3974V6.06198C12.1923 4.74311 11.7851 3.4564 11.0265 2.37757C10.2678 1.29875 9.19461 0.4804 7.95347 0.0343012C8.17202 0.0112396 8.39165 -0.000228452 8.61141 -4.35765e-05C9.42093 -0.000464906 10.2226 0.158683 10.9706 0.468292C11.7185 0.777902 12.3982 1.23191 12.9706 1.80434C13.543 2.37678 13.9969 3.05644 14.3065 3.80443C14.616 4.55243 14.7751 5.3541 14.7746 6.16362Z" fill="#5796F4"/>
<path opacity="0.5" d="M2.44869 10.5041V11.2962C2.44168 12.11 2.59591 12.9171 2.90248 13.671C3.20906 14.4249 3.6619 15.1106 4.23488 15.6885C4.80787 16.2664 5.48964 16.7252 6.24085 17.0383C6.99206 17.3513 7.79783 17.5125 8.61167 17.5125C9.4255 17.5125 10.2313 17.3513 10.9825 17.0383C11.7337 16.7252 12.4155 16.2664 12.9885 15.6885C13.5614 15.1106 14.0143 14.4249 14.3209 13.671C14.6274 12.9171 14.7817 12.11 14.7746 11.2962V10.5041H2.44869Z" fill="#5796F4"/>
<path d="M12.1927 10.5041V11.3955C12.1922 12.7144 11.7849 14.001 11.0263 15.0799C10.2677 16.1588 9.19479 16.9774 7.95387 17.4241C8.81381 17.5161 9.68347 17.4261 10.5064 17.1601C11.3293 16.894 12.087 16.4579 12.7304 15.8799C13.3737 15.302 13.8883 14.5952 14.2408 13.8054C14.5932 13.0156 14.7755 12.1605 14.7759 11.2957V10.5041H12.1927Z" fill="#5796F4"/>
<path d="M1.44546 10.7161C1.29201 10.7164 1.14492 10.7775 1.0365 10.8861C0.928083 10.9947 0.867186 11.1418 0.867186 11.2953C0.867186 13.3492 1.68309 15.319 3.1354 16.7713C4.58772 18.2236 6.55749 19.0395 8.61137 19.0395C10.6653 19.0395 12.635 18.2236 14.0873 16.7713C15.5396 15.319 16.3555 13.3492 16.3555 11.2953C16.3555 11.1419 16.2946 10.9949 16.1862 10.8864C16.0777 10.778 15.9306 10.717 15.7773 10.717C15.6239 10.717 15.4768 10.778 15.3684 10.8864C15.2599 10.9949 15.199 11.1419 15.199 11.2953C15.199 13.0425 14.505 14.718 13.2695 15.9535C12.0341 17.1889 10.3585 17.8829 8.61137 17.8829C6.86422 17.8829 5.18863 17.1889 3.95321 15.9535C2.71779 14.718 2.02373 13.0425 2.02373 11.2953C2.02361 11.1419 1.96268 10.9948 1.85428 10.8862C1.74589 10.7776 1.59887 10.7165 1.44546 10.7161ZM8.61137 19.8984C6.33004 19.895 4.14299 18.9879 2.52903 17.3755C0.915068 15.7632 0.00569755 13.5771 7.62939e-06 11.2958C0.00638244 10.9168 0.161313 10.5555 0.431445 10.2896C0.701578 10.0237 1.06531 9.87453 1.44434 9.87417C1.82337 9.87381 2.18739 10.0223 2.45802 10.2877C2.72866 10.553 2.88428 10.914 2.89137 11.293C2.89137 12.8101 3.49404 14.2651 4.56679 15.3378C5.63954 16.4106 7.0945 17.0132 8.6116 17.0132C10.1287 17.0132 11.5837 16.4106 12.6564 15.3378C13.7292 14.2651 14.3318 12.8101 14.3318 11.293C14.3286 11.101 14.3637 10.9103 14.435 10.732C14.5064 10.5537 14.6125 10.3913 14.7472 10.2545C14.8819 10.1177 15.0426 10.009 15.2198 9.93494C15.3969 9.86086 15.5871 9.82282 15.7791 9.82303C15.9712 9.82324 16.1613 9.86171 16.3383 9.93618C16.5153 10.0107 16.6757 10.1196 16.8101 10.2568C16.9445 10.3939 17.0503 10.5565 17.1212 10.7349C17.1922 10.9134 17.2268 11.1042 17.2232 11.2962C17.2174 13.5776 16.3079 15.7637 14.6939 17.376C13.0798 18.9884 10.8927 19.8955 8.61137 19.8989V19.8984Z" fill="#5796F4"/>
<g style="mix-blend-mode:screen" opacity="0.302">
<path d="M6.6252 8.26103C6.63481 9.50219 6.51202 10.7408 6.25891 11.9559C6.14307 12.3529 5.92605 12.6977 5.51719 12.6977H5.50391H5.49017C5.08085 12.6977 4.86428 12.3529 4.7489 11.9559C4.49578 10.7408 4.37298 9.50219 4.38261 8.26103C4.41316 7.01354 4.53559 5.76999 4.7489 4.54049C4.8304 4.00525 5.0813 3.79922 5.49017 3.79922H5.50391H5.51719C5.92651 3.79922 6.17741 4.00571 6.25891 4.54049C6.47197 5.77002 6.5944 7.01356 6.6252 8.26103Z" fill="white"/>
</g>
<path d="M5.71909 6.01709C5.71928 6.11206 5.70072 6.20614 5.66448 6.29393C5.62825 6.38172 5.57505 6.4615 5.50794 6.5287C5.44083 6.5959 5.36111 6.6492 5.27337 6.68554C5.18562 6.72189 5.09157 6.74056 4.9966 6.7405H2.44909V6.16131C2.44852 5.87118 2.46871 5.58138 2.50952 5.29413H4.99614C5.18788 5.29413 5.37177 5.37029 5.50735 5.50587C5.64293 5.64145 5.71909 5.82535 5.71909 6.01709Z" fill="#5796F4"/>
<path d="M6.9031 9.2903C6.9031 9.38522 6.8844 9.47922 6.84806 9.5669C6.81172 9.65459 6.75846 9.73426 6.69132 9.80135C6.62418 9.86845 6.54449 9.92166 6.45678 9.95794C6.36907 9.99423 6.27506 10.0129 6.18015 10.0128H2.44907V8.56689H6.18015C6.37193 8.56702 6.55581 8.64329 6.69138 8.77894C6.82695 8.9146 6.9031 9.09852 6.9031 9.2903Z" fill="#5796F4"/>
<path d="M14.776 6.16131V6.74003H12.2258C12.034 6.74003 11.8501 6.66387 11.7145 6.52829C11.579 6.39271 11.5028 6.20883 11.5028 6.01709C11.5028 5.82535 11.579 5.64145 11.7145 5.50587C11.8501 5.37029 12.034 5.29413 12.2258 5.29413H14.7137C14.7552 5.58133 14.776 5.87114 14.776 6.16131Z" fill="#5796F4"/>
<path d="M14.7746 8.56689V10.0128H11.0431C10.8513 10.0128 10.6675 9.93664 10.5319 9.80106C10.3963 9.66548 10.3201 9.48159 10.3201 9.28985C10.3201 9.09811 10.3963 8.91422 10.5319 8.77864C10.6675 8.64306 10.8513 8.56689 11.0431 8.56689H14.7746Z" fill="#5796F4"/>
</svg>
