<svg width="15" height="21" viewBox="0 0 15 21" fill="none" xmlns="http://www.w3.org/2000/svg">
<path d="M8.96978 6.58197V2.08456C8.96978 1.69579 8.81532 1.32298 8.54041 1.04808C8.26551 0.773178 7.8927 0.618713 7.50393 0.618713C7.11516 0.618713 6.74227 0.773178 6.46737 1.04808C6.19247 1.32298 6.03809 1.69579 6.03809 2.08456V6.58197H8.96978Z" fill="#312858"/>
<path d="M14.5386 14.0411C13.1069 12.4943 13.0155 12.0867 13.0155 11.062V8.83383C13.0155 8.10966 12.8729 7.39259 12.5957 6.72354C12.3186 6.0545 11.9124 5.44656 11.4003 4.9345C10.8883 4.42244 10.2804 4.01632 9.61139 3.73919C8.94234 3.46206 8.22527 3.31937 7.50111 3.31937C6.03859 3.31937 4.63594 3.90034 3.60178 4.9345C2.56762 5.96866 1.98665 7.37131 1.98665 8.83383V11.062C1.98665 12.0839 1.89452 12.4943 0.462857 14.0411C0.164593 14.3642 -0.000751386 14.7881 2.56714e-06 15.2278V15.3018C0.000372633 15.7668 0.185396 16.2126 0.514323 16.5412C0.84325 16.8699 1.28921 17.0545 1.7542 17.0545H13.2472C13.7121 17.0543 14.1578 16.8696 14.4864 16.541C14.8151 16.2123 14.9998 15.7666 15 15.3018V15.2278C15.0011 14.7883 14.8363 14.3644 14.5386 14.0411Z" fill="#312858"/>
<path d="M5.20032 18.0248C5.27391 18.5791 5.54628 19.0877 5.96677 19.4562C6.38726 19.8247 6.92719 20.0279 7.4863 20.0282C8.04544 20.0278 8.58551 19.8245 9.00608 19.4561C9.42666 19.0876 9.69916 18.5791 9.77305 18.0248H5.20032Z" fill="#312858"/>
</svg>
