<svg width="35" height="36" viewBox="0 0 35 36" fill="none" xmlns="http://www.w3.org/2000/svg">
<path fill-rule="evenodd" clip-rule="evenodd" d="M0 17.8283C0 8.23932 7.79765 0.445435 17.3728 0.445435C26.948 0.445435 34.7457 8.23932 34.7457 17.8283C34.7457 27.3972 26.948 35.1911 17.3728 35.1911C7.79765 35.1911 0 27.3972 0 17.8283ZM23.7446 19.5866C23.9291 19.4023 24.1638 19.1173 24.2142 19.0503C24.4825 18.6983 24.6166 18.2625 24.6166 17.8284C24.6166 17.3406 24.4657 16.8881 24.1806 16.5194C24.1572 16.496 24.1115 16.4462 24.0519 16.3813C23.9403 16.2599 23.7802 16.0856 23.6272 15.9327C22.2522 14.4577 18.6636 12.0442 16.7854 11.3067C16.5004 11.191 15.7793 10.9379 15.3936 10.9212C15.0247 10.9212 14.6725 11.005 14.3371 11.1726C13.9179 11.4072 13.5825 11.776 13.3981 12.2118C13.2807 12.5135 13.0962 13.4186 13.0962 13.4353C12.9118 14.4242 12.8111 16.0333 12.8111 17.81C12.8111 19.5045 12.9118 21.0448 13.0627 22.0505C13.0668 22.0546 13.0813 22.1266 13.1037 22.2383C13.1718 22.578 13.3137 23.2857 13.4651 23.5758C13.8341 24.2797 14.5551 24.7155 15.3265 24.7155H15.3936C15.8967 24.6987 16.9531 24.263 16.9531 24.2462C18.7306 23.5087 22.2354 21.2124 23.644 19.6872L23.7446 19.5866Z" fill="white"/>
</svg>
