<svg width="29" height="23" viewBox="0 0 29 23" fill="none" xmlns="http://www.w3.org/2000/svg">
<path d="M25.4872 15.366L27.5073 19.7655C27.5501 19.8588 27.5636 19.9629 27.546 20.064C27.5284 20.1651 27.4806 20.2585 27.4088 20.3319C27.337 20.4052 27.2447 20.4551 27.144 20.4749C27.0433 20.4947 26.939 20.4835 26.8448 20.4427L21.0135 17.9172C20.4198 18.0901 19.8134 18.2158 19.1999 18.2931C17.8858 18.4613 16.5525 18.4004 15.2592 18.1131C16.0876 17.0838 16.6096 15.842 16.7655 14.53C16.8788 13.533 16.7856 12.5234 16.4919 11.564C16.1982 10.6046 15.7101 9.71593 15.0582 8.95326C13.7056 7.34324 11.796 6.30216 9.70995 6.03763C9.33443 5.98768 8.95604 5.96244 8.57721 5.96209H8.51082C8.89856 5.11798 9.40928 4.33602 10.0263 3.64167C11.814 1.65838 14.2644 0.396086 16.9171 0.0919119C17.4003 0.0311475 17.8869 0.000564151 18.374 0.000340304C20.7661 -0.0188972 23.0963 0.760102 24.9959 2.21408C25.8941 2.89897 26.6486 3.75415 27.2161 4.73075C27.7836 5.70735 28.1531 6.78621 28.3035 7.90569C28.4847 9.34281 28.2847 10.8023 27.7234 12.1377C27.2097 13.3571 26.4482 14.4564 25.4872 15.366Z" fill="url(#paint0_linear_1_106)"/>
<path d="M15.6584 6.72449C15.7151 6.24547 15.9071 5.79252 16.2119 5.41868C16.5668 4.96984 17.0325 4.62113 17.563 4.40682C18.1803 4.15376 18.8519 4.0619 19.5144 4.13989C20.133 4.18566 20.7331 4.37134 21.2694 4.6829C21.734 4.95131 22.1157 5.34261 22.3724 5.81381C22.6105 6.25349 22.7117 6.75429 22.6631 7.25193C22.637 7.61475 22.5202 7.96521 22.3234 8.27113C22.1453 8.54181 21.9274 8.78401 21.6769 8.9895C21.4351 9.18516 21.0032 9.51238 20.3812 9.97115C20.2359 10.0785 20.0967 10.1937 19.9641 10.3164C19.8724 10.3998 19.7912 10.494 19.7223 10.597C19.6689 10.6798 19.624 10.7677 19.5881 10.8594C19.5543 10.9478 19.5002 11.1039 19.4275 11.3273C19.4113 11.4292 19.3751 11.5269 19.321 11.6147C19.2669 11.7025 19.1959 11.7788 19.1122 11.839C19.0284 11.8993 18.9336 11.9424 18.8332 11.9659C18.7327 11.9893 18.6286 11.9926 18.5268 11.9756C18.4139 11.9679 18.3036 11.9378 18.2024 11.8871C18.1011 11.8364 18.011 11.7661 17.9371 11.6803C17.8579 11.5779 17.8007 11.4602 17.7691 11.3346C17.7376 11.209 17.7325 11.0782 17.754 10.9505C17.7954 10.2934 18.0951 9.67946 18.5877 9.2427C18.8707 8.99593 19.1659 8.76365 19.4723 8.54675C19.7953 8.31386 20.0294 8.13728 20.1747 8.01701C20.319 7.89789 20.446 7.7592 20.5519 7.60495C20.6581 7.45129 20.7224 7.27269 20.7387 7.08665C20.7583 6.90885 20.7392 6.72892 20.6828 6.55918C20.6264 6.38943 20.534 6.23389 20.4118 6.10318C20.1426 5.81258 19.7708 5.63819 19.3752 5.61693C19.1715 5.58006 18.9623 5.58602 18.761 5.63442C18.5597 5.68282 18.3706 5.77261 18.2059 5.89806C17.8909 6.20464 17.6443 6.57446 17.4825 6.98318C17.4297 7.19742 17.3026 7.38595 17.1237 7.51511C16.9448 7.64426 16.7258 7.70563 16.5059 7.68827C16.3824 7.67906 16.2622 7.64422 16.1529 7.58596C16.0437 7.52771 15.9477 7.44731 15.8713 7.34992C15.7961 7.26547 15.7386 7.16683 15.7021 7.05982C15.6656 6.9528 15.6509 6.83957 15.6588 6.72678L15.6584 6.72449ZM18.3396 14.6344C18.0424 14.6109 17.7648 14.4771 17.5612 14.2594C17.4548 14.1435 17.3756 14.0052 17.3297 13.8546C17.2837 13.7041 17.2721 13.5451 17.2957 13.3895C17.3067 13.2397 17.3487 13.0939 17.4191 12.9612C17.4895 12.8286 17.5867 12.712 17.7045 12.6189C17.822 12.5227 17.9577 12.4511 18.1035 12.4085C18.2492 12.3658 18.4021 12.353 18.5529 12.3708C18.702 12.3827 18.8472 12.4244 18.9798 12.4935C19.1124 12.5625 19.2298 12.6575 19.3251 12.7728C19.4203 12.8881 19.4914 13.0213 19.5341 13.1646C19.5769 13.3079 19.5904 13.4584 19.574 13.607C19.5673 13.7631 19.5262 13.9158 19.4537 14.0542C19.3813 14.1927 19.2791 14.3134 19.1546 14.4078C18.9216 14.5847 18.6301 14.6665 18.3391 14.6367" fill="white"/>
<path d="M16.4592 14.6119C16.3007 15.8745 15.7855 17.0657 14.9739 18.0458C14.5157 18.6008 13.9802 19.0873 13.3838 19.4903C13.0029 19.7496 12.6009 19.9763 12.1819 20.168C10.6662 20.8518 8.9896 21.0988 7.34102 20.8813C6.86329 20.8214 6.3909 20.7247 5.92808 20.592L1.35546 22.5722C1.29189 22.5998 1.22331 22.614 1.15401 22.6138C1.06895 22.614 0.985213 22.5928 0.910524 22.5521C0.835836 22.5114 0.772603 22.4526 0.726661 22.381C0.680718 22.3094 0.653546 22.2274 0.647654 22.1425C0.641761 22.0577 0.657338 21.9727 0.692945 21.8955L2.2579 18.4872C1.51221 17.7694 0.920264 16.9075 0.518044 15.9539C0.067337 14.8816 -0.0934064 13.7097 0.0519466 12.5557C0.172756 11.657 0.469468 10.791 0.925125 10.0072C1.38078 9.22328 1.98645 8.53687 2.70751 7.98717C3.7083 7.21196 4.87218 6.67433 6.11122 6.41489C6.7341 6.28165 7.36931 6.21459 8.00628 6.21481C8.13662 6.21481 8.26726 6.2177 8.39821 6.2235C8.65598 6.23403 8.91421 6.25556 9.17061 6.28806C10.237 6.41922 11.2719 6.73692 12.2282 7.22666C13.1574 7.70249 13.9897 8.34751 14.6823 9.1286C15.355 9.8613 15.8619 10.7303 16.1685 11.6765C16.4751 12.6227 16.5743 13.6239 16.4592 14.6119Z" fill="url(#paint1_linear_1_106)"/>
<path d="M8.40093 15.7845C8.43308 15.845 8.48544 15.8922 8.54887 15.918C8.61231 15.9438 8.68278 15.9464 8.74798 15.9255H8.7576C8.91968 15.8935 9.03643 15.7813 9.02911 15.6687C8.93754 14.3198 8.84596 13.0635 8.83177 11.8227C8.82582 11.4862 8.82902 11.2623 8.81849 11.0952C8.82449 11.0401 8.82755 10.9848 8.82765 10.9294C8.86013 10.7799 8.85871 10.6251 8.8235 10.4762C8.78829 10.3274 8.7202 10.1883 8.6242 10.0692C8.5282 9.95009 8.40675 9.85401 8.26876 9.788C8.13077 9.72199 7.97974 9.68773 7.82677 9.68773C7.67381 9.68773 7.52279 9.72199 7.3848 9.788C7.24681 9.85401 7.12535 9.95009 7.02935 10.0692C6.93336 10.1883 6.86525 10.3274 6.83005 10.4762C6.79484 10.6251 6.79343 10.7799 6.8259 10.9294C6.82506 11.1318 6.86573 11.3322 6.94541 11.5182C6.9976 11.6684 7.07497 11.8616 7.17753 12.1359C7.63997 13.2924 8.00443 14.4966 8.40185 15.7873" fill="white"/>
<path d="M9.88294 17.0609C9.87906 16.946 9.85174 16.8331 9.80265 16.7291C9.75356 16.6252 9.68374 16.5323 9.59748 16.4563C9.51121 16.3803 9.41032 16.3227 9.301 16.2871C9.19168 16.2514 9.07623 16.2385 8.96174 16.2491C8.84897 16.2564 8.73885 16.2865 8.63812 16.3377C8.53739 16.389 8.44816 16.4602 8.37588 16.547C8.30359 16.6339 8.24977 16.7346 8.21769 16.8429C8.18562 16.9513 8.17597 17.065 8.18933 17.1772C8.1885 17.2894 8.21096 17.4006 8.25529 17.5037C8.29962 17.6068 8.36486 17.6996 8.44687 17.7762C8.52889 17.8528 8.6259 17.9115 8.73178 17.9487C8.83766 17.9859 8.95011 18.0007 9.062 17.9922H9.08123C9.19691 17.9895 9.31073 17.9625 9.41533 17.913C9.51993 17.8635 9.613 17.7927 9.68851 17.705C9.76402 17.6173 9.8203 17.5148 9.85371 17.404C9.88712 17.2932 9.89692 17.1767 9.88248 17.0618" fill="white"/>
<defs>
<linearGradient id="paint0_linear_1_106" x1="11.9859" y1="10.2422" x2="28.3684" y2="10.2422" gradientUnits="userSpaceOnUse">
<stop stop-color="#F3704C"/>
<stop offset="0.488" stop-color="#F3704C"/>
<stop offset="1" stop-color="#EF3B48"/>
</linearGradient>
<linearGradient id="paint1_linear_1_106" x1="19.8564" y1="14.4143" x2="-1.13893" y2="14.4143" gradientUnits="userSpaceOnUse">
<stop stop-color="#F3704C"/>
<stop offset="0.61" stop-color="#F3704C"/>
<stop offset="1" stop-color="#EF3B48"/>
</linearGradient>
</defs>
</svg>
