<svg width="30" height="31" viewBox="0 0 30 31" fill="none" xmlns="http://www.w3.org/2000/svg">
<path d="M15 30.9573C23.2842 30.9573 29.9999 24.2416 29.9999 15.9573C29.9999 7.67307 23.2842 0.957367 15 0.957367C6.71571 0.957367 0 7.67307 0 15.9573C0 24.2416 6.71571 30.9573 15 30.9573Z" fill="#FD4438"/>
<path d="M18.9294 15.4855C18.9569 16.5722 18.5521 17.6253 17.8037 18.4137C17.0554 19.2021 16.0247 19.6612 14.9381 19.6903V19.6903C13.8514 19.6614 12.8207 19.2023 12.0723 18.4139C11.3239 17.6255 10.919 16.5722 10.9467 15.4855V11.983C10.919 10.8963 11.3239 9.8431 12.0723 9.0547C12.8207 8.26629 13.8514 7.80721 14.9381 7.77829C16.0247 7.80739 17.0554 8.26654 17.8037 9.05491C18.5521 9.84327 18.9569 10.8964 18.9294 11.983V15.4855Z" stroke="white" stroke-width="1.36363"/>
<path d="M20.8691 16.6685C20.7412 18.1334 20.0652 19.4963 18.9761 20.4844C17.887 21.4725 16.4652 22.0133 14.9947 21.9985C13.5132 22.0503 12.0698 21.5221 10.9711 20.527C9.87232 19.5318 9.20446 18.1479 9.10974 16.6685" stroke="white" stroke-width="1.36363" stroke-linecap="round"/>
<path d="M12.8148 24.2952H17.1382" stroke="white" stroke-width="1.36363" stroke-linecap="round"/>
<path d="M14.976 24.2953V22.1339" stroke="white" stroke-width="1.36363" stroke-linecap="round"/>
</svg>
