<svg width="14" height="14" viewBox="0 0 14 14" fill="none" xmlns="http://www.w3.org/2000/svg">
<path d="M13.4211 12.6788L10.3961 9.65377C11.2574 8.60195 11.6814 7.25925 11.5803 5.90353C11.4792 4.54781 10.8607 3.28284 9.85294 2.3704C8.84513 1.45797 7.52512 0.967905 6.16605 1.00163C4.80698 1.03536 3.5129 1.59029 2.55159 2.5516C1.59029 3.5129 1.03536 4.80698 1.00163 6.16605C0.967905 7.52512 1.45797 8.84514 2.3704 9.85294C3.28284 10.8607 4.54781 11.4792 5.90353 11.5803C7.25925 11.6814 8.60195 11.2574 9.65377 10.3961L12.6819 13.4148C12.7799 13.5132 12.913 13.5687 13.0519 13.569C13.1909 13.5693 13.3242 13.5144 13.4226 13.4163C13.5211 13.3183 13.5765 13.1852 13.5768 13.0463C13.5771 12.9074 13.5222 12.7741 13.4242 12.6756L13.4211 12.6788ZM6.29616 10.54C5.45635 10.54 4.6354 10.2909 3.93713 9.82435C3.23885 9.35778 2.69461 8.69462 2.37323 7.91874C2.05185 7.14285 1.96776 6.2891 2.1316 5.46542C2.29544 4.64175 2.69985 3.88516 3.29368 3.29132C3.88752 2.69749 4.64411 2.29308 5.46778 2.12924C6.29145 1.9654 7.14521 2.04949 7.9211 2.37087C8.69698 2.69225 9.36014 3.23649 9.82671 3.93477C10.2933 4.63305 10.5423 5.454 10.5423 6.29381C10.5407 7.4189 10.0932 8.49749 9.29792 9.29334C8.50266 10.0892 7.4244 10.5375 6.29931 10.54H6.29616Z" fill="#8295A2" stroke="#8295A2" stroke-width="0.393162"/>
</svg>
