<svg width="19" height="21" viewBox="0 0 19 21" fill="none" xmlns="http://www.w3.org/2000/svg">
<path fill-rule="evenodd" clip-rule="evenodd" d="M17.9023 12.5788C18.26 12.7688 18.536 13.0688 18.7301 13.3688C19.1083 13.9888 19.0776 14.7488 18.7097 15.4188L17.9943 16.6188C17.6162 17.2588 16.911 17.6588 16.1855 17.6588C15.8278 17.6588 15.4292 17.5588 15.1022 17.3588C14.8365 17.1888 14.5299 17.1288 14.2029 17.1288C13.1911 17.1288 12.3429 17.9588 12.3122 18.9488C12.3122 20.0988 11.372 20.9988 10.1968 20.9988H8.80692C7.62145 20.9988 6.68125 20.0988 6.68125 18.9488C6.66081 17.9588 5.81259 17.1288 4.80085 17.1288C4.46361 17.1288 4.15702 17.1888 3.90153 17.3588C3.5745 17.5588 3.16572 17.6588 2.81825 17.6588C2.08245 17.6588 1.37729 17.2588 0.99917 16.6188L0.29402 15.4188C-0.0841044 14.7688 -0.104544 13.9888 0.273581 13.3688C0.437094 13.0688 0.743681 12.7688 1.09115 12.5788C1.37729 12.4388 1.56125 12.2088 1.73498 11.9388C2.24596 11.0788 1.93937 9.94878 1.07071 9.43878C0.0589696 8.86878 -0.268057 7.59878 0.314459 6.60878L0.99917 5.42878C1.59191 4.43878 2.85913 4.08878 3.88109 4.66878C4.77019 5.14878 5.925 4.82878 6.4462 3.97878C6.60972 3.69878 6.70169 3.39878 6.68125 3.09878C6.66081 2.70878 6.77323 2.33878 6.9674 2.03878C7.34553 1.41878 8.03024 1.01878 8.77627 0.998779H10.2172C10.9735 0.998779 11.6582 1.41878 12.0363 2.03878C12.2203 2.33878 12.3429 2.70878 12.3122 3.09878C12.2918 3.39878 12.3838 3.69878 12.5473 3.97878C13.0685 4.82878 14.2233 5.14878 15.1226 4.66878C16.1344 4.08878 17.4118 4.43878 17.9943 5.42878L18.679 6.60878C19.2718 7.59878 18.9447 8.86878 17.9228 9.43878C17.0541 9.94878 16.7475 11.0788 17.2687 11.9388C17.4322 12.2088 17.6162 12.4388 17.9023 12.5788ZM6.60972 11.0088C6.60972 12.5788 7.9076 13.8288 9.51208 13.8288C11.1165 13.8288 12.3838 12.5788 12.3838 11.0088C12.3838 9.43878 11.1165 8.17878 9.51208 8.17878C7.9076 8.17878 6.60972 9.43878 6.60972 11.0088Z" fill="#92A2AD"/>
</svg>
