<svg width="53" height="53" viewBox="0 0 53 53" fill="none" xmlns="http://www.w3.org/2000/svg">
<path d="M52.2343 26.0233C52.2343 11.651 40.5833 0 26.211 0C11.8388 0 0.187744 11.651 0.187744 26.0233C0.187744 40.3955 11.8388 52.0465 26.211 52.0465C40.5833 52.0465 52.2343 40.3955 52.2343 26.0233Z" fill="white"/>
<path d="M37.5229 20.7859C37.4966 20.7322 37.4568 20.6863 37.4075 20.6525C37.3582 20.6187 37.3009 20.5983 37.2414 20.5931L14.9516 19.2942L23.9168 27.0464L24.4671 37.7806C24.5395 37.8668 24.6303 37.9356 24.733 37.9817C24.8356 38.0279 24.9474 38.0504 25.0599 38.0474C25.1724 38.0437 25.2827 38.0147 25.3824 37.9624C25.4822 37.9101 25.5687 37.8358 25.6357 37.7453L37.4786 21.2023C37.5271 21.1455 37.5573 21.0753 37.5653 21.001C37.5732 20.9267 37.5584 20.8517 37.5229 20.7859V20.7859Z" stroke="#62C058" stroke-width="2.60187" stroke-linecap="round" stroke-linejoin="round"/>
<path d="M23.9209 27.0484L37.2416 20.5931" stroke="#62C058" stroke-width="2.60187" stroke-linecap="round" stroke-linejoin="round"/>
</svg>
