<svg width="186" height="138" viewBox="0 0 186 138" fill="none" xmlns="http://www.w3.org/2000/svg">
<path d="M96.0086 137.271C142.192 137.271 179.631 134.417 179.631 130.897C179.631 127.376 142.192 124.522 96.0086 124.522C49.825 124.522 12.3857 127.376 12.3857 130.897C12.3857 134.417 49.825 137.271 96.0086 137.271Z" fill="#A1CE58"/>
<path d="M14.8778 90.1117C14.1204 82.3372 14.7283 74.3394 12.489 66.8574C11.9452 64.618 10.7953 62.5717 9.16528 60.9428C8.33523 60.146 7.28632 59.6149 6.15276 59.4177C5.0192 59.2204 3.85257 59.3659 2.80214 59.8354C1.78009 60.4957 1.00156 61.4715 0.584902 62.6147C0.168248 63.7579 0.136258 65.0059 0.493796 66.169C1.27872 68.4916 2.88951 70.4451 5.02012 71.6581C2.7775 71.6121 1.18384 74.2063 1.53707 76.4227C2.09257 78.6208 3.47895 80.5178 5.40457 81.7146C4.76672 82.445 4.30901 83.3147 4.06819 84.2541C3.82738 85.1934 3.81016 86.176 4.01792 87.1232C4.44903 89.0133 5.17773 90.8228 6.17676 92.4841C10.409 100.454 15.4742 110.024 24.31 113.645C25.046 109.3 20.6216 107.121 18.6681 103.589C16.5034 99.4001 15.2138 94.8147 14.8778 90.1117Z" fill="#DDE3E7"/>
<path d="M77.73 84.7683C74.357 76.7031 69.2113 69.3246 64.0935 62.0217C63.4953 60.9719 62.5979 60.1243 61.5157 59.5869C60.5154 59.2826 59.4612 59.1985 58.4253 59.3404L35.0297 60.8634L31.7093 61.698C25.9626 69.397 21.5104 77.9819 18.5279 87.1145C16.8058 91.9659 15.9483 97.0819 15.9945 102.23C16.0872 106.472 17.2015 110.63 19.2431 114.35C21.2846 118.071 24.193 121.244 27.7219 123.601C33.9257 127.544 41.2417 127.566 48.331 127.929C55.6753 128.291 63.0125 127.084 69.8537 124.388C73.4313 123.115 76.5018 120.72 78.6073 117.56C84.3231 108.205 81.6747 94.2005 77.73 84.7683Z" fill="#E8C59E"/>
<path d="M26.0185 11.5868C24.0781 10.0096 21.2851 8.05281 19.9395 9.08787C18.8059 9.95699 18.8618 12.1471 18.7106 13.3957C18.4773 15.2999 18.1487 24.3131 18.1224 30.6204C21.5967 29.0992 24.9759 27.3693 28.2414 25.4401C30.6434 23.8337 32.8932 22.0107 34.9627 19.9938C32.6001 17.6246 30.2983 15.1799 27.7337 13.026C27.3558 12.7187 26.7479 12.1799 26.0185 11.5868Z" fill="#E8C59E"/>
<path d="M69.2001 11.5868C71.1388 10.0096 73.9318 8.05281 75.279 9.08787C76.4127 9.95699 76.3568 12.1471 76.5096 13.3957C76.7413 15.2999 77.0715 24.3131 77.0978 30.6204C73.6228 29.0995 70.2431 27.3696 66.9772 25.4401C64.5752 23.8337 62.3253 22.0107 60.2559 19.9938C62.6185 17.6246 64.9202 15.1799 67.4849 13.026C67.8628 12.7187 68.469 12.1799 69.2001 11.5868Z" fill="#E8C59E"/>
<path d="M73.7707 13.0964C71.947 13.1555 68.9256 17.0395 68.3785 17.8461C68.0499 18.339 65.9781 20.9678 64.7328 23.1036L68.9355 25.4037L72.1261 27.1436C72.9456 27.5617 73.6695 28.1452 74.252 28.8572C74.9087 24.9153 75.2505 20.9272 75.274 16.931C75.3374 15.9223 75.2052 14.9109 74.8846 13.9524C74.8235 13.7045 74.68 13.4848 74.4776 13.3292C74.2752 13.1737 74.0259 13.0916 73.7707 13.0964Z" fill="#DDE3E7"/>
<path d="M21.9985 13.1228C23.8156 13.2871 26.6151 17.3369 27.1162 18.1682C27.4202 18.6743 29.3359 21.4263 30.4596 23.6245L26.1354 25.6782L22.8495 27.234C22.0072 27.6065 21.2514 28.1497 20.6299 28.8293C20.1946 24.856 20.0765 20.8542 20.2766 16.8621C20.2702 15.8498 20.4588 14.8458 20.832 13.9048C20.91 13.6622 21.0676 13.4529 21.2793 13.311C21.491 13.169 21.7444 13.1028 21.9985 13.1228Z" fill="#DDE3E7"/>
<path d="M73.6381 26.3469C65.7717 19.504 54.3844 17.2778 44.2293 17.9678C34.1087 18.648 23.1043 22.527 17.2636 31.3185C16.2778 32.807 15.7455 34.4187 14.8829 35.9467C13.5127 38.37 12.1195 40.7802 10.7378 43.1954C10.1305 44.0277 9.82667 45.043 9.87688 46.0721C10.051 47.0792 11.321 47.9024 12.1244 47.2698C11.2437 48.6609 10.6241 50.2009 10.2958 51.8142C10.1999 52.118 10.1664 52.438 10.1971 52.755C10.2279 53.0721 10.3224 53.3796 10.4749 53.6592C11.1649 54.6154 12.6518 54.2014 13.7132 53.6921C13.3977 54.7661 13.2319 55.8785 13.2203 56.9978C13.2182 57.5577 13.331 58.1121 13.5517 58.6267C13.7724 59.1413 14.0963 59.6051 14.5034 59.9896C14.9223 60.3618 15.4539 60.5828 16.0133 60.6174C16.5726 60.6519 17.1274 60.4981 17.5889 60.1802C17.7721 61.1806 18.2144 62.1153 18.8717 62.8914C19.5289 63.6675 20.3782 64.2576 21.3348 64.6029C22.6923 64.8401 24.0293 65.1823 25.3337 65.6265C26.6777 66.3477 27.9197 67.2481 29.354 67.8855C32.3511 69.1983 35.488 70.1651 38.7041 70.7673C44.5342 71.9973 50.5618 71.9474 56.3707 70.6211C60.9776 69.6501 65.391 67.92 69.4305 65.5016C70.542 64.6701 71.8387 64.121 73.2093 63.9014C73.5987 63.8817 73.9897 63.9277 74.3774 63.8849C74.8131 63.8208 75.2297 63.6629 75.5985 63.4221C75.9672 63.1812 76.2793 62.8632 76.5133 62.4901C76.7071 62.2124 77.6338 59.6741 77.7373 59.6692C78.59 59.6265 79.2816 60.6106 80.1261 60.466C80.8276 60.3477 81.1497 59.5378 81.3156 58.8428C81.8568 56.5875 82.0971 54.2705 82.0303 51.9522C82.4377 52.7967 83.8162 52.6407 84.3649 51.88C84.8259 51.0532 84.9613 50.0839 84.7444 49.1625C84.5582 47.1241 83.9554 45.1457 82.9733 43.3498C83.6157 43.4089 84.3189 43.8985 84.8332 43.514C85.3113 43.1559 85.1174 42.4083 84.866 41.8711C83.3874 38.7232 81.079 36.433 79.28 33.5611C77.7822 30.8801 75.8791 28.4466 73.6381 26.3469Z" fill="#E8C59E"/>
<path d="M34.1564 89.5316C34.0186 100.672 35.9524 111.74 39.8591 122.174C40.7069 123.678 41.4486 125.24 42.0787 126.848L42.0869 126.979L41.8158 127.116C41.1952 127.169 40.5933 127.356 40.0513 127.663C39.6915 127.865 39.3235 128.266 39.5075 128.634C39.6488 128.916 40.0217 128.962 40.329 128.98C42.8969 129.071 48.2151 129.759 48.3071 126.041C48.6357 113.64 48.3219 98.4397 48.547 89.5316" fill="#E8C59E"/>
<g style="mix-blend-mode:multiply" opacity="0.53">
<path d="M33.6862 89.5281V89.9141C33.5895 100.984 35.531 111.977 39.4135 122.344C40.2474 123.831 40.9828 125.371 41.6151 126.954L42.0718 126.848L41.6036 126.877L41.6118 127.009L42.08 126.979L41.8779 126.567L41.6068 126.703L41.8171 127.124L41.7761 126.655C41.088 126.715 40.4208 126.922 39.8193 127.262C39.6168 127.375 39.436 127.524 39.2854 127.7C39.102 127.903 38.9962 128.165 38.9863 128.438L39.0948 128.865L39.5088 128.642L39.0882 128.854C39.153 128.976 39.2415 129.083 39.3484 129.171C39.4553 129.258 39.5785 129.324 39.7109 129.363C39.9086 129.423 40.1138 129.455 40.3204 129.457C41.0745 129.483 42.0997 129.565 43.1709 129.565C44.4173 129.619 45.6615 129.419 46.8281 128.977C47.3749 128.746 47.8505 128.374 48.2066 127.899C48.5827 127.36 48.785 126.719 48.7865 126.062C48.9229 121.004 48.9508 115.485 48.9508 110.117C48.9508 106.45 48.9377 102.856 48.9377 99.5287C48.9377 95.7647 48.9525 92.3424 49.0264 89.551C49.0297 89.4264 48.9833 89.3056 48.8975 89.2152C48.8117 89.1248 48.6935 89.0722 48.5688 89.0689C48.4442 89.0656 48.3234 89.1119 48.233 89.1978C48.1425 89.2836 48.0899 89.4018 48.0866 89.5265C48.0127 92.3343 47.9963 95.7614 47.9963 99.5287C47.9963 102.859 48.0111 106.454 48.0111 110.117C48.0111 115.482 47.9831 120.994 47.8468 126.036C47.8514 126.505 47.7114 126.964 47.4459 127.35C47.0121 127.877 46.4076 128.236 45.7372 128.364C44.896 128.558 44.0339 128.646 43.1709 128.627C42.1457 128.627 41.1402 128.548 40.3533 128.52L40.005 128.471L39.9277 128.431V128.42L39.8916 128.44H39.9343V128.42L39.8982 128.44H39.9409L39.9507 128.407C40.033 128.267 40.1525 128.154 40.2958 128.078C40.7788 127.803 41.3157 127.634 41.8697 127.585L42.034 127.538L42.3067 127.401C42.3889 127.36 42.4572 127.295 42.503 127.216C42.5489 127.136 42.5703 127.045 42.5647 126.953L42.5565 126.821L42.5466 126.743C41.9171 125.111 41.168 123.528 40.3056 122.006C36.4618 111.748 34.5393 100.87 34.6342 89.9158V89.5346C34.6342 89.41 34.5847 89.2905 34.4965 89.2024C34.4084 89.1142 34.2889 89.0648 34.1643 89.0648C34.0397 89.0648 33.9201 89.1142 33.832 89.2024C33.7439 89.2905 33.6944 89.41 33.6944 89.5346L33.6862 89.5281Z" fill="#E8C59E"/>
</g>
<path d="M65.0944 89.5316C65.2321 100.672 63.2984 111.74 59.3917 122.174C58.5439 123.678 57.8022 125.24 57.1721 126.848L57.1638 126.979L57.4349 127.116C58.056 127.17 58.6583 127.356 59.2011 127.663C59.5576 127.865 59.9273 128.266 59.7433 128.634C59.602 128.916 59.229 128.962 58.9119 128.98C56.3457 129.071 51.0356 129.759 50.9354 126.041C50.6068 113.64 50.9206 98.4397 50.6956 89.5316" fill="#E8C59E"/>
<g style="mix-blend-mode:multiply" opacity="0.53">
<path d="M64.6247 89.5319V89.9147C64.7185 100.869 62.7966 111.746 58.9549 122.005C58.0931 123.526 57.3446 125.11 56.7156 126.741L56.7041 126.82L56.6958 126.952C56.6901 127.044 56.7117 127.135 56.7579 127.215C56.8041 127.295 56.8728 127.359 56.9554 127.4L57.2265 127.537L57.3908 127.584C57.9449 127.633 58.4818 127.801 58.9648 128.077L59.2408 128.301L59.3081 128.402L59.318 128.435L59.7402 128.641L59.3213 128.429L59.2424 128.468L58.8925 128.517C58.1055 128.545 57.1 128.624 56.0764 128.624C54.9627 128.675 53.85 128.503 52.8037 128.118C52.4067 127.956 52.0605 127.69 51.8015 127.348C51.536 126.961 51.396 126.502 51.4006 126.033C51.2642 120.991 51.2363 115.479 51.2363 110.115C51.2363 106.451 51.2495 102.856 51.2495 99.526C51.2495 95.7587 51.233 92.3314 51.164 89.5253C51.161 89.4007 51.1086 89.2823 51.0183 89.1964C50.928 89.1104 50.8073 89.0639 50.6826 89.0669C50.558 89.07 50.4397 89.1224 50.3538 89.2127C50.2678 89.303 50.2212 89.4237 50.2243 89.5483C50.2916 92.3414 50.3081 95.762 50.3081 99.526C50.3081 102.855 50.2965 106.449 50.2965 110.115C50.2965 115.482 50.3261 121.003 50.4608 126.06C50.4613 126.716 50.6625 127.357 51.0375 127.896C51.5976 128.601 52.3871 129.087 53.2686 129.27C54.1881 129.484 55.1309 129.582 56.0748 129.562C57.1444 129.562 58.1712 129.48 58.9237 129.454C59.1313 129.452 59.3377 129.42 59.5365 129.36C59.6686 129.321 59.7916 129.256 59.8983 129.168C60.0049 129.081 60.093 128.973 60.1575 128.851L60.2528 128.442C60.243 128.169 60.1378 127.908 59.9554 127.704C59.8046 127.528 59.6245 127.38 59.4231 127.265C58.8218 126.926 58.1545 126.719 57.4664 126.659L57.4253 127.128L57.6356 126.707L57.3629 126.571L57.1542 126.991L57.6225 127.021L57.6307 126.889L57.1624 126.86L57.6192 126.966C58.2507 125.383 58.9862 123.843 59.8207 122.356C63.7032 111.989 65.6468 100.996 65.5546 89.9262V89.5433C65.5546 89.4187 65.5051 89.2992 65.417 89.2111C65.3289 89.123 65.2094 89.0735 65.0847 89.0735C64.9601 89.0735 64.8406 89.123 64.7525 89.2111C64.6644 89.2992 64.6149 89.4187 64.6149 89.5433L64.6247 89.5319Z" fill="#E8C59E"/>
</g>
<path d="M47.4405 55.3908C47.4514 56.1278 47.2142 56.847 46.7669 57.4329C46.5792 57.6277 46.3533 57.7818 46.1035 57.8855C45.8536 57.9892 45.5851 58.0404 45.3146 58.0359C44.9704 58.0386 44.6312 57.9539 44.3288 57.7895C43.9773 57.5805 43.6863 57.2834 43.4846 56.9275C43.283 56.5717 43.1775 56.1695 43.1787 55.7605L43.1935 55.5173L42.9651 55.2117L42.6612 55.4401L42.6398 55.7686C42.6371 56.2736 42.7672 56.7704 43.0169 57.2092C43.2666 57.6481 43.6272 58.0136 44.0626 58.2693C44.4432 58.4779 44.8707 58.5858 45.3047 58.583C45.6504 58.588 45.9933 58.5214 46.312 58.3874C46.6306 58.2534 46.9181 58.0548 47.1563 57.8043C47.6878 57.1282 47.9745 56.2919 47.9696 55.4319C47.9704 55.3627 47.9446 55.2959 47.8975 55.2452C47.8505 55.1945 47.7857 55.1639 47.7166 55.1597C47.6475 55.1554 47.5795 55.1779 47.5266 55.2224C47.4737 55.267 47.4399 55.3302 47.4323 55.399L47.4405 55.3908Z" fill="#211F1F"/>
<path d="M47.5037 55.2625C47.5558 56.1439 47.8906 56.9851 48.4583 57.6613C48.6953 57.9107 48.9797 58.1104 49.2948 58.2486C49.6099 58.3868 49.9494 58.4609 50.2935 58.4663C51.0286 58.4263 51.7183 58.0977 52.2124 57.5519C52.7065 57.0061 52.9652 56.2872 52.932 55.5517L52.9189 55.2231C52.9083 55.1561 52.8728 55.0955 52.8195 55.0535C52.7662 55.0114 52.699 54.9911 52.6313 54.9965C52.5636 55.0019 52.5005 55.0326 52.4545 55.0825C52.4085 55.1325 52.3831 55.198 52.3833 55.2658L52.3931 55.5435C52.4278 56.1365 52.2265 56.7191 51.8331 57.1642C51.4397 57.6093 50.8862 57.8807 50.2935 57.9192C50.0192 57.9123 49.7492 57.8507 49.4992 57.7378C49.2492 57.6249 49.0243 57.4632 48.8378 57.2621C48.3549 56.6661 48.0741 55.9318 48.036 55.1657L47.7288 54.9389L47.5037 55.2461V55.2625Z" fill="#211F1F"/>
<g style="mix-blend-mode:multiply" opacity="0.53">
<path d="M50.219 52.1299C52.3203 52.4108 48.9177 55.3402 47.9648 55.3747C47.5023 55.3407 47.0563 55.188 46.6702 54.9311C45.4495 54.292 43.8657 52.9596 45.461 52.3123C47.0156 51.9116 48.6382 51.8494 50.219 52.1299Z" fill="#E8C59E"/>
</g>
<g style="mix-blend-mode:multiply" opacity="0.53">
<path d="M65.7783 67.023C55.7372 71.086 44.6732 71.8905 34.1499 69.3231C34.0899 69.3084 34.0277 69.3058 33.9666 69.3152C33.9056 69.3246 33.847 69.3459 33.7942 69.3779C33.7414 69.41 33.6955 69.4521 33.659 69.5019C33.6225 69.5517 33.5961 69.6082 33.5815 69.6681C33.5668 69.7281 33.5641 69.7904 33.5735 69.8514C33.5829 69.9125 33.6042 69.971 33.6362 70.0238C33.6683 70.0766 33.7104 70.1226 33.7602 70.1591C33.81 70.1956 33.8665 70.2219 33.9265 70.2366C44.6403 72.8508 55.9048 72.0324 66.1283 67.897C66.2421 67.8491 66.3325 67.7582 66.3798 67.6441C66.4272 67.53 66.4277 67.4019 66.3812 67.2874C66.3348 67.173 66.2452 67.0814 66.1317 67.0325C66.0183 66.9837 65.8901 66.9814 65.775 67.0263L65.7783 67.023Z" fill="#E8C59E"/>
</g>
<path d="M73.6119 122.823C73.6998 125.116 73.6647 127.412 73.5067 129.701" stroke="#F57E25" stroke-width="0.962777" stroke-linecap="round" stroke-linejoin="round"/>
<path d="M73.3703 129.678C72.6483 130.004 71.9504 130.382 71.2822 130.808" stroke="#F57E25" stroke-width="0.962777" stroke-linecap="round" stroke-linejoin="round"/>
<path d="M73.5875 129.605C73.4775 130.232 73.4045 130.864 73.369 131.499" stroke="#F57E25" stroke-width="0.962777" stroke-linecap="round" stroke-linejoin="round"/>
<path d="M73.6577 129.701C74.3128 130.098 74.9006 130.598 75.3993 131.179" stroke="#F57E25" stroke-width="0.962777" stroke-linecap="round" stroke-linejoin="round"/>
<path d="M83.3664 122.823C83.4535 125.116 83.4184 127.412 83.2613 129.701" stroke="#F57E25" stroke-width="0.962777" stroke-linecap="round" stroke-linejoin="round"/>
<path d="M83.1249 129.678C82.4024 130.004 81.7046 130.381 81.0367 130.808" stroke="#F57E25" stroke-width="0.962777" stroke-linecap="round" stroke-linejoin="round"/>
<path d="M83.3433 129.605C83.2333 130.232 83.1603 130.864 83.1248 131.499" stroke="#F57E25" stroke-width="0.962777" stroke-linecap="round" stroke-linejoin="round"/>
<path d="M83.4109 129.701C84.0659 130.098 84.6538 130.598 85.1525 131.179" stroke="#F57E25" stroke-width="0.962777" stroke-linecap="round" stroke-linejoin="round"/>
<path d="M89.2199 100.071C88.8913 98.6189 91.9817 90.9283 94.0124 91.7104C94.9325 92.0636 94.0814 95.1063 93.8826 95.9212C94.4741 95.3298 97.6466 92.2066 98.4829 93.861C99.007 94.8977 96.8399 96.5636 96.536 97.6003C97.5759 97.293 99.5048 96.6425 100.479 97.436C101.524 98.2871 100.596 98.8046 99.6329 99.1842C97.7174 99.7824 95.8347 100.481 93.9927 101.277C93.1482 101.709 92.0573 102.506 91.06 102.35L89.2199 100.071Z" fill="#FFCF01"/>
<path d="M90.7663 121.254C89.1667 122.09 87.4675 122.719 85.7093 123.127C84.993 123.303 84.2652 123.456 83.5406 123.58C81.7902 123.886 80.0173 124.045 78.2405 124.055C76.5611 124.064 74.8831 123.958 73.218 123.74C72.7103 123.667 72.2322 123.589 71.7574 123.495C58.7781 120.957 61.1012 110.386 63.311 104.958C64.7699 101.378 65.69 97.7597 67.443 94.1551C68.6809 91.757 70.6542 89.8184 73.0738 88.6231C75.4934 87.4278 78.2321 87.0387 80.8889 87.5127C89.7116 88.7728 90.1289 95.32 90.8238 97.5002C91.6322 100.037 92.1727 102.649 93.0632 105.163C96.055 113.588 95.2746 118.785 90.7663 121.254Z" fill="#FFF200"/>
<g style="mix-blend-mode:multiply">
<path d="M66.1465 107.227C66.5378 105.85 66.7585 104.431 66.8037 103.001C66.8037 100.372 66.2862 100.553 65.3086 99.4375C64.6613 101.283 64.055 103.124 63.3075 104.958C62.2821 107.369 61.6995 109.945 61.5873 112.563C64.4707 113.371 65.6421 109.461 66.1465 107.227Z" fill="#F5F6F5"/>
</g>
<g style="mix-blend-mode:multiply">
<path d="M90.6309 107.555C91.0909 109.185 92.6024 113.394 94.8418 113.552C94.7066 110.677 94.1057 107.844 93.0625 105.163C92.4135 103.331 91.9485 101.445 91.4327 99.5766C88.7514 100.304 90.1462 105.831 90.6309 107.555Z" fill="#F5F6F5"/>
</g>
<path d="M81.2208 97.014C81.28 97.06 81.2898 97.1306 81.2208 97.2358C81.011 97.5454 80.7787 97.8393 80.5259 98.1148L80.1398 98.5436C79.8572 98.8558 79.5927 99.076 79.2361 99.0168C78.8024 98.9445 77.5571 97.3656 77.47 97.1603C77.3615 96.9007 77.7641 96.973 77.8807 96.9631C78.9939 96.9004 80.1101 96.9173 81.2208 97.014Z" fill="#F57E25"/>
<path d="M90.8942 99.5475C90.939 99.5347 90.9859 99.5307 91.0322 99.536C94.7009 100.537 101.932 105.759 101.624 107.317C101.427 108.311 99.9961 108.49 99.3242 107.848C99.7086 108.474 100.486 109.438 99.6938 110.148C98.8329 110.923 97.581 109.929 97.1587 109.203C97.3477 110.205 97.903 111.301 97.0717 111.832C95.8772 112.581 95.1708 110.994 95.0311 110.251C95.0525 111.007 94.4413 111.879 93.6018 111.73C92.7622 111.58 92.3843 110.32 92.1658 109.634C91.5448 107.68 90.9402 106.195 90.4046 104.153C89.9845 102.962 89.8483 101.69 90.007 100.438C90.0509 100.219 90.1585 100.017 90.3163 99.859C90.4741 99.7006 90.6751 99.5923 90.8942 99.5475Z" fill="#FFCF01"/>
<path d="M65.8046 99.5475C65.7598 99.5347 65.7129 99.5307 65.6666 99.536C61.9979 100.537 54.7672 105.759 55.0761 107.317C55.2716 108.311 56.7026 108.49 57.3762 107.848C56.9934 108.474 56.2147 109.438 57.0082 110.148C57.8675 110.923 59.1194 109.929 59.5417 109.203C59.3527 110.205 58.799 111.301 59.6304 111.832C60.8248 112.581 61.5296 110.994 61.6693 110.251C61.6479 111.007 62.2591 111.879 63.0986 111.73C63.9382 111.58 64.3161 110.32 64.5346 109.634C65.1556 107.68 65.7602 106.195 66.2975 104.153C66.7168 102.962 66.8529 101.69 66.6951 100.438C66.6507 100.218 66.5425 100.017 66.3841 99.8584C66.2257 99.7 66.0241 99.5919 65.8046 99.5475Z" fill="#FFCF01"/>
<path opacity="0.1" d="M47.6974 43.6641C47.5175 45.6532 46.5635 47.4921 45.0409 48.7846C43.5183 50.0771 41.549 50.7199 39.5571 50.5745C37.5652 50.4291 35.7101 49.5071 34.3914 48.0072C33.0726 46.5072 32.3958 44.5493 32.5067 42.5552" stroke="#211F1F" stroke-width="0.830446" stroke-linecap="round" stroke-linejoin="round"/>
<path opacity="0.1" d="M62.4151 43.6641C62.2351 45.6532 61.2811 47.4921 59.7586 48.7846C58.236 50.0771 56.2667 50.7199 54.2748 50.5745C52.2829 50.4291 50.4278 49.5071 49.109 48.0072C47.7903 46.5072 47.1135 44.5493 47.2244 42.5552" stroke="#211F1F" stroke-width="0.830446" stroke-linecap="round" stroke-linejoin="round"/>
<path d="M55.3061 34.2156C53.68 34.2244 52.0972 34.7404 50.7784 35.6917C49.4596 36.6429 48.4705 37.982 47.949 39.5223C47.3294 37.7547 46.1044 36.2634 44.4908 35.3124C42.8771 34.3614 40.979 34.0121 39.1326 34.3264C37.2861 34.6406 35.6104 35.5981 34.4022 37.0293C33.194 38.4605 32.5312 40.273 32.5312 42.146C32.5312 44.019 33.194 45.8317 34.4022 47.2629C35.6104 48.6941 37.2861 49.6516 39.1326 49.9658C40.979 50.28 42.8771 49.9307 44.4908 48.9798C46.1044 48.0288 47.3294 46.5375 47.949 44.7699C48.4468 46.1091 49.3017 47.2864 50.421 48.1743C51.5403 49.0623 52.8813 49.6269 54.2986 49.807C55.7159 49.9872 57.1555 49.776 58.4613 49.1963C59.7672 48.6165 60.8894 47.6905 61.7064 46.5184C62.5234 45.3464 63.0041 43.973 63.0962 42.5472C63.1883 41.1215 62.8884 39.6977 62.2291 38.4302C61.5697 37.1628 60.576 36.1 59.3556 35.357C58.1353 34.6141 56.7348 34.2193 55.3061 34.2156Z" fill="white"/>
<path d="M55.5397 47.7891C57.9833 47.7891 59.9642 45.7759 59.9642 43.2924C59.9642 40.8089 57.9833 38.7956 55.5397 38.7956C53.0961 38.7956 51.1152 40.8089 51.1152 43.2924C51.1152 45.7759 53.0961 47.7891 55.5397 47.7891Z" fill="#2899D5"/>
<path d="M55.705 44.7799C56.6777 44.7799 57.4663 43.9789 57.4663 42.9907C57.4663 42.0026 56.6777 41.2016 55.705 41.2016C54.7323 41.2016 53.9438 42.0026 53.9438 42.9907C53.9438 43.9789 54.7323 44.7799 55.705 44.7799Z" fill="#211F1F"/>
<path d="M36.6334 43.853C37.2105 43.853 37.6784 43.3779 37.6784 42.7917C37.6784 42.2055 37.2105 41.7303 36.6334 41.7303C36.0564 41.7303 35.5885 42.2055 35.5885 42.7917C35.5885 43.3779 36.0564 43.853 36.6334 43.853Z" fill="#FDF9E7"/>
<path d="M60.0332 47.0783C61.0622 47.0783 61.8963 46.2309 61.8963 45.1856C61.8963 44.1403 61.0622 43.293 60.0332 43.293C59.0042 43.293 58.1701 44.1403 58.1701 45.1856C58.1701 46.2309 59.0042 47.0783 60.0332 47.0783Z" fill="#FDF9E7"/>
<path d="M40.8253 47.7891C43.2689 47.7891 45.2498 45.7759 45.2498 43.2924C45.2498 40.8089 43.2689 38.7956 40.8253 38.7956C38.3817 38.7956 36.4008 40.8089 36.4008 43.2924C36.4008 45.7759 38.3817 47.7891 40.8253 47.7891Z" fill="#2899D5"/>
<path d="M40.9102 44.5729C41.8829 44.5729 42.6714 43.7718 42.6714 42.7837C42.6714 41.7956 41.8829 40.9945 40.9102 40.9945C39.9375 40.9945 39.149 41.7956 39.149 42.7837C39.149 43.7718 39.9375 44.5729 40.9102 44.5729Z" fill="#211F1F"/>
<path d="M44.2835 47.0785C45.3125 47.0785 46.1466 46.2312 46.1466 45.1859C46.1466 44.1406 45.3125 43.2932 44.2835 43.2932C43.2546 43.2932 42.4204 44.1406 42.4204 45.1859C42.4204 46.2312 43.2546 47.0785 44.2835 47.0785Z" fill="#FDF9E7"/>
<path opacity="0.1" d="M79.4016 94.5671C79.3229 95.1936 79.0068 95.7659 78.5185 96.1662C78.0301 96.5664 77.4067 96.764 76.777 96.718C76.1472 96.6721 75.5592 96.3862 75.1341 95.9193C74.709 95.4524 74.4793 94.8401 74.4924 94.2089" stroke="#211F1F" stroke-width="0.268713" stroke-linecap="round" stroke-linejoin="round"/>
<path opacity="0.1" d="M84.1581 94.5671C84.0834 95.197 83.7687 95.7738 83.2795 96.1776C82.7903 96.5814 82.1642 96.781 81.5315 96.7349C80.8989 96.6887 80.3084 96.4004 79.8829 95.9299C79.4574 95.4594 79.2298 94.843 79.2473 94.2089" stroke="#211F1F" stroke-width="0.268713" stroke-linecap="round" stroke-linejoin="round"/>
<path d="M81.8606 91.5151C81.3351 91.5178 80.8235 91.6846 80.3973 91.9921C79.9712 92.2996 79.6516 92.7325 79.4833 93.2303C79.2831 92.6592 78.8872 92.1773 78.3659 91.8701C77.8445 91.5628 77.2312 91.4499 76.6346 91.5514C76.0379 91.6529 75.4965 91.9624 75.1061 92.4248C74.7157 92.8872 74.5015 93.4729 74.5015 94.0781C74.5015 94.6833 74.7157 95.269 75.1061 95.7315C75.4965 96.1939 76.0379 96.5032 76.6346 96.6048C77.2312 96.7063 77.8445 96.5935 78.3659 96.2862C78.8872 95.9789 79.2831 95.497 79.4833 94.9258C79.6443 95.3583 79.9206 95.7384 80.2822 96.0251C80.6438 96.3117 81.0769 96.494 81.5347 96.552C81.9925 96.6101 82.4574 96.5417 82.8792 96.3544C83.3009 96.1671 83.6633 95.8679 83.9272 95.4894C84.191 95.1108 84.3463 94.6673 84.3761 94.2068C84.4058 93.7464 84.3091 93.2865 84.0962 92.8771C83.8833 92.4676 83.5624 92.1244 83.1684 91.8843C82.7743 91.6442 82.322 91.5165 81.8606 91.5151Z" fill="white"/>
<path d="M81.9364 95.903C82.7258 95.903 83.3658 95.2521 83.3658 94.449C83.3658 93.646 82.7258 92.995 81.9364 92.995C81.147 92.995 80.507 93.646 80.507 94.449C80.507 95.2521 81.147 95.903 81.9364 95.903Z" fill="#E8E32E"/>
<path d="M81.9893 94.929C82.3033 94.929 82.5578 94.6701 82.5578 94.3507C82.5578 94.0313 82.3033 93.7724 81.9893 93.7724C81.6753 93.7724 81.4208 94.0313 81.4208 94.3507C81.4208 94.6701 81.6753 94.929 81.9893 94.929Z" fill="#211F1F"/>
<path d="M75.8266 94.6266C76.0135 94.6266 76.1651 94.4751 76.1651 94.2882C76.1651 94.1013 76.0135 93.9498 75.8266 93.9498C75.6397 93.9498 75.4882 94.1013 75.4882 94.2882C75.4882 94.4751 75.6397 94.6266 75.8266 94.6266Z" fill="#FDF9E7"/>
<path d="M83.389 95.6712C83.7211 95.6712 83.9903 95.3976 83.9903 95.06C83.9903 94.7225 83.7211 94.4489 83.389 94.4489C83.0569 94.4489 82.7877 94.7225 82.7877 95.06C82.7877 95.3976 83.0569 95.6712 83.389 95.6712Z" fill="#FDF9E7"/>
<path d="M77.1799 95.903C77.9693 95.903 78.6093 95.2521 78.6093 94.449C78.6093 93.646 77.9693 92.995 77.1799 92.995C76.3905 92.995 75.7505 93.646 75.7505 94.449C75.7505 95.2521 76.3905 95.903 77.1799 95.903Z" fill="#E8E32E"/>
<path d="M77.2085 94.8611C77.5224 94.8611 77.7769 94.6022 77.7769 94.2828C77.7769 93.9634 77.5224 93.7045 77.2085 93.7045C76.8945 93.7045 76.64 93.9634 76.64 94.2828C76.64 94.6022 76.8945 94.8611 77.2085 94.8611Z" fill="#211F1F"/>
<path d="M78.2975 95.672C78.6296 95.672 78.8988 95.3984 78.8988 95.0609C78.8988 94.7233 78.6296 94.4497 78.2975 94.4497C77.9654 94.4497 77.6962 94.7233 77.6962 95.0609C77.6962 95.3984 77.9654 95.672 78.2975 95.672Z" fill="#FDF9E7"/>
<path d="M27.4469 57.7029C29.5057 57.7029 31.1748 56.0339 31.1748 53.975C31.1748 51.9162 29.5057 50.2472 27.4469 50.2472C25.3881 50.2472 23.7191 51.9162 23.7191 53.975C23.7191 56.0339 25.3881 57.7029 27.4469 57.7029Z" fill="#F6BEC3"/>
<path d="M67.5345 57.7029C69.5933 57.7029 71.2623 56.0339 71.2623 53.975C71.2623 51.9162 69.5933 50.2472 67.5345 50.2472C65.4756 50.2472 63.8066 51.9162 63.8066 53.975C63.8066 56.0339 65.4756 57.7029 67.5345 57.7029Z" fill="#F6BEC3"/>
<path d="M181.519 67.7262C185.955 67.2087 185.985 72.4119 182.998 74.298C187.253 77.3506 182.341 80.2619 178.785 78.6962C175.322 77.1699 172.406 71.5461 173.799 67.7542C175.214 63.9114 183.58 62.9962 181.519 67.7262Z" fill="#DDE3E7"/>
<path d="M144.216 117.011C142.632 119.881 140.68 121.631 141.668 124.981C141.877 125.551 142.224 126.06 142.679 126.461C143.134 126.863 143.682 127.145 144.273 127.281C147.057 128.379 150.127 128.514 152.996 127.664C156.972 126.131 157.279 114.056 157.371 110.344C157.616 107.377 157.437 104.389 156.839 101.472C155.899 98.5577 145.502 101.178 145.578 102.534C145.578 102.54 147.231 111.552 144.216 117.011Z" fill="#EEC2B3"/>
<path d="M160.026 120.449C158.442 123.321 156.492 125.071 157.478 128.421C157.687 128.99 158.035 129.499 158.49 129.9C158.945 130.302 159.492 130.584 160.084 130.721C162.867 131.82 165.939 131.955 168.808 131.104C172.784 129.574 173.091 117.495 173.183 113.785C173.298 109.105 173.694 103.574 173.217 102.102C172.276 99.1894 161.306 104.621 161.388 105.975C161.388 105.978 163.041 114.988 160.026 120.449Z" fill="#EEC2B3"/>
<path d="M105.214 117.011C103.629 119.881 101.679 121.631 102.666 124.981C102.875 125.551 103.222 126.06 103.677 126.461C104.131 126.863 104.679 127.145 105.27 127.281C108.054 128.379 111.125 128.514 113.994 127.664C117.97 126.131 118.277 114.056 118.369 110.344C118.615 107.377 118.435 104.389 117.837 101.472C116.896 98.5577 106.501 101.178 106.576 102.534C106.576 102.54 108.229 111.552 105.214 117.011Z" fill="#EEC2B3"/>
<path d="M120.547 120.449C118.965 123.321 117.013 125.07 118.001 128.42C118.21 128.99 118.557 129.498 119.012 129.9C119.466 130.301 120.014 130.583 120.605 130.72C123.388 131.82 126.46 131.954 129.329 131.103C133.307 129.574 133.612 117.495 133.704 113.785C133.948 110.817 133.769 107.83 133.173 104.913C132.23 102 121.837 104.62 121.911 105.974C121.911 105.978 123.562 114.988 120.547 120.449Z" fill="#EEC2B3"/>
<path d="M94.1865 63.7789C93.6542 64.7646 91.8535 65.509 91.1306 67.3179C90.388 69.1744 92.0129 72.4422 94.4461 71.8885C93.5096 74.7703 91.0469 76.2719 91.6531 79.8272C92.1148 82.5594 93.6443 83.0458 96.1252 83.2085C94.4642 86.5667 93.2648 91.4478 98.5272 91.5579C96.6082 93.858 95.9839 99.0103 101.496 98.7869C99.577 100.152 101.92 105.5 105.884 103.591C106.113 105.802 106.568 107.018 108.566 107.105C111.038 107.21 110.849 105.868 111.272 108.488C111.748 111.469 116.365 112.768 118.964 110.054C120.078 113.504 122.772 113.833 126.339 111.774C126.722 112.915 127.494 113.884 128.52 114.513C129.545 115.142 130.76 115.39 131.95 115.215C132.745 115.172 133.517 114.933 134.197 114.519C134.877 114.105 135.444 113.529 135.847 112.842C136.269 113.556 136.868 114.148 137.585 114.563C138.303 114.979 139.115 115.203 139.944 115.214C140.773 115.225 141.59 115.023 142.319 114.627C143.047 114.231 143.661 113.654 144.103 112.952C145.494 115.736 152.301 116.388 152.759 112.331C154.445 114.737 156.75 114.901 159.596 114.401C161.822 114.043 163.125 110.996 163.153 110.1C164.741 114.876 174.888 111.365 171.86 106.024C172.953 107.01 175.839 107.475 176.858 106.386C179.85 103.185 177.563 99.5131 177.435 99.0908C177.221 98.3893 178.936 99.748 180.468 97.8324C182.392 95.4222 181.665 90.7364 178.332 91.3394C182.505 90.0398 180.813 84.2648 177.993 84.9992C181.789 84.4751 181.789 77.0983 176.843 77.3776C180.458 74.8738 178.2 68.4646 174.461 69.0479C177.121 65.481 170.602 60.4848 166.685 63.6031C165.016 59.7766 160.159 58.855 157.32 63.2548C154.475 59.9016 151.056 60.5078 149.02 64.2701C148.572 63.717 147.99 63.2882 147.329 63.0248C146.668 62.7614 145.95 62.6723 145.245 62.766C144.539 62.8596 143.87 63.133 143.3 63.5598C142.731 63.9866 142.281 64.5525 141.993 65.2033C140.322 61.7186 136.44 63.0396 135.106 65.3939C134.437 63.9777 132.986 58.6447 130.085 61.7794C130.215 60.893 130.026 59.9893 129.551 59.2295C129.077 58.4696 128.348 57.9032 127.494 57.631C126.604 57.3386 125.495 57.8298 124.621 57.5998C123.306 57.2514 123.341 56.711 122.215 56.062C121.391 55.4847 120.431 55.1288 119.43 55.0284C118.428 54.928 117.417 55.0865 116.494 55.4886C115.262 56.0341 117.093 56.6518 115.07 56.5729C113.771 56.138 112.508 55.6041 111.291 54.976C108.41 54.0921 106.41 53.7717 105.066 56.9968C102.36 56.0258 96.7134 53.0932 96.3059 57.9185C96.3059 57.9613 92.8426 58.3342 92.6914 60.1496C92.4466 62.9311 95.7539 60.8725 94.1865 63.7789Z" fill="#DDE3E7"/>
<path d="M135.082 8.13858C136.442 8.53351 137.78 8.99796 139.091 9.53013C140.839 10.2929 142.505 11.2286 144.066 12.3232C146.995 14.4269 149.759 16.7525 152.332 19.2794C153.741 20.6086 152.281 22.3566 151.109 22.953C145.481 25.8249 139.707 24.338 133.919 21.3741C132.391 20.6099 131.023 19.5604 129.889 18.2822L135.082 8.13858Z" fill="#EEC2B3"/>
<path d="M143.705 14.3045C146.135 15.7682 148.443 17.4264 150.605 19.263C151.735 20.2077 150.534 21.4727 149.58 21.9147C148.052 22.6486 146.394 23.0717 144.702 23.1594C143.01 23.2472 141.317 22.9977 139.722 22.4256C138.769 22.0642 137.828 21.6551 136.89 21.2427C134.868 20.2008 133.013 18.8635 131.386 17.275C133.116 14.9931 134.966 12.8049 136.929 10.7196C137.047 10.6605 137.677 11.7645 137.961 12.2952" fill="#EAA29D"/>
<path d="M89.5236 8.02847C88.1329 8.29078 86.7565 8.62419 85.3998 9.02739C83.5878 9.61872 81.8393 10.3892 80.1802 11.3275C77.0641 13.1379 74.091 15.1839 71.2869 17.4476C69.7557 18.6338 71.0421 20.5149 72.1511 21.2263C77.4775 24.6272 83.3658 23.7039 89.4135 21.3151C91.0076 20.6988 92.4697 19.7843 93.7214 18.6206L89.5236 8.02847Z" fill="#EEC2B3"/>
<path d="M82.4225 12.1359L80.3458 13.3353C77.7841 14.556 75.3268 15.9847 72.9985 17.6069C71.7828 18.4383 72.854 19.8134 73.7625 20.3441C75.2125 21.2222 76.8225 21.8032 78.499 22.0534C80.1755 22.3035 81.8851 22.2179 83.5282 21.8014C84.514 21.5352 85.4866 21.2198 86.4625 20.8978C88.5735 20.0553 90.5467 18.9018 92.3163 17.4755C90.8144 15.0384 89.1839 12.683 87.4319 10.419" fill="#EAA29D"/>
<path d="M135.709 61.2532C132.654 62.8503 129.408 64.0522 126.05 64.8299C124.685 65.1585 123.295 65.4526 121.911 65.6958C118.568 66.2793 115.181 66.582 111.787 66.601C108.58 66.6188 105.376 66.4173 102.196 65.998C101.227 65.8633 100.3 65.7089 99.4029 65.5314C74.619 60.6847 79.0566 40.4962 83.2806 30.1259C86.5895 22.0081 87.4964 17.1351 92.3004 12.1011C97.1751 6.99643 105.102 6.03697 111.791 6.01397C118.261 5.99097 125.414 6.90278 130.964 10.4499C139.19 15.7073 137.043 21.893 140.1 30.5169C145.811 46.6161 144.324 56.5363 135.709 61.2532Z" fill="#EEC2B3"/>
<path d="M91.4955 5.47192C94.0881 3.91112 95.9216 6.38049 97.0651 7.52069C96.9738 6.22987 97.3925 4.95471 98.2311 3.96921C99.0698 2.98371 100.262 2.36647 101.55 2.2501C104.319 1.84593 105.436 3.30818 107.276 6.17677C107.435 5.30625 107.769 4.47701 108.258 3.73922C108.746 3.00144 109.379 2.37041 110.119 1.88433C110.858 1.39826 111.689 1.06723 112.56 0.91124C113.431 0.755254 114.325 0.777567 115.187 0.976822C116.861 1.39085 118.121 3.81093 118.668 5.3208C118.767 4.50503 119.062 3.72531 119.528 3.04851C119.994 2.37171 120.617 1.818 121.344 1.43484C122.071 1.05169 122.88 0.850506 123.701 0.848567C124.523 0.846627 125.333 1.04399 126.062 1.42371C128.005 2.1959 128.161 4.55848 128.212 6.17186C130.619 3.91116 133.356 4.06062 135.076 5.88923C136.176 7.05572 136.769 9.68777 135.464 10.8461C137.526 10.5273 139.429 11.219 139.429 14.6462C139.412 15.154 139.283 15.6517 139.049 16.1028C138.815 16.5539 138.484 16.9469 138.078 17.2531C137.673 17.5592 137.204 17.7707 136.706 17.872C136.208 17.9733 135.694 17.9618 135.201 17.8384C135.947 19.92 136.036 22.1364 133.751 23.1041C133.376 23.2872 132.966 23.3889 132.549 23.4025C132.132 23.4161 131.717 23.3414 131.331 23.1831C130.945 23.0248 130.596 22.7866 130.309 22.4842C130.022 22.1817 129.801 21.8219 129.663 21.4283C129.773 22 129.762 22.5884 129.631 23.1558C129.501 23.7233 129.254 24.2572 128.906 24.7238C128.557 25.1903 128.116 25.5791 127.609 25.8654C127.102 26.1518 126.541 26.3293 125.961 26.3867C125.381 26.4185 124.8 26.3321 124.254 26.1329C123.708 25.9336 123.208 25.6256 122.785 25.2275C122.361 24.8293 122.023 24.3493 121.79 23.8166C121.558 23.2838 121.436 22.7095 121.432 22.1282C120.819 25.9201 118.967 27.5006 115.918 28.0674C115.214 28.1227 114.505 28.0377 113.834 27.8175C113.163 27.5973 112.542 27.2463 112.007 26.7846C111.472 26.3229 111.034 25.7597 110.719 25.1277C110.403 24.4957 110.216 23.8073 110.168 23.1024C108.875 27.8982 101.238 28.6343 101.376 22.7739C99.9633 24.6271 97.2902 26.3357 95.3762 25.4469C94.3996 24.9233 93.6469 24.0622 93.2587 23.0243C92.8705 21.9864 92.8733 20.8426 93.2666 19.8067C92.4581 20.0651 91.5974 20.1151 90.7645 19.952C89.9315 19.7888 89.1533 19.4178 88.502 18.8735C87.9099 18.2301 87.4838 17.4518 87.2607 16.6063C87.0377 15.7608 87.0244 14.8736 87.2222 14.0218C87.674 12.2688 90.0612 11.4786 90.3093 10.7228C90.4194 10.3581 87.9204 7.61761 91.4955 5.47192Z" fill="#DDE3E7"/>
<path d="M143.386 70.1909C143.705 67.802 147.126 66.2758 148.673 68.3837" stroke="#C8CFD3" stroke-width="0.480713" stroke-linecap="round" stroke-linejoin="round"/>
<path d="M159.667 68.3361C159.629 67.9139 160.417 66.3466 161.474 66.2989C162.573 66.2496 163.117 67.3027 163.459 68.2343C164.356 67.4966 165.644 66.6964 166.83 67.4571C167.077 67.6666 167.269 67.9324 167.392 68.2321C167.514 68.5317 167.562 68.8564 167.533 69.1787C167.503 69.501 167.396 69.8114 167.221 70.0837C167.046 70.356 166.808 70.5821 166.528 70.743" stroke="#C8CFD3" stroke-width="0.480713" stroke-linecap="round" stroke-linejoin="round"/>
<path d="M168.571 100.896C170.552 101.896 173.51 100.418 171.665 98.1998C174.536 98.2672 174.481 94.0924 171.817 93.5667" stroke="#C8CFD3" stroke-width="0.480713" stroke-linecap="round" stroke-linejoin="round"/>
<path d="M145.289 108.687C145.257 111.265 149.416 111.104 150.853 109.985" stroke="#C8CFD3" stroke-width="0.480713" stroke-linecap="round" stroke-linejoin="round"/>
<path d="M127.849 107.575C127.588 109.796 130.284 111.119 132.208 110.542" stroke="#C8CFD3" stroke-width="0.480713" stroke-linecap="round" stroke-linejoin="round"/>
<path d="M133.413 106.461C134.369 109.203 138.626 107.862 138.7 105.163" stroke="#C8CFD3" stroke-width="0.480713" stroke-linecap="round" stroke-linejoin="round"/>
<path d="M103.73 95.422C102.505 97.3147 103.885 98.5684 105.956 98.5766" stroke="#C8CFD3" stroke-width="0.480713" stroke-linecap="round" stroke-linejoin="round"/>
<path d="M100.576 87.4454C98.9327 89.5812 99.9563 91.0139 102.802 90.8759" stroke="#C8CFD3" stroke-width="0.480713" stroke-linecap="round" stroke-linejoin="round"/>
<path d="M106.234 89.4841C106.095 90.2431 105.741 90.8641 105.939 91.587C106.41 93.2612 108.365 93.1429 109.76 93.1018" stroke="#C8CFD3" stroke-width="0.480713" stroke-linecap="round" stroke-linejoin="round"/>
<path d="M98.5354 72.3252C96.8924 74.0273 99.2501 76.8417 101.039 74.0307C101.241 74.8226 101.736 75.7328 102.708 75.6736C103.859 75.5997 105.276 72.3187 103.822 72.0493" stroke="#C8CFD3" stroke-width="0.480713" stroke-linecap="round" stroke-linejoin="round"/>
<path d="M177.384 66.4799C178.708 66.1316 179.669 65.923 180.628 67.2209" stroke="#C8CFD3" stroke-width="0.480713" stroke-linecap="round" stroke-linejoin="round"/>
<path d="M130.816 69.2631C131.145 65.8671 135.732 66.4701 137.224 68.7998" stroke="#C8CFD3" stroke-width="0.480713" stroke-linecap="round" stroke-linejoin="round"/>
<path d="M172.56 76.4999C175.833 76.4753 175.682 79.4408 173.301 80.857" stroke="#C8CFD3" stroke-width="0.480713" stroke-linecap="round" stroke-linejoin="round"/>
<path d="M95.752 12.5842C94.965 10.3612 98.3002 8.43411 99.6491 10.6357" stroke="#C8CFD3" stroke-width="0.480713" stroke-linecap="round" stroke-linejoin="round"/>
<path d="M107.812 11.193C107.204 8.89283 109.501 7.74278 110.616 10.0544C110.713 9.62175 110.972 9.24239 111.339 8.99392C111.706 8.74545 112.154 8.64657 112.592 8.71745C113.03 8.78834 113.424 9.02364 113.694 9.37533C113.964 9.72701 114.09 10.1685 114.045 10.6096C115.064 7.59812 119.919 10.2286 118.108 12.4926" stroke="#C8CFD3" stroke-width="0.480713" stroke-linecap="round" stroke-linejoin="round"/>
<path d="M126.735 20.8405C129.129 21.547 131.138 20.7238 131.467 17.9653" stroke="#C8CFD3" stroke-width="0.480713" stroke-linecap="round" stroke-linejoin="round"/>
<path opacity="0.1" d="M110.404 36.117C110.232 38.3145 109.197 40.3547 107.526 41.7915C105.854 43.2283 103.682 43.9448 101.484 43.7846C99.2851 43.6243 97.2396 42.6003 95.794 40.9363C94.3484 39.2723 93.6204 37.1037 93.7691 34.9045" stroke="#211F1F" stroke-width="0.908764" stroke-linecap="round" stroke-linejoin="round"/>
<path opacity="0.1" d="M126.516 36.117C126.324 38.2991 125.281 40.3181 123.613 41.7379C121.945 43.1577 119.785 43.8644 117.601 43.7052C115.416 43.5459 113.381 42.5336 111.937 40.887C110.492 39.2403 109.753 37.0914 109.879 34.9045" stroke="#211F1F" stroke-width="0.908764" stroke-linecap="round" stroke-linejoin="round"/>
<path d="M118.737 25.7706C116.957 25.7813 115.225 26.3468 113.782 27.3885C112.339 28.4301 111.257 29.8959 110.687 31.5817C110.008 29.6464 108.666 28.0137 106.899 26.9727C105.132 25.9317 103.053 25.5495 101.032 25.8938C99.0098 26.2381 97.1751 27.2868 95.8522 28.854C94.5293 30.4213 93.8036 32.4059 93.8036 34.4568C93.8036 36.5078 94.5293 38.4925 95.8522 40.0598C97.1751 41.627 99.0098 42.6755 101.032 43.0199C103.053 43.3642 105.132 42.982 106.899 41.941C108.666 40.9 110.008 39.2673 110.687 37.332C111.232 38.7981 112.169 40.087 113.394 41.0588C114.62 42.0307 116.089 42.6484 117.641 42.8451C119.192 43.0418 120.769 42.81 122.198 42.1747C123.628 41.5395 124.856 40.525 125.75 39.2414C126.644 37.9578 127.17 36.4539 127.27 34.8928C127.37 33.3316 127.041 31.7728 126.319 30.3854C125.596 28.9979 124.508 27.8347 123.171 27.0218C121.835 26.2089 120.301 25.7773 118.737 25.7739V25.7706Z" fill="white"/>
<path d="M118.992 40.6348C121.668 40.6348 123.837 38.4303 123.837 35.7108C123.837 32.9914 121.668 30.7869 118.992 30.7869C116.316 30.7869 114.147 32.9914 114.147 35.7108C114.147 38.4303 116.316 40.6348 118.992 40.6348Z" fill="#87871D"/>
<path d="M119.172 37.3404C120.236 37.3404 121.099 36.4629 121.099 35.3804C121.099 34.2979 120.236 33.4203 119.172 33.4203C118.108 33.4203 117.245 34.2979 117.245 35.3804C117.245 36.4629 118.108 37.3404 119.172 37.3404Z" fill="#211F1F"/>
<path d="M98.2872 36.327C98.9187 36.327 99.4307 35.8062 99.4307 35.1637C99.4307 34.5213 98.9187 34.0005 98.2872 34.0005C97.6557 34.0005 97.1437 34.5213 97.1437 35.1637C97.1437 35.8062 97.6557 36.327 98.2872 36.327Z" fill="#FDF9E7"/>
<path d="M123.913 39.8577C125.04 39.8577 125.953 38.9294 125.953 37.7843C125.953 36.6392 125.04 35.7109 123.913 35.7109C122.786 35.7109 121.872 36.6392 121.872 37.7843C121.872 38.9294 122.786 39.8577 123.913 39.8577Z" fill="#FDF9E7"/>
<path d="M102.88 40.6348C105.555 40.6348 107.725 38.4303 107.725 35.7108C107.725 32.9914 105.555 30.7869 102.88 30.7869C100.204 30.7869 98.0345 32.9914 98.0345 35.7108C98.0345 38.4303 100.204 40.6348 102.88 40.6348Z" fill="#87871D"/>
<path d="M102.97 37.1136C104.034 37.1136 104.897 36.2361 104.897 35.1536C104.897 34.0711 104.034 33.1935 102.97 33.1935C101.905 33.1935 101.042 34.0711 101.042 35.1536C101.042 36.2361 101.905 37.1136 102.97 37.1136Z" fill="#211F1F"/>
<path d="M114.661 47.6479C113.214 48.1408 110.761 50.7038 112.713 52.0165C114.259 53.0565 115.998 50.0861 114.263 49.2499C113.401 48.8358 112.831 49.608 112.473 50.2816" fill="#EAA29D"/>
<path d="M106.359 47.6479C107.807 48.1408 110.26 50.7038 108.308 52.0165C106.762 53.0565 105.022 50.0861 106.759 49.2499C107.618 48.8358 108.191 49.608 108.548 50.2816" fill="#EAA29D"/>
<path d="M89.047 53.9521C91.301 53.9521 93.1281 52.1249 93.1281 49.871C93.1281 47.6171 91.301 45.7899 89.047 45.7899C86.7931 45.7899 84.9659 47.6171 84.9659 49.871C84.9659 52.1249 86.7931 53.9521 89.047 53.9521Z" fill="#EAA29D"/>
<path d="M132.947 53.9521C135.201 53.9521 137.028 52.1249 137.028 49.871C137.028 47.6171 135.201 45.7899 132.947 45.7899C130.693 45.7899 128.866 47.6171 128.866 49.871C128.866 52.1249 130.693 53.9521 132.947 53.9521Z" fill="#EAA29D"/>
<path d="M114.945 53.9604C115.102 54.9191 114.88 55.9014 114.326 56.6993C113.772 57.4972 112.929 58.0482 111.976 58.2359C111.022 58.4235 110.034 58.2329 109.218 57.7045C108.403 57.1761 107.825 56.3513 107.608 55.4045" stroke="#211F1F" stroke-width="0.606293" stroke-linecap="round" stroke-linejoin="round"/>
</svg>
