<svg width="21" height="20" viewBox="0 0 21 20" fill="none" xmlns="http://www.w3.org/2000/svg">
<path fill-rule="evenodd" clip-rule="evenodd" d="M12.8849 9.22902C13.3224 9.22902 13.6684 9.56902 13.6684 9.99902C13.6684 10.419 13.3224 10.769 12.8849 10.769H6.78027V15.549C6.78027 17.999 8.80498 19.999 11.3079 19.999H16.2628C18.7556 19.999 20.7803 18.009 20.7803 15.559V4.44902C20.7803 1.98902 18.7454 -0.000976562 16.2527 -0.000976562H11.2875C8.80498 -0.000976562 6.78027 1.98902 6.78027 4.43902V9.22902H12.8849ZM3.15007 6.53922L0.230072 9.44922C0.0800724 9.59922 7.24792e-05 9.78922 7.24792e-05 9.99922C7.24792e-05 10.1992 0.0800724 10.3992 0.230072 10.5392L3.15007 13.4492C3.30007 13.5992 3.50007 13.6792 3.69007 13.6792C3.89007 13.6792 4.09007 13.5992 4.24007 13.4492C4.54007 13.1492 4.54007 12.6592 4.24007 12.3592L2.64007 10.7692H6.78007V9.22922H2.64007L4.24007 7.63922C4.54007 7.33922 4.54007 6.84922 4.24007 6.54922C3.94007 6.23922 3.45007 6.23922 3.15007 6.53922Z" fill="#92A2AD"/>
</svg>
